{"glyphs":{"0":{"ha":793,"x_min":81,"x_max":712,"o":"m 397 52 q 197 178 260 52 q 157 366 157 256 q 289 655 157 586 q 399 681 338 681 q 609 530 553 681 q 635 365 635 460 q 533 100 635 187 q 397 52 473 52 m 399 743 q 134 595 218 743 q 81 365 81 500 q 208 50 81 152 q 396 -12 286 -12 q 640 114 551 -12 q 712 366 712 217 q 567 699 712 608 q 399 743 495 743 z "},"1":{"ha":517,"x_min":41,"x_max":441,"o":"m 64 575 l 255 655 l 255 57 l 98 57 l 98 0 l 441 0 l 441 57 l 328 57 l 328 732 l 267 732 l 41 636 l 64 575 z "},"2":{"ha":582,"x_min":39,"x_max":507,"o":"m 507 1 l 507 65 l 161 65 l 302 225 q 347 275 317 241 q 472 442 446 385 q 492 526 492 486 q 391 709 492 648 q 262 743 332 743 q 52 640 130 743 q 41 625 45 632 l 99 593 q 258 680 165 673 q 392 609 350 680 q 415 522 415 571 q 330 350 415 449 q 259 273 308 326 l 39 39 l 39 1 l 507 1 z "},"3":{"ha":571,"x_min":14,"x_max":524,"o":"m 240 -194 q 457 -102 374 -194 q 524 81 524 -26 q 430 271 524 205 q 339 311 389 298 q 475 444 438 343 q 488 525 488 483 q 387 708 488 646 q 256 743 327 743 q 54 642 127 743 q 41 621 46 631 l 100 589 q 254 681 160 678 q 384 614 338 681 q 412 518 412 572 q 335 368 412 419 q 218 335 285 335 l 165 335 l 165 274 l 248 274 q 425 176 372 274 q 448 79 448 132 q 354 -98 448 -39 q 240 -129 302 -129 q 60 -57 141 -127 l 14 -109 q 240 -194 113 -194 z "},"4":{"ha":671,"x_min":35,"x_max":647,"o":"m 511 -183 l 511 57 l 647 57 l 647 121 l 511 121 l 511 732 l 446 732 l 35 110 l 46 57 l 438 57 l 438 -183 l 511 -183 m 119 119 l 438 606 l 438 121 l 119 119 z "},"5":{"ha":583,"x_min":39,"x_max":526,"o":"m 232 -194 q 479 -62 399 -194 q 526 113 526 16 q 433 335 526 252 q 239 403 355 403 q 161 395 199 403 l 161 670 l 469 670 l 469 732 l 90 732 l 90 321 q 212 343 152 343 q 422 228 361 343 q 450 110 450 175 q 372 -79 450 -11 q 233 -129 313 -129 q 77 -79 155 -127 l 39 -134 q 232 -194 132 -194 z "},"6":{"ha":707,"x_min":72,"x_max":631,"o":"m 631 289 q 517 538 631 454 q 369 587 450 587 q 180 496 258 587 q 146 446 161 473 q 256 808 151 704 q 395 864 315 864 q 551 789 491 863 l 601 830 q 412 926 530 920 q 399 926 406 926 q 118 701 199 926 q 72 404 72 576 q 189 49 72 156 q 351 -11 256 -11 q 578 113 498 -11 q 631 289 631 193 m 157 290 q 264 500 157 441 q 362 525 311 525 q 514 441 460 525 q 555 285 555 377 q 460 84 555 148 q 354 52 411 52 q 208 130 266 52 q 157 290 157 198 z "},"7":{"ha":537,"x_min":15,"x_max":514,"o":"m 514 678 l 514 732 l 15 732 l 15 661 l 430 661 q 126 -176 232 202 l 203 -189 q 514 678 320 233 z "},"8":{"ha":636,"x_min":43,"x_max":591,"o":"m 591 241 q 502 446 591 374 q 415 487 461 477 q 547 613 510 517 q 562 701 562 655 q 450 898 562 841 q 326 926 395 926 q 122 836 191 926 q 77 696 77 777 q 167 515 77 579 q 217 490 191 499 q 73 365 121 457 q 43 241 43 307 q 151 35 43 106 q 312 -11 220 -11 q 532 80 450 -11 q 591 241 591 149 m 118 245 q 214 431 118 376 q 317 457 260 457 q 486 368 430 457 q 517 244 517 315 q 430 83 517 137 q 317 52 380 52 q 152 134 208 52 q 118 245 118 183 m 151 694 q 247 852 151 814 q 321 865 281 865 q 475 779 435 865 q 491 699 491 743 q 399 533 491 576 q 321 517 363 517 q 174 597 220 517 q 151 694 151 640 z "},"9":{"ha":705,"x_min":72,"x_max":629,"o":"m 72 442 q 178 202 72 286 q 332 148 247 148 q 521 241 444 148 q 553 292 538 264 q 430 -90 549 8 q 307 -132 377 -132 q 164 -69 222 -132 q 153 -56 157 -61 l 104 -95 q 273 -191 165 -178 q 304 -194 289 -194 q 576 15 491 -194 q 629 335 629 148 q 487 705 629 614 q 350 743 427 743 q 121 618 198 743 q 72 442 72 540 m 347 681 q 499 601 442 681 q 543 449 543 538 q 441 239 543 300 q 340 210 393 210 q 187 296 243 210 q 148 449 148 358 q 255 659 148 602 q 347 681 298 681 z "},"A":{"ha":704,"x_min":11,"x_max":692,"o":"m 88 0 l 161 236 l 537 236 l 610 0 l 692 0 l 403 916 l 302 916 l 11 0 l 88 0 m 301 685 q 350 856 340 825 q 384 741 359 823 q 399 686 395 701 l 519 296 l 180 296 l 301 685 z "},"Æ":{"ha":1103,"x_min":11,"x_max":1029,"o":"m 94 0 l 229 239 l 585 239 l 585 0 l 1029 0 l 1029 62 l 656 62 l 656 448 l 978 448 l 978 510 l 656 510 l 656 853 l 1017 853 l 1017 916 l 538 916 l 11 0 l 94 0 m 458 640 q 585 865 507 726 l 585 298 l 263 297 l 458 640 z "},"Á":{"ha":704,"x_min":11,"x_max":692,"o":"m 88 0 l 161 236 l 537 236 l 610 0 l 692 0 l 403 916 l 302 916 l 11 0 l 88 0 m 301 685 q 350 856 340 825 q 384 741 359 823 q 399 686 395 701 l 519 296 l 180 296 l 301 685 m 514 1118 l 468 1176 l 274 1028 l 308 981 l 514 1118 z "},"Ă":{"ha":704,"x_min":11,"x_max":692,"o":"m 88 0 l 161 236 l 537 236 l 610 0 l 692 0 l 403 916 l 302 916 l 11 0 l 88 0 m 301 685 q 350 856 340 825 q 384 741 359 823 q 399 686 395 701 l 519 296 l 180 296 l 301 685 m 199 1149 q 283 1015 201 1051 q 353 1000 316 1000 q 484 1065 439 1000 q 511 1149 509 1101 l 458 1152 q 389 1062 452 1082 q 355 1057 372 1057 q 266 1109 294 1057 q 254 1154 256 1130 l 199 1149 z "},"Â":{"ha":704,"x_min":11,"x_max":692,"o":"m 88 0 l 161 236 l 537 236 l 610 0 l 692 0 l 403 916 l 302 916 l 11 0 l 88 0 m 301 685 q 350 856 340 825 q 384 741 359 823 q 399 686 395 701 l 519 296 l 180 296 l 301 685 m 361 1168 l 186 1019 l 220 977 l 358 1084 l 498 975 l 533 1021 l 361 1168 z "},"Ä":{"ha":704,"x_min":11,"x_max":692,"o":"m 88 0 l 161 236 l 537 236 l 610 0 l 692 0 l 403 916 l 302 916 l 11 0 l 88 0 m 301 685 q 350 856 340 825 q 384 741 359 823 q 399 686 395 701 l 519 296 l 180 296 l 301 685 m 288 1073 q 251 1128 288 1118 q 237 1130 244 1130 q 190 1090 199 1130 q 187 1073 187 1081 q 225 1017 187 1027 q 237 1016 232 1016 q 285 1055 275 1016 q 288 1073 288 1065 m 521 1073 q 484 1128 521 1118 q 469 1130 476 1130 q 423 1092 434 1130 q 420 1073 420 1082 q 454 1019 420 1031 q 469 1016 463 1016 q 518 1055 509 1016 q 521 1073 521 1065 z "},"À":{"ha":704,"x_min":11,"x_max":692,"o":"m 88 0 l 161 236 l 537 236 l 610 0 l 692 0 l 403 916 l 302 916 l 11 0 l 88 0 m 301 685 q 350 856 340 825 q 384 741 359 823 q 399 686 395 701 l 519 296 l 180 296 l 301 685 m 224 1118 l 270 1176 l 464 1028 l 430 981 l 224 1118 z "},"Ā":{"ha":704,"x_min":11,"x_max":692,"o":"m 88 0 l 161 236 l 537 236 l 610 0 l 692 0 l 403 916 l 302 916 l 11 0 l 88 0 m 301 685 q 350 856 340 825 q 384 741 359 823 q 399 686 395 701 l 519 296 l 180 296 l 301 685 m 184 1103 l 184 1044 l 524 1044 l 524 1103 l 184 1103 z "},"Ą":{"ha":704,"x_min":11,"x_max":715,"o":"m 88 0 l 161 236 l 537 236 l 610 0 l 614 0 q 511 -149 513 -68 q 595 -259 511 -233 q 650 -266 621 -266 q 715 -258 685 -266 l 712 -208 q 667 -213 690 -213 q 581 -160 597 -213 q 576 -136 576 -148 q 674 -9 576 -65 q 693 0 685 -4 l 692 0 l 403 916 l 302 916 l 11 0 l 88 0 m 301 685 q 350 856 340 825 q 384 741 359 823 q 399 686 395 701 l 519 296 l 180 296 l 301 685 z "},"Å":{"ha":704,"x_min":11,"x_max":692,"o":"m 88 0 l 161 236 l 537 236 l 610 0 l 692 0 l 403 914 q 484 1023 476 943 q 486 1039 486 1031 q 411 1161 486 1130 q 357 1172 385 1172 q 245 1112 282 1172 q 227 1038 227 1080 q 302 914 228 945 l 11 0 l 88 0 m 301 685 q 350 856 340 825 q 384 741 359 823 q 399 686 395 701 l 519 296 l 180 296 l 301 685 m 278 1038 q 328 1120 278 1101 q 354 1126 340 1126 q 425 1080 404 1126 q 433 1038 433 1059 q 378 955 433 971 q 355 951 366 951 q 286 996 307 951 q 278 1038 278 1016 z "},"Ã":{"ha":704,"x_min":11,"x_max":692,"o":"m 88 0 l 161 236 l 537 236 l 610 0 l 692 0 l 403 916 l 302 916 l 11 0 l 88 0 m 301 685 q 350 856 340 825 q 384 741 359 823 q 399 686 395 701 l 519 296 l 180 296 l 301 685 m 437 1078 q 358 1105 412 1078 q 285 1127 317 1126 q 165 1070 224 1126 l 199 1035 q 282 1067 239 1067 q 362 1040 308 1067 q 441 1019 407 1019 q 547 1077 498 1020 l 513 1114 q 437 1078 476 1078 z "},"B":{"ha":688,"x_min":111,"x_max":628,"o":"m 628 264 q 544 438 628 373 q 433 483 496 473 q 574 593 526 506 q 601 700 601 643 q 472 894 601 841 q 321 918 408 918 q 111 916 176 918 l 111 0 q 263 -4 168 -4 q 628 264 627 -3 m 312 856 q 525 686 524 854 q 425 530 525 576 q 300 506 372 506 l 183 506 l 183 853 q 312 856 273 856 m 290 58 q 183 64 235 58 l 183 446 l 316 446 q 545 305 515 446 q 549 259 549 283 q 290 58 547 60 z "},"C":{"ha":692,"x_min":53,"x_max":681,"o":"m 406 57 q 171 227 240 57 q 133 456 133 321 q 263 817 133 720 q 401 860 323 860 q 612 705 548 857 l 681 728 q 467 921 620 890 q 404 926 435 926 q 132 774 228 926 q 53 456 53 650 q 193 62 53 184 q 396 -11 278 -11 q 662 81 522 -9 l 631 136 q 406 57 507 57 z "},"Ć":{"ha":692,"x_min":53,"x_max":681,"o":"m 406 57 q 171 227 240 57 q 133 456 133 321 q 263 817 133 720 q 401 860 323 860 q 612 705 548 857 l 681 728 q 467 921 620 890 q 404 926 435 926 q 132 774 228 926 q 53 456 53 650 q 193 62 53 184 q 396 -11 278 -11 q 662 81 522 -9 l 631 136 q 406 57 507 57 m 566 1118 l 519 1176 l 326 1028 l 359 981 l 566 1118 z "},"Č":{"ha":692,"x_min":53,"x_max":681,"o":"m 406 57 q 171 227 240 57 q 133 456 133 321 q 263 817 133 720 q 401 860 323 860 q 612 705 548 857 l 681 728 q 467 921 620 890 q 404 926 435 926 q 132 774 228 926 q 53 456 53 650 q 193 62 53 184 q 396 -11 278 -11 q 662 81 522 -9 l 631 136 q 406 57 507 57 m 403 975 l 578 1124 l 544 1166 l 406 1059 l 266 1168 l 231 1122 l 403 975 z "},"Ç":{"ha":692,"x_min":53,"x_max":681,"o":"m 370 -260 q 511 -187 473 -260 q 525 -133 525 -161 q 449 -14 525 -56 q 439 -8 444 -9 q 662 81 544 4 l 631 136 q 406 57 507 57 q 171 227 240 57 q 133 456 133 321 q 263 817 133 720 q 401 860 323 860 q 612 705 548 857 l 681 728 q 467 921 620 890 q 404 926 435 926 q 132 774 228 926 q 53 456 53 650 q 193 64 53 187 q 378 -11 271 -5 q 469 -122 464 -58 q 407 -197 469 -179 q 361 -203 385 -203 q 319 -199 340 -203 l 316 -255 q 370 -260 342 -260 z "},"D":{"ha":764,"x_min":111,"x_max":711,"o":"m 111 916 l 111 0 q 327 -4 236 -4 q 652 186 555 -5 q 711 456 711 300 q 548 859 711 746 q 330 920 458 920 q 202 917 289 920 q 111 916 142 916 m 327 61 q 183 62 237 61 l 183 853 q 330 854 239 854 q 608 642 541 854 q 632 456 632 560 q 495 110 632 206 q 327 61 425 61 z "},"Ď":{"ha":764,"x_min":111,"x_max":711,"o":"m 111 916 l 111 0 q 327 -4 236 -4 q 652 186 555 -5 q 711 456 711 300 q 548 859 711 746 q 330 920 458 920 q 202 917 289 920 q 111 916 142 916 m 327 61 q 183 62 237 61 l 183 853 q 330 854 239 854 q 608 642 541 854 q 632 456 632 560 q 495 110 632 206 q 327 61 425 61 m 350 975 l 525 1124 l 491 1166 l 353 1059 l 213 1168 l 178 1122 l 350 975 z "},"Đ":{"ha":768,"x_min":8,"x_max":715,"o":"m 8 507 l 8 449 l 115 449 l 115 0 q 331 -4 240 -4 q 656 186 559 -5 q 715 456 715 300 q 552 859 715 746 q 334 920 463 920 q 206 917 293 920 q 115 916 146 916 l 115 507 l 8 507 m 331 61 q 187 62 241 61 l 187 449 l 399 449 l 399 507 l 187 507 l 187 853 q 334 854 243 854 q 612 642 545 854 q 636 456 636 560 q 499 110 636 206 q 331 61 429 61 z "},"E":{"ha":628,"x_min":111,"x_max":556,"o":"m 556 62 l 183 62 l 183 448 l 505 448 l 505 510 l 183 510 l 183 853 l 544 853 l 544 916 l 111 916 l 111 0 l 556 0 l 556 62 z "},"É":{"ha":628,"x_min":111,"x_max":556,"o":"m 556 62 l 183 62 l 183 448 l 505 448 l 505 510 l 183 510 l 183 853 l 544 853 l 544 916 l 111 916 l 111 0 l 556 0 l 556 62 m 490 1118 l 444 1176 l 250 1028 l 283 981 l 490 1118 z "},"Ě":{"ha":628,"x_min":111,"x_max":556,"o":"m 556 62 l 183 62 l 183 448 l 505 448 l 505 510 l 183 510 l 183 853 l 544 853 l 544 916 l 111 916 l 111 0 l 556 0 l 556 62 m 327 975 l 502 1124 l 468 1166 l 330 1059 l 190 1168 l 155 1122 l 327 975 z "},"Ê":{"ha":628,"x_min":111,"x_max":556,"o":"m 556 62 l 183 62 l 183 448 l 505 448 l 505 510 l 183 510 l 183 853 l 544 853 l 544 916 l 111 916 l 111 0 l 556 0 l 556 62 m 335 1168 l 160 1019 l 194 977 l 332 1084 l 472 975 l 507 1021 l 335 1168 z "},"Ë":{"ha":628,"x_min":111,"x_max":556,"o":"m 556 62 l 183 62 l 183 448 l 505 448 l 505 510 l 183 510 l 183 853 l 544 853 l 544 916 l 111 916 l 111 0 l 556 0 l 556 62 m 263 1073 q 227 1128 263 1118 q 213 1130 220 1130 q 165 1090 175 1130 q 163 1073 163 1081 q 201 1017 163 1027 q 213 1016 208 1016 q 260 1055 251 1016 q 263 1073 263 1065 m 496 1073 q 460 1128 496 1118 q 445 1130 452 1130 q 399 1092 410 1130 q 396 1073 396 1082 q 430 1019 396 1031 q 445 1016 438 1016 q 494 1055 484 1016 q 496 1073 496 1065 z "},"Ė":{"ha":628,"x_min":111,"x_max":556,"o":"m 556 62 l 183 62 l 183 448 l 505 448 l 505 510 l 183 510 l 183 853 l 544 853 l 544 916 l 111 916 l 111 0 l 556 0 l 556 62 m 369 1059 q 347 1118 381 1100 q 343 1119 345 1119 q 293 1095 309 1133 q 290 1089 292 1092 q 316 1029 281 1046 q 366 1054 350 1016 q 369 1059 368 1057 z "},"È":{"ha":628,"x_min":111,"x_max":556,"o":"m 556 62 l 183 62 l 183 448 l 505 448 l 505 510 l 183 510 l 183 853 l 544 853 l 544 916 l 111 916 l 111 0 l 556 0 l 556 62 m 199 1118 l 245 1176 l 439 1028 l 406 981 l 199 1118 z "},"Ē":{"ha":628,"x_min":111,"x_max":556,"o":"m 556 62 l 183 62 l 183 448 l 505 448 l 505 510 l 183 510 l 183 853 l 544 853 l 544 916 l 111 916 l 111 0 l 556 0 l 556 62 m 160 1103 l 160 1044 l 499 1044 l 499 1103 l 160 1103 z "},"Ę":{"ha":628,"x_min":111,"x_max":578,"o":"m 578 -258 l 575 -208 q 530 -213 553 -213 q 444 -160 460 -213 q 439 -136 439 -148 q 537 -9 439 -65 q 556 0 548 -4 l 556 62 l 183 62 l 183 448 l 505 448 l 505 510 l 183 510 l 183 853 l 544 853 l 544 916 l 111 916 l 111 0 l 477 0 q 374 -149 376 -68 q 458 -259 374 -233 q 513 -266 484 -266 q 578 -258 548 -266 z "},"Ð":{"ha":768,"x_min":8,"x_max":715,"o":"m 8 507 l 8 449 l 115 449 l 115 0 q 331 -4 240 -4 q 656 186 559 -5 q 715 456 715 300 q 552 859 715 746 q 334 920 463 920 q 206 917 293 920 q 115 916 146 916 l 115 507 l 8 507 m 331 61 q 187 62 241 61 l 187 449 l 399 449 l 399 507 l 187 507 l 187 853 q 334 854 243 854 q 612 642 545 854 q 636 456 636 560 q 499 110 636 206 q 331 61 429 61 z "},"€":{"ha":764,"x_min":23,"x_max":694,"o":"m 694 73 l 663 129 q 453 57 551 57 q 233 221 301 57 q 201 347 210 278 l 544 347 l 555 404 l 195 404 q 194 458 194 423 q 195 502 194 487 l 585 502 l 595 559 l 199 559 q 358 841 228 783 q 446 860 399 860 q 623 768 553 860 q 635 750 629 758 l 692 793 q 491 924 620 905 q 449 926 469 926 q 180 749 271 926 q 122 559 137 666 l 23 559 l 23 502 l 117 502 q 115 450 115 483 q 117 404 115 419 l 23 404 l 23 347 l 122 347 q 285 37 151 126 q 444 -9 355 -9 q 694 73 570 -8 z "},"F":{"ha":598,"x_min":111,"x_max":548,"o":"m 548 916 l 111 916 l 111 0 l 183 0 l 183 457 l 509 457 l 509 519 l 183 519 l 183 853 l 548 853 l 548 916 z "},"G":{"ha":764,"x_min":53,"x_max":692,"o":"m 692 66 l 692 433 l 401 433 l 401 370 l 618 370 l 618 106 q 422 54 509 54 q 179 210 255 54 q 132 456 132 309 q 248 798 132 690 q 410 860 317 860 q 623 704 553 857 l 692 728 q 457 924 620 901 q 412 926 434 926 q 136 777 235 926 q 53 456 53 651 q 205 57 53 178 q 415 -12 292 -12 q 692 66 543 -11 z "},"Ğ":{"ha":764,"x_min":53,"x_max":692,"o":"m 692 66 l 692 433 l 401 433 l 401 370 l 618 370 l 618 106 q 422 54 509 54 q 179 210 255 54 q 132 456 132 309 q 248 798 132 690 q 410 860 317 860 q 623 704 553 857 l 692 728 q 457 924 620 901 q 412 926 434 926 q 136 777 235 926 q 53 456 53 651 q 205 57 53 178 q 415 -12 292 -12 q 692 66 543 -11 m 255 1149 q 339 1015 256 1051 q 408 1000 372 1000 q 540 1065 495 1000 q 567 1149 564 1101 l 514 1152 q 445 1062 507 1082 q 411 1057 427 1057 q 321 1109 350 1057 q 309 1154 312 1130 l 255 1149 z "},"H":{"ha":817,"x_min":111,"x_max":705,"o":"m 632 0 l 705 0 l 705 916 l 632 916 l 632 506 l 183 506 l 183 916 l 111 916 l 111 0 l 183 0 l 183 446 l 632 446 l 632 0 z "},"I":{"ha":307,"x_min":117,"x_max":190,"o":"m 117 916 l 117 0 l 190 0 l 190 916 l 117 916 z "},"Í":{"ha":307,"x_min":73,"x_max":313,"o":"m 117 916 l 117 0 l 190 0 l 190 916 l 117 916 m 313 1118 l 267 1176 l 73 1028 l 107 981 l 313 1118 z "},"Î":{"ha":292,"x_min":-9,"x_max":309,"o":"m 152 1168 l -9 1019 l 24 977 l 148 1082 l 273 975 l 309 1021 l 152 1168 m 117 916 l 117 0 l 190 0 l 190 916 l 117 916 z "},"Ï":{"ha":292,"x_min":-8,"x_max":298,"o":"m 92 1073 q 56 1128 92 1118 q 42 1130 49 1130 q -5 1090 4 1130 q -8 1073 -8 1081 q 30 1017 -8 1027 q 42 1016 37 1016 q 90 1055 80 1016 q 92 1073 92 1065 m 298 1073 q 262 1128 298 1118 q 247 1130 254 1130 q 201 1092 212 1130 q 198 1073 198 1082 q 232 1019 198 1031 q 247 1016 240 1016 q 296 1055 286 1016 q 298 1073 298 1065 m 117 916 l 117 0 l 190 0 l 190 916 l 117 916 z "},"İ":{"ha":292,"x_min":96,"x_max":198,"o":"m 117 916 l 117 0 l 190 0 l 190 916 l 117 916 m 186 1019 q 164 1077 198 1059 q 160 1078 161 1078 q 110 1054 126 1092 q 107 1048 109 1051 q 133 989 98 1005 q 183 1013 167 975 q 186 1019 184 1016 z "},"Ì":{"ha":307,"x_min":23,"x_max":263,"o":"m 117 916 l 117 0 l 190 0 l 190 916 l 117 916 m 23 1118 l 69 1176 l 263 1028 l 229 981 l 23 1118 z "},"Ī":{"ha":292,"x_min":1,"x_max":290,"o":"m 1 1103 l 1 1044 l 290 1044 l 290 1103 l 1 1103 m 117 916 l 117 0 l 190 0 l 190 916 l 117 916 z "},"Į":{"ha":307,"x_min":8,"x_max":212,"o":"m 212 -258 l 209 -208 q 164 -213 187 -213 q 77 -160 94 -213 q 73 -136 73 -148 q 171 -9 73 -65 q 190 0 182 -4 l 190 916 l 117 916 l 117 4 q 8 -149 9 -64 q 92 -259 8 -233 q 146 -266 118 -266 q 212 -258 182 -266 z "},"J":{"ha":389,"x_min":8,"x_max":281,"o":"m 127 -11 q 264 79 227 -11 q 281 172 281 121 l 281 916 l 209 916 l 209 183 q 136 54 209 65 q 123 53 129 53 q 31 83 79 54 l 8 22 q 127 -11 66 -11 z "},"K":{"ha":705,"x_min":111,"x_max":699,"o":"m 694 46 q 637 87 661 45 l 401 487 l 671 916 l 594 916 l 342 513 l 183 513 l 183 916 l 111 916 l 111 0 l 183 0 l 183 453 l 340 453 l 578 54 q 667 -11 616 -9 q 699 -7 685 -11 l 694 46 z "},"L":{"ha":543,"x_min":110,"x_max":529,"o":"m 529 0 l 529 62 l 183 62 l 183 916 l 110 916 l 110 0 l 529 0 z "},"Ĺ":{"ha":543,"x_min":98,"x_max":529,"o":"m 529 0 l 529 62 l 183 62 l 183 916 l 110 916 l 110 0 l 529 0 m 338 1118 l 292 1176 l 98 1028 l 132 981 l 338 1118 z "},"Ľ":{"ha":543,"x_min":110,"x_max":529,"o":"m 529 0 l 529 62 l 183 62 l 183 916 l 110 916 l 110 0 l 529 0 m 502 859 q 463 924 502 911 q 448 926 454 926 q 396 890 410 926 q 392 867 393 878 q 434 811 395 825 q 380 692 427 760 l 406 671 q 498 826 480 739 q 502 859 502 844 z "},"Ł":{"ha":562,"x_min":-26,"x_max":529,"o":"m 529 0 l 529 62 l 183 62 l 183 430 l 377 511 l 357 562 l 183 488 l 183 916 l 110 916 l 110 458 l -26 401 l -7 351 l 110 400 l 110 0 l 529 0 z "},"M":{"ha":943,"x_min":33,"x_max":910,"o":"m 100 0 l 175 566 q 186 648 179 593 q 205 792 199 747 q 232 699 214 762 q 270 568 256 609 l 435 33 l 499 35 l 677 566 q 711 675 689 601 q 745 787 734 751 q 757 677 749 751 q 768 567 765 602 l 834 0 l 910 0 l 799 916 l 722 916 l 519 297 q 490 194 509 264 q 473 136 479 153 q 452 216 467 160 q 430 296 437 271 l 240 916 l 161 916 l 33 0 l 100 0 z "},"N":{"ha":829,"x_min":111,"x_max":718,"o":"m 718 0 l 718 916 l 647 916 l 647 146 l 179 925 l 111 916 l 111 0 l 182 0 l 182 783 l 652 -9 l 718 0 z "},"Ń":{"ha":829,"x_min":111,"x_max":718,"o":"m 718 0 l 718 916 l 647 916 l 647 146 l 179 925 l 111 916 l 111 0 l 182 0 l 182 783 l 652 -9 l 718 0 m 568 1118 l 522 1176 l 328 1028 l 362 981 l 568 1118 z "},"Ň":{"ha":829,"x_min":111,"x_max":718,"o":"m 718 0 l 718 916 l 647 916 l 647 146 l 179 925 l 111 916 l 111 0 l 182 0 l 182 783 l 652 -9 l 718 0 m 406 975 l 581 1124 l 547 1166 l 408 1059 l 269 1168 l 233 1122 l 406 975 z "},"Ñ":{"ha":829,"x_min":111,"x_max":718,"o":"m 718 0 l 718 916 l 647 916 l 647 146 l 179 925 l 111 916 l 111 0 l 182 0 l 182 783 l 652 -9 l 718 0 m 491 1078 q 412 1105 467 1078 q 339 1127 372 1126 q 220 1070 278 1126 l 254 1035 q 336 1067 293 1067 q 416 1040 362 1067 q 495 1019 461 1019 q 601 1077 552 1020 l 567 1114 q 491 1078 530 1078 z "},"O":{"ha":799,"x_min":53,"x_max":746,"o":"m 746 456 q 613 849 746 726 q 403 926 528 926 q 129 765 225 926 q 53 456 53 637 q 194 58 53 176 q 399 -11 278 -11 q 675 155 581 -11 q 746 456 746 279 m 132 456 q 236 789 132 678 q 401 860 305 860 q 628 689 560 860 q 667 456 667 590 q 559 119 667 227 q 399 56 492 56 q 170 228 237 56 q 132 456 132 324 z "},"Œ":{"ha":1058,"x_min":53,"x_max":985,"o":"m 431 -9 q 513 -4 454 -9 q 585 0 563 0 l 985 0 l 985 62 l 612 62 l 612 448 l 933 448 l 933 510 l 612 510 l 612 853 l 972 853 l 972 916 l 555 916 q 430 922 456 922 q 103 719 197 922 q 53 456 53 608 q 431 -9 56 -8 m 435 57 q 133 411 149 57 q 132 456 132 434 q 293 825 132 741 q 431 856 354 856 q 540 848 479 856 l 540 66 q 435 57 488 57 z "},"Ó":{"ha":799,"x_min":53,"x_max":746,"o":"m 746 456 q 613 849 746 726 q 403 926 528 926 q 129 765 225 926 q 53 456 53 637 q 194 58 53 176 q 399 -11 278 -11 q 675 155 581 -11 q 746 456 746 279 m 132 456 q 236 789 132 678 q 401 860 305 860 q 628 689 560 860 q 667 456 667 590 q 559 119 667 227 q 399 56 492 56 q 170 228 237 56 q 132 456 132 324 m 563 1105 l 517 1164 l 323 1016 l 357 968 l 563 1105 z "},"Ô":{"ha":799,"x_min":53,"x_max":746,"o":"m 746 456 q 613 849 746 726 q 403 926 528 926 q 129 765 225 926 q 53 456 53 637 q 194 58 53 176 q 399 -11 278 -11 q 675 155 581 -11 q 746 456 746 279 m 132 456 q 236 789 132 678 q 401 860 305 860 q 628 689 560 860 q 667 456 667 590 q 559 119 667 227 q 399 56 492 56 q 170 228 237 56 q 132 456 132 324 m 410 1156 l 235 1006 l 269 964 l 407 1072 l 547 963 l 582 1009 l 410 1156 z "},"Ö":{"ha":799,"x_min":53,"x_max":746,"o":"m 746 456 q 613 849 746 726 q 403 926 528 926 q 129 765 225 926 q 53 456 53 637 q 194 58 53 176 q 399 -11 278 -11 q 675 155 581 -11 q 746 456 746 279 m 132 456 q 236 789 132 678 q 401 860 305 860 q 628 689 560 860 q 667 456 667 590 q 559 119 667 227 q 399 56 492 56 q 170 228 237 56 q 132 456 132 324 m 338 1061 q 301 1116 338 1105 q 288 1118 294 1118 q 240 1078 250 1118 q 237 1061 237 1069 q 275 1005 237 1015 q 288 1004 282 1004 q 335 1043 326 1004 q 338 1061 338 1053 m 571 1061 q 534 1116 571 1105 q 519 1118 526 1118 q 473 1080 484 1118 q 471 1061 471 1070 q 505 1006 471 1019 q 519 1004 513 1004 q 568 1043 559 1004 q 571 1061 571 1053 z "},"Ò":{"ha":799,"x_min":53,"x_max":746,"o":"m 746 456 q 613 849 746 726 q 403 926 528 926 q 129 765 225 926 q 53 456 53 637 q 194 58 53 176 q 399 -11 278 -11 q 675 155 581 -11 q 746 456 746 279 m 132 456 q 236 789 132 678 q 401 860 305 860 q 628 689 560 860 q 667 456 667 590 q 559 119 667 227 q 399 56 492 56 q 170 228 237 56 q 132 456 132 324 m 273 1105 l 319 1164 l 513 1016 l 479 968 l 273 1105 z "},"Ő":{"ha":799,"x_min":53,"x_max":746,"o":"m 746 456 q 613 849 746 726 q 403 926 528 926 q 129 765 225 926 q 53 456 53 637 q 194 58 53 176 q 399 -11 278 -11 q 675 155 581 -11 q 746 456 746 279 m 132 456 q 236 789 132 678 q 401 860 305 860 q 628 689 560 860 q 667 456 667 590 q 559 119 667 227 q 399 56 492 56 q 170 228 237 56 q 132 456 132 324 m 471 1119 l 419 1173 l 239 1010 l 275 968 l 471 1119 m 701 1119 l 651 1173 l 471 1010 l 507 968 l 701 1119 z "},"Ō":{"ha":799,"x_min":53,"x_max":746,"o":"m 746 456 q 613 849 746 726 q 403 926 528 926 q 129 765 225 926 q 53 456 53 637 q 194 58 53 176 q 399 -11 278 -11 q 675 155 581 -11 q 746 456 746 279 m 132 456 q 236 789 132 678 q 401 860 305 860 q 628 689 560 860 q 667 456 667 590 q 559 119 667 227 q 399 56 492 56 q 170 228 237 56 q 132 456 132 324 m 235 1090 l 235 1032 l 574 1032 l 574 1090 l 235 1090 z "},"Ø":{"ha":799,"x_min":53,"x_max":746,"o":"m 570 1012 l 530 902 q 403 926 472 926 q 129 765 225 926 q 53 456 53 637 q 189 62 53 182 q 220 39 205 49 l 178 -80 l 232 -96 l 271 12 q 399 -11 328 -11 q 675 155 581 -11 q 746 456 746 279 q 618 844 746 719 q 579 875 600 861 l 623 996 l 570 1012 m 132 456 q 236 789 132 678 q 401 860 305 860 q 506 836 461 860 l 247 111 q 132 456 132 216 m 399 56 q 294 79 342 56 l 553 803 q 667 456 665 693 q 559 119 667 227 q 399 56 492 56 z "},"Õ":{"ha":799,"x_min":53,"x_max":746,"o":"m 746 456 q 613 849 746 726 q 403 926 528 926 q 129 765 225 926 q 53 456 53 637 q 194 58 53 176 q 399 -11 278 -11 q 675 155 581 -11 q 746 456 746 279 m 132 456 q 236 789 132 678 q 401 860 305 860 q 628 689 560 860 q 667 456 667 590 q 559 119 667 227 q 399 56 492 56 q 170 228 237 56 q 132 456 132 324 m 486 1066 q 407 1093 461 1066 q 334 1115 366 1114 q 214 1058 273 1114 l 248 1023 q 331 1055 288 1055 q 411 1028 357 1055 q 490 1006 456 1006 q 595 1065 547 1008 l 562 1101 q 486 1066 525 1066 z "},"P":{"ha":647,"x_min":111,"x_max":621,"o":"m 184 0 l 184 392 l 328 392 q 579 514 502 392 q 621 670 621 582 q 316 918 618 917 q 111 916 178 918 l 111 0 l 184 0 m 308 856 q 536 727 503 856 q 544 656 544 694 q 377 461 544 494 q 296 454 339 454 l 184 454 l 184 852 q 308 856 244 856 z "},"Q":{"ha":798,"x_min":53,"x_max":746,"o":"m 746 456 q 614 846 746 723 q 401 926 528 926 q 127 764 224 926 q 53 456 53 636 q 194 58 53 176 q 399 -11 278 -11 l 420 -11 q 543 -156 425 -134 q 724 -134 621 -170 l 708 -76 q 514 -68 568 -125 q 490 1 491 -42 q 707 222 640 46 q 746 456 746 327 m 132 456 q 236 789 132 678 q 401 860 305 860 q 628 689 560 860 q 667 456 667 590 q 559 119 667 227 q 399 56 492 56 q 170 228 237 56 q 132 456 132 324 z "},"R":{"ha":684,"x_min":111,"x_max":658,"o":"m 184 0 l 184 404 l 316 404 q 357 406 345 404 l 533 54 q 623 -11 567 -9 q 658 -7 644 -11 l 654 46 l 646 46 q 594 85 612 49 l 427 418 q 614 591 576 456 q 625 673 625 629 q 387 914 625 890 q 316 918 354 918 q 111 916 178 918 l 111 0 l 184 0 m 308 856 q 532 760 490 856 q 548 663 548 720 q 326 468 548 476 q 307 468 315 468 l 184 468 l 184 852 q 308 856 244 856 z "},"Ŕ":{"ha":684,"x_min":111,"x_max":658,"o":"m 184 0 l 184 404 l 316 404 q 357 406 345 404 l 533 54 q 623 -11 567 -9 q 658 -7 644 -11 l 654 46 l 646 46 q 594 85 612 49 l 427 418 q 614 591 576 456 q 625 673 625 629 q 387 914 625 890 q 316 918 354 918 q 111 916 178 918 l 111 0 l 184 0 m 308 856 q 532 760 490 856 q 548 663 548 720 q 326 468 548 476 q 307 468 315 468 l 184 468 l 184 852 q 308 856 244 856 m 490 1118 l 444 1176 l 250 1028 l 283 981 l 490 1118 z "},"Ř":{"ha":684,"x_min":111,"x_max":658,"o":"m 184 0 l 184 404 l 316 404 q 357 406 345 404 l 533 54 q 623 -11 567 -9 q 658 -7 644 -11 l 654 46 l 646 46 q 594 85 612 49 l 427 418 q 614 591 576 456 q 625 673 625 629 q 387 914 625 890 q 316 918 354 918 q 111 916 178 918 l 111 0 l 184 0 m 308 856 q 532 760 490 856 q 548 663 548 720 q 326 468 548 476 q 307 468 315 468 l 184 468 l 184 852 q 308 856 244 856 m 327 975 l 502 1124 l 468 1166 l 330 1059 l 190 1168 l 155 1122 l 327 975 z "},"S":{"ha":618,"x_min":60,"x_max":556,"o":"m 555 235 q 434 448 555 370 q 300 518 415 460 q 170 624 197 568 q 155 693 155 655 q 243 841 155 795 q 332 863 285 863 q 487 781 434 863 q 496 764 492 772 l 556 795 q 393 921 513 898 q 338 926 366 926 q 142 849 218 926 q 80 692 80 784 q 197 488 80 563 q 327 420 216 476 q 461 311 431 369 q 479 232 479 275 q 387 71 479 115 q 300 53 347 53 q 94 123 199 54 l 60 68 q 296 -11 171 -11 q 507 83 435 -11 q 555 235 555 145 z "},"Ś":{"ha":618,"x_min":60,"x_max":556,"o":"m 555 235 q 434 448 555 370 q 300 518 415 460 q 170 624 197 568 q 155 693 155 655 q 243 841 155 795 q 332 863 285 863 q 487 781 434 863 q 496 764 492 772 l 556 795 q 393 921 513 898 q 338 926 366 926 q 142 849 218 926 q 80 692 80 784 q 197 488 80 563 q 327 420 216 476 q 461 311 431 369 q 479 232 479 275 q 387 71 479 115 q 300 53 347 53 q 94 123 199 54 l 60 68 q 296 -11 171 -11 q 507 83 435 -11 q 555 235 555 145 m 480 1118 l 434 1176 l 240 1028 l 274 981 l 480 1118 z "},"Š":{"ha":618,"x_min":60,"x_max":556,"o":"m 555 235 q 434 448 555 370 q 300 518 415 460 q 170 624 197 568 q 155 693 155 655 q 243 841 155 795 q 332 863 285 863 q 487 781 434 863 q 496 764 492 772 l 556 795 q 393 921 513 898 q 338 926 366 926 q 142 849 218 926 q 80 692 80 784 q 197 488 80 563 q 327 420 216 476 q 461 311 431 369 q 479 232 479 275 q 387 71 479 115 q 300 53 347 53 q 94 123 199 54 l 60 68 q 296 -11 171 -11 q 507 83 435 -11 q 555 235 555 145 m 317 975 l 492 1124 l 458 1166 l 320 1059 l 180 1168 l 145 1122 l 317 975 z "},"T":{"ha":556,"x_min":11,"x_max":543,"o":"m 11 917 l 11 853 l 240 853 l 240 0 l 313 0 l 313 853 l 543 853 l 543 917 l 11 917 z "},"Ť":{"ha":556,"x_min":11,"x_max":543,"o":"m 11 917 l 11 853 l 240 853 l 240 0 l 313 0 l 313 853 l 543 853 l 543 917 l 11 917 m 277 975 l 452 1124 l 418 1166 l 279 1059 l 140 1168 l 104 1122 l 277 975 z "},"Þ":{"ha":654,"x_min":111,"x_max":621,"o":"m 328 214 q 578 335 500 214 q 621 492 621 404 q 316 742 618 741 l 184 741 l 184 916 l 111 916 l 111 0 l 184 0 l 184 214 l 328 214 m 308 678 q 537 544 506 680 q 544 479 544 514 q 388 286 544 323 q 296 277 346 277 l 184 277 l 184 677 l 308 678 z "},"U":{"ha":812,"x_min":109,"x_max":704,"o":"m 704 323 l 704 916 l 632 916 l 632 324 q 403 54 628 57 q 182 338 184 61 l 182 916 l 109 916 l 109 339 q 330 -5 109 39 q 404 -12 365 -12 q 662 130 587 -12 q 704 323 704 210 z "},"Ú":{"ha":812,"x_min":109,"x_max":704,"o":"m 704 323 l 704 916 l 632 916 l 632 324 q 403 54 628 57 q 182 338 184 61 l 182 916 l 109 916 l 109 339 q 330 -5 109 39 q 404 -12 365 -12 q 662 130 587 -12 q 704 323 704 210 m 567 1118 l 521 1176 l 327 1028 l 361 981 l 567 1118 z "},"Û":{"ha":812,"x_min":109,"x_max":704,"o":"m 704 323 l 704 916 l 632 916 l 632 324 q 403 54 628 57 q 182 338 184 61 l 182 916 l 109 916 l 109 339 q 330 -5 109 39 q 404 -12 365 -12 q 662 130 587 -12 q 704 323 704 210 m 412 1168 l 237 1019 l 271 977 l 410 1084 l 549 975 l 585 1021 l 412 1168 z "},"Ü":{"ha":812,"x_min":109,"x_max":704,"o":"m 704 323 l 704 916 l 632 916 l 632 324 q 403 54 628 57 q 182 338 184 61 l 182 916 l 109 916 l 109 339 q 330 -5 109 39 q 404 -12 365 -12 q 662 130 587 -12 q 704 323 704 210 m 340 1073 q 304 1128 340 1118 q 290 1130 297 1130 q 243 1090 252 1130 q 240 1073 240 1081 q 278 1017 240 1027 q 290 1016 285 1016 q 338 1055 328 1016 q 340 1073 340 1065 m 574 1073 q 537 1128 574 1118 q 522 1130 529 1130 q 476 1092 487 1130 q 473 1073 473 1082 q 507 1019 473 1031 q 522 1016 515 1016 q 571 1055 562 1016 q 574 1073 574 1065 z "},"Ù":{"ha":812,"x_min":109,"x_max":704,"o":"m 704 323 l 704 916 l 632 916 l 632 324 q 403 54 628 57 q 182 338 184 61 l 182 916 l 109 916 l 109 339 q 330 -5 109 39 q 404 -12 365 -12 q 662 130 587 -12 q 704 323 704 210 m 277 1118 l 323 1176 l 517 1028 l 483 981 l 277 1118 z "},"Ű":{"ha":812,"x_min":109,"x_max":705,"o":"m 704 323 l 704 916 l 632 916 l 632 324 q 403 54 628 57 q 182 338 184 61 l 182 916 l 109 916 l 109 339 q 330 -5 109 39 q 404 -12 365 -12 q 662 130 587 -12 q 704 323 704 210 m 475 1131 l 423 1185 l 243 1023 l 279 981 l 475 1131 m 705 1131 l 655 1185 l 475 1023 l 511 981 l 705 1131 z "},"Ū":{"ha":812,"x_min":109,"x_max":704,"o":"m 704 323 l 704 916 l 632 916 l 632 324 q 403 54 628 57 q 182 338 184 61 l 182 916 l 109 916 l 109 339 q 330 -5 109 39 q 404 -12 365 -12 q 662 130 587 -12 q 704 323 704 210 m 237 1103 l 237 1044 l 576 1044 l 576 1103 l 237 1103 z "},"Ų":{"ha":812,"x_min":109,"x_max":704,"o":"m 704 323 l 704 916 l 632 916 l 632 324 q 403 54 628 57 q 182 338 184 61 l 182 916 l 109 916 l 109 339 q 339 -7 109 33 q 399 -12 368 -12 q 313 -149 315 -75 q 397 -259 313 -233 q 452 -266 423 -266 q 517 -258 487 -266 l 514 -208 q 469 -213 492 -213 q 382 -160 399 -213 q 378 -136 378 -148 q 469 -15 378 -68 q 491 -3 480 -8 q 690 206 650 37 q 704 323 704 259 z "},"Ů":{"ha":812,"x_min":109,"x_max":704,"o":"m 704 323 l 704 916 l 632 916 l 632 324 q 403 54 628 57 q 182 338 184 61 l 182 916 l 109 916 l 109 339 q 330 -5 109 39 q 404 -12 365 -12 q 662 130 587 -12 q 704 323 704 210 m 541 1081 q 467 1203 541 1172 q 412 1214 441 1214 q 301 1154 338 1214 q 282 1080 282 1122 q 359 956 282 986 q 410 947 384 947 q 521 1005 483 947 q 541 1081 541 1039 m 334 1080 q 384 1162 334 1143 q 410 1168 396 1168 q 480 1122 460 1168 q 488 1080 488 1101 q 434 997 488 1013 q 411 993 422 993 q 342 1038 362 993 q 334 1080 334 1058 z "},"V":{"ha":704,"x_min":14,"x_max":689,"o":"m 396 0 l 689 916 l 614 916 l 416 290 q 353 64 378 167 q 316 189 342 102 q 286 292 296 260 l 95 916 l 14 916 l 301 0 l 396 0 z "},"W":{"ha":1024,"x_min":22,"x_max":1002,"o":"m 302 0 l 469 587 q 513 774 491 659 q 553 587 545 618 l 711 0 l 783 0 l 1002 916 l 932 916 l 785 292 q 749 96 774 248 q 707 290 723 229 l 547 884 l 484 882 l 316 292 q 270 90 308 263 q 235 289 250 227 l 98 916 l 22 916 l 228 0 l 302 0 z "},"X":{"ha":713,"x_min":9,"x_max":708,"o":"m 704 50 q 659 73 678 47 q 650 87 655 80 l 397 469 l 674 916 l 598 916 l 359 529 l 110 916 l 27 916 l 312 479 l 9 0 l 88 0 l 350 419 l 587 54 q 675 -9 629 -8 q 708 -5 692 -9 l 704 50 z "},"Y":{"ha":625,"x_min":1,"x_max":625,"o":"m 345 0 l 345 346 l 625 916 l 548 916 l 392 590 q 312 408 368 540 q 233 593 275 505 l 80 916 l 1 916 l 273 347 l 273 0 l 345 0 z "},"Ý":{"ha":625,"x_min":1,"x_max":625,"o":"m 345 0 l 345 346 l 625 916 l 548 916 l 392 590 q 312 408 368 540 q 233 593 275 505 l 80 916 l 1 916 l 273 347 l 273 0 l 345 0 m 475 1118 l 429 1176 l 235 1028 l 269 981 l 475 1118 z "},"Ÿ":{"ha":625,"x_min":1,"x_max":625,"o":"m 345 0 l 345 346 l 625 916 l 548 916 l 392 590 q 312 408 368 540 q 233 593 275 505 l 80 916 l 1 916 l 273 347 l 273 0 l 345 0 m 248 1073 q 212 1128 248 1118 q 198 1130 205 1130 q 151 1090 160 1130 q 148 1073 148 1081 q 186 1017 148 1027 q 198 1016 193 1016 q 245 1055 236 1016 q 248 1073 248 1065 m 481 1073 q 445 1128 481 1118 q 430 1130 437 1130 q 384 1092 395 1130 q 381 1073 381 1082 q 415 1019 381 1031 q 430 1016 423 1016 q 479 1055 469 1016 q 481 1073 481 1065 z "},"Z":{"ha":637,"x_min":43,"x_max":594,"o":"m 127 68 l 594 854 l 594 917 l 54 917 l 54 850 l 513 850 l 43 62 l 43 0 l 589 0 l 589 68 l 127 68 z "},"Ź":{"ha":637,"x_min":43,"x_max":594,"o":"m 127 68 l 594 854 l 594 917 l 54 917 l 54 850 l 513 850 l 43 62 l 43 0 l 589 0 l 589 68 l 127 68 m 484 1118 l 438 1176 l 244 1028 l 278 981 l 484 1118 z "},"Ž":{"ha":637,"x_min":43,"x_max":594,"o":"m 127 68 l 594 854 l 594 917 l 54 917 l 54 850 l 513 850 l 43 62 l 43 0 l 589 0 l 589 68 l 127 68 m 321 975 l 496 1124 l 463 1166 l 324 1059 l 184 1168 l 149 1122 l 321 975 z "},"Ż":{"ha":637,"x_min":43,"x_max":594,"o":"m 127 68 l 594 854 l 594 917 l 54 917 l 54 850 l 513 850 l 43 62 l 43 0 l 589 0 l 589 68 l 127 68 m 363 1059 q 342 1118 376 1100 q 338 1119 339 1119 q 288 1095 304 1133 q 285 1089 286 1092 q 311 1029 275 1046 q 361 1054 345 1016 q 363 1059 362 1057 z "},"a":{"ha":579,"x_min":30,"x_max":563,"o":"m 522 -11 q 563 -7 543 -11 l 559 46 q 538 45 549 45 q 476 98 486 45 q 472 145 472 118 l 472 488 q 359 673 472 629 q 271 689 319 689 q 57 624 160 688 l 85 570 q 264 628 180 628 q 399 524 378 628 q 401 484 401 505 l 401 382 q 311 388 362 388 q 61 290 132 388 q 30 191 30 245 q 137 5 30 52 q 227 -11 178 -11 q 389 64 323 -11 q 408 90 399 76 q 506 -9 422 -3 q 522 -11 514 -11 m 240 49 q 104 161 121 49 q 103 191 103 175 q 309 334 106 332 q 401 328 362 334 l 401 218 q 313 68 401 114 q 240 49 277 49 z "},"á":{"ha":579,"x_min":30,"x_max":563,"o":"m 522 -11 q 563 -7 543 -11 l 559 46 q 538 45 549 45 q 476 98 486 45 q 472 145 472 118 l 472 488 q 359 673 472 629 q 271 689 319 689 q 57 624 160 688 l 85 570 q 264 628 180 628 q 399 524 378 628 q 401 484 401 505 l 401 382 q 311 388 362 388 q 61 290 132 388 q 30 191 30 245 q 137 5 30 52 q 227 -11 178 -11 q 389 64 323 -11 q 408 90 399 76 q 506 -9 422 -3 q 522 -11 514 -11 m 240 49 q 104 161 121 49 q 103 191 103 175 q 309 334 106 332 q 401 328 362 334 l 401 218 q 313 68 401 114 q 240 49 277 49 m 433 918 l 387 977 l 193 829 l 227 781 l 433 918 z "},"ă":{"ha":579,"x_min":30,"x_max":563,"o":"m 522 -11 q 563 -7 543 -11 l 559 46 q 538 45 549 45 q 476 98 486 45 q 472 145 472 118 l 472 488 q 359 673 472 629 q 271 689 319 689 q 57 624 160 688 l 85 570 q 264 628 180 628 q 399 524 378 628 q 401 484 401 505 l 401 382 q 311 388 362 388 q 61 290 132 388 q 30 191 30 245 q 137 5 30 52 q 227 -11 178 -11 q 389 64 323 -11 q 408 90 399 76 q 506 -9 422 -3 q 522 -11 514 -11 m 240 49 q 104 161 121 49 q 103 191 103 175 q 309 334 106 332 q 401 328 362 334 l 401 218 q 313 68 401 114 q 240 49 277 49 m 118 949 q 202 815 119 852 q 271 800 235 800 q 403 865 358 800 q 430 949 427 902 l 377 952 q 308 863 370 883 q 274 857 290 857 q 184 910 213 857 q 172 955 175 930 l 118 949 z "},"â":{"ha":579,"x_min":30,"x_max":563,"o":"m 522 -11 q 563 -7 543 -11 l 559 46 q 538 45 549 45 q 476 98 486 45 q 472 145 472 118 l 472 488 q 359 673 472 629 q 271 689 319 689 q 57 624 160 688 l 85 570 q 264 628 180 628 q 399 524 378 628 q 401 484 401 505 l 401 382 q 311 388 362 388 q 61 290 132 388 q 30 191 30 245 q 137 5 30 52 q 227 -11 178 -11 q 389 64 323 -11 q 408 90 399 76 q 506 -9 422 -3 q 522 -11 514 -11 m 240 49 q 104 161 121 49 q 103 191 103 175 q 309 334 106 332 q 401 328 362 334 l 401 218 q 313 68 401 114 q 240 49 277 49 m 279 968 l 104 819 l 138 777 l 277 884 l 416 776 l 452 822 l 279 968 z "},"´":{"ha":452,"x_min":125,"x_max":365,"o":"m 365 918 l 319 977 l 125 829 l 159 781 l 365 918 z "},"ä":{"ha":579,"x_min":30,"x_max":563,"o":"m 522 -11 q 563 -7 543 -11 l 559 46 q 538 45 549 45 q 476 98 486 45 q 472 145 472 118 l 472 488 q 359 673 472 629 q 271 689 319 689 q 57 624 160 688 l 85 570 q 264 628 180 628 q 399 524 378 628 q 401 484 401 505 l 401 382 q 311 388 362 388 q 61 290 132 388 q 30 191 30 245 q 137 5 30 52 q 227 -11 178 -11 q 389 64 323 -11 q 408 90 399 76 q 506 -9 422 -3 q 522 -11 514 -11 m 240 49 q 104 161 121 49 q 103 191 103 175 q 309 334 106 332 q 401 328 362 334 l 401 218 q 313 68 401 114 q 240 49 277 49 m 206 873 q 170 929 206 918 q 156 930 163 930 q 109 891 118 930 q 106 873 106 882 q 144 818 106 827 q 156 817 151 817 q 203 856 194 817 q 206 873 206 865 m 439 873 q 403 929 439 918 q 388 930 395 930 q 342 892 353 930 q 339 873 339 883 q 373 819 339 831 q 388 817 381 817 q 437 856 427 817 q 439 873 439 865 z "},"æ":{"ha":943,"x_min":34,"x_max":901,"o":"m 661 631 q 818 487 785 631 q 827 393 827 444 l 477 392 q 593 616 492 567 q 661 631 625 631 m 886 42 l 864 94 q 696 50 774 50 q 502 183 556 50 q 475 334 476 247 l 901 334 l 901 363 q 662 689 890 681 q 463 568 530 689 q 460 564 461 566 q 312 686 427 670 q 275 689 294 689 q 61 624 164 688 l 90 570 q 269 628 184 628 q 400 533 377 628 q 406 484 406 510 l 406 382 q 313 388 366 388 q 65 290 136 388 q 34 191 34 245 q 141 5 34 52 q 231 -11 182 -11 q 389 57 321 -11 q 442 142 425 94 q 637 -7 500 14 q 685 -11 662 -11 q 886 42 781 -9 m 244 49 q 109 161 125 49 q 107 191 107 175 q 312 334 110 332 q 406 328 366 334 l 406 218 q 316 68 406 114 q 244 49 279 49 z "},"à":{"ha":579,"x_min":30,"x_max":563,"o":"m 522 -11 q 563 -7 543 -11 l 559 46 q 538 45 549 45 q 476 98 486 45 q 472 145 472 118 l 472 488 q 359 673 472 629 q 271 689 319 689 q 57 624 160 688 l 85 570 q 264 628 180 628 q 399 524 378 628 q 401 484 401 505 l 401 382 q 311 388 362 388 q 61 290 132 388 q 30 191 30 245 q 137 5 30 52 q 227 -11 178 -11 q 389 64 323 -11 q 408 90 399 76 q 506 -9 422 -3 q 522 -11 514 -11 m 240 49 q 104 161 121 49 q 103 191 103 175 q 309 334 106 332 q 401 328 362 334 l 401 218 q 313 68 401 114 q 240 49 277 49 m 142 918 l 189 977 l 382 829 l 349 781 l 142 918 z "},"ā":{"ha":579,"x_min":30,"x_max":563,"o":"m 522 -11 q 563 -7 543 -11 l 559 46 q 538 45 549 45 q 476 98 486 45 q 472 145 472 118 l 472 488 q 359 673 472 629 q 271 689 319 689 q 57 624 160 688 l 85 570 q 264 628 180 628 q 399 524 378 628 q 401 484 401 505 l 401 382 q 311 388 362 388 q 61 290 132 388 q 30 191 30 245 q 137 5 30 52 q 227 -11 178 -11 q 389 64 323 -11 q 408 90 399 76 q 506 -9 422 -3 q 522 -11 514 -11 m 240 49 q 104 161 121 49 q 103 191 103 175 q 309 334 106 332 q 401 328 362 334 l 401 218 q 313 68 401 114 q 240 49 277 49 m 103 903 l 103 845 l 442 845 l 442 903 l 103 903 z "},"&":{"ha":884,"x_min":81,"x_max":821,"o":"m 235 818 q 308 929 236 903 q 351 936 328 936 q 454 867 430 936 q 461 818 461 844 q 354 624 461 724 q 327 598 342 612 q 235 818 235 735 m 372 50 q 195 133 258 50 q 153 263 153 189 q 270 467 153 361 q 308 499 288 481 q 595 170 411 359 q 372 50 506 54 m 750 486 l 680 486 q 633 236 680 339 q 362 547 465 408 q 513 720 479 646 q 534 818 534 768 q 438 977 534 933 q 351 994 397 994 q 190 916 241 994 q 163 817 163 873 q 271 551 164 712 q 121 393 159 454 q 81 262 81 328 q 199 35 81 110 q 363 -11 271 -11 q 625 107 519 -11 q 640 125 633 117 q 770 -4 732 33 l 821 45 q 751 115 800 66 q 682 186 705 161 q 750 486 750 309 z "},"ං":{"ha":381,"x_min":34,"x_max":349,"o":"m 95 361 q 191 206 98 208 q 288 340 279 206 q 288 361 288 351 q 210 513 288 495 q 191 514 201 514 q 95 361 98 507 m 34 361 q 119 556 34 507 q 191 575 152 575 q 331 471 292 575 q 349 361 349 422 q 191 145 346 146 q 34 361 35 148 z "},"ą":{"ha":583,"x_min":30,"x_max":574,"o":"m 574 -252 l 570 -201 q 526 -208 545 -208 q 433 -152 450 -208 q 430 -130 430 -141 q 547 -14 430 -56 q 566 -7 556 -9 l 563 -7 l 559 46 q 538 45 549 45 q 476 98 486 45 q 472 145 472 118 l 472 488 q 359 673 472 629 q 271 689 319 689 q 57 624 160 688 l 85 570 q 264 628 180 628 q 399 524 378 628 q 401 484 401 505 l 401 382 q 311 388 362 388 q 61 290 132 388 q 30 191 30 245 q 137 5 30 52 q 227 -11 178 -11 q 389 64 323 -11 q 408 90 399 76 q 480 -5 420 11 q 368 -130 381 -53 q 366 -148 366 -140 q 435 -247 366 -217 q 510 -260 469 -260 q 574 -252 532 -260 m 240 49 q 104 161 121 49 q 103 191 103 175 q 309 334 106 332 q 401 328 362 334 l 401 218 q 313 68 401 114 q 240 49 277 49 z "},"≈":{"ha":694,"x_min":62,"x_max":631,"o":"m 479 438 q 353 477 438 438 q 222 513 274 513 q 62 438 137 511 l 102 397 q 220 445 160 445 q 350 406 264 445 q 477 370 429 370 q 631 448 564 372 l 590 488 q 479 438 538 438 m 479 258 q 353 296 439 258 q 222 331 273 331 q 64 256 138 330 l 103 216 q 220 264 159 264 q 351 225 266 264 q 477 190 429 190 q 631 267 566 191 l 590 308 q 479 258 538 258 z "},"å":{"ha":579,"x_min":30,"x_max":563,"o":"m 522 -11 q 563 -7 543 -11 l 559 46 q 538 45 549 45 q 476 98 486 45 q 472 145 472 118 l 472 488 q 359 673 472 629 q 271 689 319 689 q 57 624 160 688 l 85 570 q 264 628 180 628 q 399 524 378 628 q 401 484 401 505 l 401 382 q 311 388 362 388 q 61 290 132 388 q 30 191 30 245 q 137 5 30 52 q 227 -11 178 -11 q 389 64 323 -11 q 408 90 399 76 q 506 -9 422 -3 q 522 -11 514 -11 m 240 49 q 104 161 121 49 q 103 191 103 175 q 309 334 106 332 q 401 328 362 334 l 401 218 q 313 68 401 114 q 240 49 277 49 m 407 882 q 332 1004 407 972 q 278 1015 307 1015 q 167 955 203 1015 q 148 880 148 922 q 225 757 148 787 q 275 747 250 747 q 387 806 349 747 q 407 882 407 840 m 199 880 q 250 963 199 944 q 275 968 262 968 q 346 922 326 968 q 354 880 354 902 q 300 798 354 814 q 277 793 288 793 q 208 838 228 793 q 199 880 199 859 z "},"^":{"ha":693,"x_min":77,"x_max":616,"o":"m 347 926 l 77 534 l 125 505 l 346 830 l 567 506 l 616 538 l 347 926 z "},"~":{"ha":694,"x_min":64,"x_max":631,"o":"m 631 365 l 590 406 q 479 355 538 355 q 353 393 439 355 q 222 429 273 429 q 64 355 137 427 l 103 313 q 220 361 160 361 q 353 321 266 361 q 477 288 429 288 q 631 365 566 289 z "},"*":{"ha":502,"x_min":49,"x_max":446,"o":"m 264 806 l 285 914 q 254 977 296 970 q 210 968 235 978 l 233 806 l 264 806 m 225 796 l 126 849 q 57 840 73 879 q 52 796 50 822 l 216 769 l 225 796 m 221 760 l 140 681 q 126 613 96 642 q 167 595 141 601 l 243 741 l 221 760 m 258 739 l 307 639 q 362 602 328 590 q 397 637 382 612 l 281 757 l 258 739 m 285 769 l 393 785 q 445 825 445 789 q 422 871 442 846 l 275 798 l 285 769 z "},"@":{"ha":1043,"x_min":83,"x_max":967,"o":"m 766 -26 l 745 24 q 533 -15 646 -15 q 194 194 283 -16 q 151 437 151 296 q 278 762 152 640 q 543 865 387 865 q 823 736 723 865 q 902 487 902 636 q 746 197 901 198 q 688 243 694 197 q 685 271 685 256 l 685 547 q 586 696 685 662 q 517 707 553 707 q 336 656 416 705 l 361 610 q 511 654 434 654 q 620 557 612 654 q 620 544 620 551 l 620 465 q 543 469 582 469 q 331 372 377 469 q 316 305 316 340 q 403 160 316 199 q 477 144 438 144 q 624 217 567 144 q 628 222 627 220 q 741 144 644 145 q 945 315 894 144 q 967 488 967 389 q 825 825 967 704 q 544 921 711 921 q 205 774 336 922 q 83 437 84 639 q 267 1 83 127 q 529 -71 374 -71 q 766 -26 651 -72 m 487 195 q 392 262 412 195 q 385 308 385 283 q 543 422 388 420 q 620 419 572 422 l 620 331 q 547 209 620 244 q 487 195 518 195 z "},"ã":{"ha":579,"x_min":30,"x_max":563,"o":"m 522 -11 q 563 -7 543 -11 l 559 46 q 538 45 549 45 q 476 98 486 45 q 472 145 472 118 l 472 488 q 359 673 472 629 q 271 689 319 689 q 57 624 160 688 l 85 570 q 264 628 180 628 q 399 524 378 628 q 401 484 401 505 l 401 382 q 311 388 362 388 q 61 290 132 388 q 30 191 30 245 q 137 5 30 52 q 227 -11 178 -11 q 389 64 323 -11 q 408 90 399 76 q 506 -9 422 -3 q 522 -11 514 -11 m 240 49 q 104 161 121 49 q 103 191 103 175 q 309 334 106 332 q 401 328 362 334 l 401 218 q 313 68 401 114 q 240 49 277 49 m 355 879 q 277 906 331 879 q 203 928 236 926 q 84 871 142 926 l 118 836 q 201 868 157 868 q 281 841 227 868 q 359 819 326 819 q 465 878 416 821 l 431 914 q 355 879 395 879 z "},"b":{"ha":663,"x_min":110,"x_max":604,"o":"m 604 370 q 496 644 604 560 q 368 689 439 689 q 180 574 248 688 l 180 983 l 110 983 l 110 45 q 324 -11 209 -11 q 544 122 467 -11 q 604 370 604 224 m 180 84 l 180 397 q 273 606 180 549 q 355 631 311 631 q 490 545 439 631 q 530 370 530 475 q 429 87 530 167 q 317 49 381 49 q 180 84 247 50 z "},"\\":{"ha":524,"x_min":30,"x_max":492,"o":"m 425 -95 l 492 -94 l 95 983 l 30 983 l 425 -95 z "},"|":{"ha":420,"x_min":179,"x_max":241,"o":"m 182 983 l 179 -95 l 241 -95 l 241 983 l 182 983 z "},"{":{"ha":368,"x_min":56,"x_max":338,"o":"m 338 -240 l 335 -183 q 297 -184 321 -184 q 224 -126 236 -184 q 220 -75 220 -106 l 220 288 q 148 403 218 380 q 220 519 218 427 l 220 872 q 262 977 220 959 q 297 982 277 982 q 334 981 324 982 l 338 1038 q 278 1043 312 1043 q 163 968 186 1043 q 153 880 153 935 l 153 528 q 77 431 153 439 q 56 430 66 430 l 56 377 q 151 307 140 376 q 153 278 153 294 l 153 -83 q 212 -233 153 -205 q 278 -245 239 -245 q 338 -240 313 -245 z "},"}":{"ha":366,"x_min":28,"x_max":311,"o":"m 28 1035 l 31 978 q 69 979 45 979 q 142 921 130 979 q 146 869 146 901 l 146 507 q 218 392 148 415 q 146 275 148 368 l 146 -77 q 104 -182 146 -164 q 69 -187 90 -187 q 33 -186 42 -187 l 28 -243 q 88 -248 54 -248 q 203 -174 180 -248 q 213 -85 213 -140 l 213 267 q 289 363 213 355 q 311 365 300 365 l 311 418 q 216 488 227 419 q 213 517 213 500 l 213 878 q 155 1028 213 1000 q 88 1040 127 1040 q 28 1035 53 1040 z "},"[":{"ha":372,"x_min":119,"x_max":332,"o":"m 332 -235 l 332 -175 l 187 -175 l 187 971 l 332 971 l 332 1031 l 119 1031 l 119 -235 l 332 -235 z "},"]":{"ha":370,"x_min":38,"x_max":251,"o":"m 38 1038 l 38 978 l 183 978 l 183 -168 l 38 -168 l 38 -228 l 251 -228 l 251 1038 l 38 1038 z "},"˘":{"ha":517,"x_min":102,"x_max":414,"o":"m 102 949 q 186 815 103 852 q 255 800 218 800 q 387 865 342 800 q 414 949 411 902 l 361 952 q 292 863 354 883 q 258 857 274 857 q 168 910 197 857 q 156 955 159 930 l 102 949 z "},"¦":{"ha":420,"x_min":179,"x_max":241,"o":"m 182 315 l 179 -95 l 241 -95 l 241 315 l 182 315 m 182 983 l 179 575 l 241 575 l 241 983 l 182 983 z "},"•":{"ha":463,"x_min":114,"x_max":349,"o":"m 349 399 q 290 505 349 471 q 231 519 262 519 q 129 458 161 519 q 114 399 114 431 q 174 294 114 327 q 231 279 201 279 q 335 340 302 279 q 349 399 349 368 z "},"c":{"ha":521,"x_min":52,"x_max":517,"o":"m 505 47 l 481 98 q 317 50 396 50 q 142 199 186 50 q 126 338 126 260 q 227 608 126 545 q 305 629 262 629 q 460 517 404 628 l 517 543 q 354 685 468 662 q 308 689 331 689 q 98 555 167 689 q 52 339 52 465 q 175 27 52 111 q 302 -11 231 -11 q 505 47 404 -9 z "},"ć":{"ha":521,"x_min":52,"x_max":517,"o":"m 505 47 l 481 98 q 317 50 396 50 q 142 199 186 50 q 126 338 126 260 q 227 608 126 545 q 305 629 262 629 q 460 517 404 628 l 517 543 q 354 685 468 662 q 308 689 331 689 q 98 555 167 689 q 52 339 52 465 q 175 27 52 111 q 302 -11 231 -11 q 505 47 404 -9 m 472 918 l 426 977 l 232 829 l 266 781 l 472 918 z "},"ˇ":{"ha":605,"x_min":129,"x_max":476,"o":"m 301 776 l 476 925 l 442 967 l 304 860 l 164 968 l 129 922 l 301 776 z "},"č":{"ha":521,"x_min":52,"x_max":517,"o":"m 505 47 l 481 98 q 317 50 396 50 q 142 199 186 50 q 126 338 126 260 q 227 608 126 545 q 305 629 262 629 q 460 517 404 628 l 517 543 q 354 685 468 662 q 308 689 331 689 q 98 555 167 689 q 52 339 52 465 q 175 27 52 111 q 302 -11 231 -11 q 505 47 404 -9 m 311 776 l 486 925 l 452 967 l 313 860 l 174 968 l 138 922 l 311 776 z "},"ç":{"ha":521,"x_min":52,"x_max":517,"o":"m 266 -260 q 407 -187 369 -260 q 420 -133 420 -161 q 347 -15 420 -57 q 336 -9 342 -12 q 505 47 420 0 l 481 98 q 317 50 396 50 q 142 199 186 50 q 126 338 126 260 q 227 608 126 545 q 305 629 262 629 q 460 517 404 628 l 517 543 q 354 685 468 662 q 308 689 331 689 q 98 555 167 689 q 52 339 52 465 q 176 24 52 109 q 271 -9 220 -3 q 363 -111 355 -49 q 365 -122 365 -117 q 302 -197 365 -179 q 256 -203 281 -203 q 214 -199 236 -203 l 212 -255 q 266 -260 237 -260 z "},"¸":{"ha":487,"x_min":142,"x_max":351,"o":"m 197 -260 q 338 -187 300 -260 q 351 -133 351 -161 q 275 -14 351 -56 q 224 7 251 0 l 161 7 q 292 -95 267 -26 q 296 -122 296 -110 q 233 -197 296 -179 q 187 -203 212 -203 q 145 -199 167 -203 l 142 -255 q 197 -260 168 -260 z "},"¢":{"ha":585,"x_min":57,"x_max":522,"o":"m 510 75 l 487 125 q 323 77 401 77 q 152 212 197 77 q 132 351 132 271 q 224 602 132 537 q 311 629 263 629 q 446 549 392 629 q 465 517 457 533 l 522 549 q 334 688 456 675 l 334 791 l 279 791 l 279 686 q 92 537 151 670 q 57 353 57 457 q 178 54 57 136 q 279 18 224 24 l 279 -92 l 334 -92 l 334 18 q 510 75 426 26 z "},"ˆ":{"ha":605,"x_min":129,"x_max":476,"o":"m 304 968 l 129 819 l 163 777 l 301 884 l 441 776 l 476 822 l 304 968 z "},":":{"ha":292,"x_min":91,"x_max":201,"o":"m 201 472 q 159 530 201 522 q 146 532 152 532 q 92 486 100 532 q 91 472 91 479 q 134 412 91 419 q 145 411 141 411 q 199 457 191 411 q 201 472 201 465 m 201 53 q 159 111 201 103 q 146 113 152 113 q 92 66 100 113 q 91 53 91 60 q 134 -7 91 0 q 145 -8 141 -8 q 199 38 191 -8 q 201 53 201 46 z "},",":{"ha":240,"x_min":38,"x_max":171,"o":"m 171 41 q 127 111 171 98 q 111 114 119 114 q 56 75 71 114 q 52 49 52 62 q 96 -11 53 4 q 38 -141 90 -68 l 66 -164 q 167 3 145 -91 q 171 41 171 24 z "},"©":{"ha":1029,"x_min":61,"x_max":974,"o":"m 974 469 q 837 810 974 675 q 519 936 707 936 q 191 802 323 936 q 61 468 61 667 q 201 122 61 256 q 518 -3 330 -3 q 845 133 715 -4 q 974 469 974 269 m 711 212 l 686 259 q 530 212 600 212 q 366 334 410 212 q 347 458 347 388 q 445 703 347 646 q 519 722 479 722 q 648 647 595 722 q 669 612 661 629 l 723 642 q 562 773 666 753 q 524 777 543 777 q 320 655 387 777 q 277 460 277 574 q 392 191 277 267 q 519 155 446 155 q 711 212 610 156 m 130 469 q 256 779 130 661 q 519 880 365 880 q 802 754 690 882 q 906 468 905 637 q 780 153 906 274 q 519 53 673 53 q 232 182 343 53 q 130 469 130 298 z "},"¤":{"ha":731,"x_min":61,"x_max":663,"o":"m 635 338 q 571 551 633 464 l 662 661 l 620 696 l 533 590 q 365 648 465 648 q 193 589 266 647 l 104 696 l 62 662 l 155 549 q 84 338 84 461 q 148 126 85 208 l 61 22 l 104 -14 l 186 87 q 357 30 258 30 q 534 95 463 31 l 621 -11 l 663 23 l 571 134 q 635 338 635 220 m 159 338 q 235 537 159 464 q 362 589 289 589 q 532 476 477 589 q 562 338 562 414 q 486 138 562 209 q 359 90 433 90 q 187 202 241 90 q 159 338 159 263 z "},"d":{"ha":655,"x_min":50,"x_max":609,"o":"m 300 49 q 163 140 213 49 q 125 312 125 209 q 225 591 125 513 q 336 629 273 629 q 475 597 408 629 l 475 270 q 373 65 475 114 q 300 49 339 49 m 475 983 l 475 661 q 330 689 400 689 q 107 552 184 689 q 50 309 50 452 q 155 37 50 122 q 286 -11 213 -11 q 476 100 410 -9 q 570 -11 483 -7 q 609 -8 589 -11 l 606 46 q 549 80 559 41 q 545 125 545 98 l 545 983 l 475 983 z "},"†":{"ha":609,"x_min":39,"x_max":570,"o":"m 335 -75 l 343 365 l 336 621 l 570 617 l 570 680 l 336 677 l 343 944 l 266 944 l 273 677 l 39 680 l 39 617 l 273 621 l 266 365 l 274 -75 l 335 -75 z "},"‡":{"ha":609,"x_min":39,"x_max":570,"o":"m 570 190 l 570 252 l 336 248 l 343 438 l 336 621 l 570 617 l 570 680 l 336 677 l 343 944 l 266 944 l 273 677 l 39 680 l 39 617 l 273 621 l 266 438 l 273 248 l 39 252 l 39 190 l 273 193 l 266 -75 l 343 -75 l 336 193 l 570 190 z "},"ď":{"ha":692,"x_min":50,"x_max":732,"o":"m 300 49 q 163 140 213 49 q 125 312 125 209 q 225 591 125 513 q 336 629 273 629 q 475 597 408 629 l 475 270 q 373 65 475 114 q 300 49 339 49 m 475 983 l 475 661 q 330 689 400 689 q 107 552 184 689 q 50 309 50 452 q 155 37 50 122 q 286 -11 213 -11 q 476 100 410 -9 q 570 -11 483 -7 q 609 -8 589 -11 l 606 46 q 549 80 559 41 q 545 125 545 98 l 545 983 l 475 983 m 731 886 q 692 951 731 939 q 677 954 684 954 q 625 917 639 954 q 621 894 623 905 q 663 838 624 852 q 609 719 656 787 l 635 699 q 727 853 709 766 q 731 886 731 871 z "},"đ":{"ha":652,"x_min":50,"x_max":639,"o":"m 259 845 l 259 788 l 475 788 l 475 661 q 330 689 400 689 q 107 552 184 689 q 50 309 50 452 q 155 37 50 122 q 286 -11 213 -11 q 476 100 410 -9 q 570 -11 483 -7 q 609 -8 589 -11 l 606 46 q 549 80 559 41 q 545 125 545 98 l 545 788 l 639 788 l 639 845 l 545 845 l 545 983 l 475 983 l 475 845 l 259 845 m 300 49 q 163 140 213 49 q 125 312 125 209 q 225 591 125 513 q 336 629 273 629 q 475 597 408 629 l 475 270 q 373 65 475 114 q 300 49 339 49 z "},"°":{"ha":475,"x_min":76,"x_max":399,"o":"m 239 997 q 104 929 151 997 q 76 829 76 886 q 161 685 76 724 q 233 669 195 669 q 369 734 321 669 q 399 833 399 777 q 313 981 399 939 q 239 997 278 997 m 236 723 q 146 777 175 723 q 134 836 134 802 q 198 936 134 913 q 236 943 217 943 q 328 886 302 943 q 340 829 340 860 q 277 731 340 755 q 236 723 256 723 z "},"¨":{"ha":529,"x_min":98,"x_max":431,"o":"m 198 873 q 161 929 198 918 q 148 930 155 930 q 100 891 110 930 q 98 873 98 882 q 136 818 98 827 q 148 817 142 817 q 195 856 186 817 q 198 873 198 865 m 431 873 q 395 929 431 918 q 380 930 387 930 q 334 892 345 930 q 331 873 331 883 q 365 819 331 831 q 380 817 373 817 q 429 856 419 817 q 431 873 431 865 z "},"÷":{"ha":693,"x_min":54,"x_max":639,"o":"m 639 320 l 639 382 l 54 382 l 54 320 l 639 320 m 401 141 q 362 199 401 189 q 347 201 355 201 q 294 159 305 201 q 292 141 292 149 q 334 81 292 90 q 347 80 340 80 q 400 123 389 80 q 401 141 401 132 m 401 557 q 359 616 401 608 q 347 617 353 617 q 293 574 302 617 q 292 557 292 566 q 334 498 292 506 q 347 496 342 496 q 400 540 389 496 q 401 557 401 548 z "},"$":{"ha":694,"x_min":104,"x_max":595,"o":"m 387 -119 l 387 -8 q 570 114 519 11 q 593 220 593 161 q 473 422 593 349 q 342 488 456 433 q 216 591 241 537 q 202 652 202 620 q 292 793 202 754 q 373 810 330 810 q 537 718 491 808 l 595 749 q 420 871 551 853 q 387 873 403 873 l 387 982 l 331 982 l 331 869 q 157 762 212 852 q 127 651 127 712 q 240 460 127 530 q 370 395 258 449 q 500 289 473 345 q 517 217 517 256 q 412 62 517 96 q 343 53 380 53 q 140 119 240 54 l 104 65 q 331 -11 210 -8 l 331 -119 l 387 -119 z "},"˙":{"ha":334,"x_min":117,"x_max":218,"o":"m 206 860 q 184 918 218 901 q 180 920 182 920 q 130 895 146 933 q 127 890 129 892 q 153 830 118 846 q 203 854 187 817 q 206 860 205 857 z "},"ı":{"ha":292,"x_min":110,"x_max":179,"o":"m 179 0 l 179 678 l 110 678 l 110 0 l 179 0 z "},"◌":{"ha":901,"x_min":43,"x_max":857,"o":"m 90 225 q 123 273 90 260 q 142 277 133 277 q 191 243 179 277 q 194 225 194 233 q 160 176 194 189 q 142 174 151 174 q 94 206 107 174 q 90 225 90 216 m 221 95 q 255 144 221 132 q 273 146 264 146 q 321 114 308 146 q 326 95 326 104 q 292 47 326 60 q 273 43 282 43 q 224 77 236 43 q 221 95 221 87 m 707 225 q 741 274 707 262 q 758 277 750 277 q 807 243 795 277 q 810 225 810 233 q 776 176 810 189 q 758 174 766 174 q 709 208 722 174 q 707 225 707 217 m 575 95 q 609 142 575 130 q 628 146 618 146 q 675 114 662 146 q 680 95 680 104 q 647 47 680 61 q 628 43 636 43 q 579 76 593 43 q 575 95 575 85 m 90 581 q 123 628 90 616 q 142 632 133 632 q 191 598 179 632 q 194 581 194 589 q 160 532 194 544 q 142 529 151 529 q 94 562 107 529 q 90 581 90 571 m 221 711 q 255 760 221 747 q 273 762 264 762 q 321 730 308 762 q 326 711 326 720 q 292 663 326 675 q 273 659 282 659 q 224 693 236 659 q 221 711 221 703 m 707 581 q 741 629 707 617 q 758 632 750 632 q 807 598 795 632 q 810 581 810 589 q 776 532 810 544 q 758 529 766 529 q 709 563 722 529 q 707 581 707 572 m 575 711 q 609 758 575 746 q 628 762 618 762 q 675 730 662 762 q 680 711 680 720 q 647 663 680 677 q 628 659 636 659 q 579 692 593 659 q 575 711 575 701 m 43 403 q 77 452 43 439 q 95 454 87 454 q 144 420 132 454 q 146 403 146 411 q 113 354 146 366 q 95 351 103 351 q 46 385 58 351 q 43 403 43 395 m 754 403 q 788 452 754 439 q 806 454 798 454 q 854 420 842 454 q 857 403 857 411 q 823 354 857 366 q 806 351 814 351 q 757 385 769 351 q 754 403 754 395 m 399 758 q 433 807 399 795 q 450 810 442 810 q 499 776 487 810 q 502 758 502 766 q 468 709 502 722 q 450 707 458 707 q 401 741 414 707 q 399 758 399 750 m 399 47 q 433 96 399 84 q 450 99 442 99 q 499 65 487 99 q 502 47 502 56 q 468 -1 502 11 q 450 -4 458 -4 q 401 30 414 -4 q 399 47 399 39 z "},"e":{"ha":595,"x_min":56,"x_max":555,"o":"m 541 42 l 518 94 q 350 50 430 50 q 157 182 212 50 q 130 334 132 245 l 555 334 l 555 363 q 316 689 544 681 q 104 557 176 689 q 56 340 56 468 q 189 31 56 119 q 340 -11 254 -11 q 541 42 437 -9 m 316 631 q 473 487 441 631 q 483 393 483 444 l 133 392 q 252 618 148 572 q 316 631 282 631 z "},"é":{"ha":595,"x_min":56,"x_max":555,"o":"m 541 42 l 518 94 q 350 50 430 50 q 157 182 212 50 q 130 334 132 245 l 555 334 l 555 363 q 316 689 544 681 q 104 557 176 689 q 56 340 56 468 q 189 31 56 119 q 340 -11 254 -11 q 541 42 437 -9 m 316 631 q 473 487 441 631 q 483 393 483 444 l 133 392 q 252 618 148 572 q 316 631 282 631 m 486 918 l 439 977 l 245 829 l 279 781 l 486 918 z "},"ě":{"ha":595,"x_min":56,"x_max":555,"o":"m 541 42 l 518 94 q 350 50 430 50 q 157 182 212 50 q 130 334 132 245 l 555 334 l 555 363 q 316 689 544 681 q 104 557 176 689 q 56 340 56 468 q 189 31 56 119 q 340 -11 254 -11 q 541 42 437 -9 m 316 631 q 473 487 441 631 q 483 393 483 444 l 133 392 q 252 618 148 572 q 316 631 282 631 m 324 776 l 499 925 l 465 967 l 327 860 l 187 968 l 152 922 l 324 776 z "},"ê":{"ha":595,"x_min":56,"x_max":555,"o":"m 541 42 l 518 94 q 350 50 430 50 q 157 182 212 50 q 130 334 132 245 l 555 334 l 555 363 q 316 689 544 681 q 104 557 176 689 q 56 340 56 468 q 189 31 56 119 q 340 -11 254 -11 q 541 42 437 -9 m 316 631 q 473 487 441 631 q 483 393 483 444 l 133 392 q 252 618 148 572 q 316 631 282 631 m 332 968 l 157 819 l 191 777 l 330 884 l 469 776 l 505 822 l 332 968 z "},"ë":{"ha":595,"x_min":56,"x_max":555,"o":"m 541 42 l 518 94 q 350 50 430 50 q 157 182 212 50 q 130 334 132 245 l 555 334 l 555 363 q 316 689 544 681 q 104 557 176 689 q 56 340 56 468 q 189 31 56 119 q 340 -11 254 -11 q 541 42 437 -9 m 316 631 q 473 487 441 631 q 483 393 483 444 l 133 392 q 252 618 148 572 q 316 631 282 631 m 259 873 q 222 929 259 918 q 209 930 216 930 q 161 891 171 930 q 159 873 159 882 q 197 818 159 827 q 209 817 203 817 q 256 856 247 817 q 259 873 259 865 m 492 873 q 456 929 492 918 q 441 930 448 930 q 395 892 406 930 q 392 873 392 883 q 426 819 392 831 q 441 817 434 817 q 490 856 480 817 q 492 873 492 865 z "},"ė":{"ha":595,"x_min":56,"x_max":555,"o":"m 541 42 l 518 94 q 350 50 430 50 q 157 182 212 50 q 130 334 132 245 l 555 334 l 555 363 q 316 689 544 681 q 104 557 176 689 q 56 340 56 468 q 189 31 56 119 q 340 -11 254 -11 q 541 42 437 -9 m 316 631 q 473 487 441 631 q 483 393 483 444 l 133 392 q 252 618 148 572 q 316 631 282 631 m 365 860 q 343 918 377 901 q 339 920 340 920 q 289 895 305 933 q 286 890 288 892 q 312 830 277 846 q 362 854 346 817 q 365 860 363 857 z "},"è":{"ha":595,"x_min":56,"x_max":555,"o":"m 541 42 l 518 94 q 350 50 430 50 q 157 182 212 50 q 130 334 132 245 l 555 334 l 555 363 q 316 689 544 681 q 104 557 176 689 q 56 340 56 468 q 189 31 56 119 q 340 -11 254 -11 q 541 42 437 -9 m 316 631 q 473 487 441 631 q 483 393 483 444 l 133 392 q 252 618 148 572 q 316 631 282 631 m 195 918 l 241 977 l 435 829 l 401 781 l 195 918 z "},"…":{"ha":777,"x_min":73,"x_max":689,"o":"m 437 53 q 395 111 437 103 q 382 113 388 113 q 328 66 336 113 q 327 53 327 60 q 370 -7 327 0 q 381 -8 377 -8 q 435 38 427 -8 q 437 53 437 46 m 689 53 q 647 111 689 103 q 635 113 640 113 q 581 66 589 113 q 579 53 579 60 q 623 -7 579 0 q 633 -8 629 -8 q 688 38 680 -8 q 689 53 689 46 m 183 53 q 141 111 183 103 q 129 113 134 113 q 75 66 83 113 q 73 53 73 60 q 117 -7 73 0 q 127 -8 123 -8 q 182 38 174 -8 q 183 53 183 46 z "},"ē":{"ha":595,"x_min":56,"x_max":555,"o":"m 541 42 l 518 94 q 350 50 430 50 q 157 182 212 50 q 130 334 132 245 l 555 334 l 555 363 q 316 689 544 681 q 104 557 176 689 q 56 340 56 468 q 189 31 56 119 q 340 -11 254 -11 q 541 42 437 -9 m 316 631 q 473 487 441 631 q 483 393 483 444 l 133 392 q 252 618 148 572 q 316 631 282 631 m 156 903 l 156 845 l 495 845 l 495 903 l 156 903 z "},"—":{"ha":1356,"x_min":-1,"x_max":1358,"o":"m -1 439 l -1 374 l 1358 374 l 1358 439 l -1 439 z "},"–":{"ha":678,"x_min":-1,"x_max":680,"o":"m -1 439 l -1 374 l 680 374 l 680 439 l -1 439 z "},"ę":{"ha":594,"x_min":56,"x_max":555,"o":"m 533 -258 l 530 -208 q 486 -213 510 -213 q 397 -155 410 -213 q 395 -134 395 -144 q 475 3 395 -62 q 511 28 492 18 q 541 42 536 39 l 518 94 q 350 50 430 50 q 157 182 212 50 q 130 334 132 245 l 555 334 l 555 363 q 316 689 544 681 q 104 557 176 689 q 56 340 56 468 q 189 31 56 119 q 340 -11 254 -11 q 411 -4 372 -11 q 331 -149 332 -65 q 403 -255 331 -227 q 469 -266 433 -266 q 533 -258 503 -266 m 316 631 q 473 487 441 631 q 483 393 483 444 l 133 392 q 252 618 148 572 q 316 631 282 631 z "},"=":{"ha":743,"x_min":99,"x_max":644,"o":"m 644 408 l 644 471 l 99 471 l 99 408 l 644 408 m 644 229 l 644 290 l 99 290 l 99 229 l 644 229 z "},"℮":{"ha":977,"x_min":66,"x_max":925,"o":"m 228 153 l 228 483 l 925 483 q 765 846 925 722 q 507 933 654 933 q 159 761 282 933 q 66 457 66 631 q 217 88 66 221 q 496 -14 334 -14 q 848 130 699 -14 q 864 146 857 138 l 831 180 q 553 37 720 57 q 503 34 528 34 q 228 153 338 35 m 764 785 l 764 530 l 228 530 l 228 766 q 507 886 339 880 q 764 785 662 884 z "},"ð":{"ha":655,"x_min":52,"x_max":605,"o":"m 605 431 q 453 901 605 754 q 441 911 446 906 l 540 982 l 509 1024 l 395 944 q 218 990 316 990 q 103 974 165 990 l 121 917 q 216 929 164 929 q 336 903 283 929 l 212 815 l 241 770 l 385 872 q 529 532 511 773 q 380 643 483 621 q 332 648 357 648 q 107 525 186 648 q 52 319 52 438 q 167 39 52 126 q 327 -11 233 -11 q 605 431 604 -8 m 127 317 q 213 543 127 469 q 331 586 263 586 q 506 461 456 586 q 530 327 530 401 q 439 90 530 161 q 327 52 391 52 q 152 178 202 52 q 127 317 127 239 z "},"!":{"ha":327,"x_min":106,"x_max":216,"o":"m 202 948 l 118 948 l 132 220 l 190 220 l 202 948 m 216 53 q 174 111 216 103 q 161 113 167 113 q 107 66 115 113 q 106 53 106 60 q 149 -7 106 0 q 160 -8 156 -8 q 214 38 206 -8 q 216 53 216 46 z "},"¡":{"ha":327,"x_min":111,"x_max":221,"o":"m 125 -267 l 209 -267 l 195 461 l 137 461 l 125 -267 m 111 628 q 153 570 111 578 q 165 568 160 568 q 220 614 212 568 q 221 628 221 621 q 178 688 221 681 q 167 689 171 689 q 113 643 121 689 q 111 628 111 635 z "},"f":{"ha":400,"x_min":43,"x_max":427,"o":"m 395 620 l 395 678 l 214 678 l 214 792 q 309 935 227 925 q 400 906 350 933 l 427 955 q 302 994 366 994 q 163 905 202 994 q 144 808 144 863 l 144 678 l 43 678 l 43 620 l 144 620 l 144 0 l 214 0 l 214 620 l 395 620 z "},"ﬁ":{"ha":663,"x_min":41,"x_max":571,"o":"m 210 0 l 210 620 l 481 620 l 481 0 l 551 0 l 551 678 l 210 678 l 210 792 q 305 935 222 925 q 377 916 338 933 l 403 966 q 298 994 355 994 q 159 905 198 994 q 140 808 140 863 l 140 678 l 41 678 l 41 620 l 140 620 l 140 0 l 210 0 m 571 875 q 532 932 571 921 q 517 933 524 933 q 467 892 476 933 q 464 875 464 883 q 505 817 464 826 q 517 815 511 815 q 568 857 559 815 q 571 875 571 867 z "},"ﬂ":{"ha":694,"x_min":41,"x_max":677,"o":"m 381 620 l 381 678 l 210 678 l 210 792 q 305 935 222 925 q 377 916 338 933 l 403 966 q 298 994 355 994 q 159 905 198 994 q 140 808 140 863 l 140 678 l 41 678 l 41 620 l 140 620 l 140 0 l 210 0 l 210 620 l 381 620 m 677 7 l 659 60 q 610 47 632 47 q 552 129 553 50 l 552 983 l 483 983 l 483 121 q 560 -4 483 19 q 598 -9 579 -9 q 677 7 637 -9 z "},"ƒ":{"ha":576,"x_min":-69,"x_max":564,"o":"m 206 -102 l 288 500 l 476 500 l 476 559 l 296 559 l 327 791 q 454 935 350 933 q 541 914 494 935 l 564 967 q 453 994 510 994 q 292 901 345 994 q 260 807 267 859 l 227 559 l 76 559 l 76 500 l 218 500 l 138 -85 q 28 -228 111 -221 q -43 -208 -5 -227 l -69 -259 q 31 -288 -18 -288 q 176 -197 125 -288 q 206 -102 198 -155 z "},"⁄":{"ha":726,"x_min":38,"x_max":670,"o":"m 107 -15 l 38 -14 l 604 997 l 670 997 l 107 -15 z "},"g":{"ha":617,"x_min":56,"x_max":589,"o":"m 309 273 q 184 342 229 273 q 157 448 157 388 q 240 613 157 567 q 308 631 273 631 q 431 559 388 631 q 458 448 458 511 q 377 289 458 334 q 309 273 345 273 m 309 688 q 136 602 199 688 q 90 448 90 538 q 180 254 91 317 q 103 144 110 210 q 160 54 103 84 q 165 52 164 53 q 56 -111 57 -22 q 163 -262 56 -216 q 300 -288 222 -288 q 544 -193 468 -288 q 583 -76 583 -141 q 476 77 583 34 q 355 98 425 98 l 233 96 q 168 137 182 96 q 165 156 165 146 q 224 225 165 205 q 232 228 229 227 q 308 216 267 216 q 480 298 418 216 q 526 448 526 361 q 454 632 525 564 l 589 629 l 589 688 l 366 680 q 309 688 338 688 m 302 -229 q 138 -159 180 -229 q 123 -104 123 -134 q 224 37 125 -24 l 241 37 l 351 39 q 502 -26 464 42 q 514 -77 514 -50 q 403 -216 514 -180 q 302 -229 359 -229 z "},"ğ":{"ha":617,"x_min":56,"x_max":589,"o":"m 309 273 q 184 342 229 273 q 157 448 157 388 q 240 613 157 567 q 308 631 273 631 q 431 559 388 631 q 458 448 458 511 q 377 289 458 334 q 309 273 345 273 m 309 688 q 136 602 199 688 q 90 448 90 538 q 180 254 91 317 q 103 144 110 210 q 160 54 103 84 q 165 52 164 53 q 56 -111 57 -22 q 163 -262 56 -216 q 300 -288 222 -288 q 544 -193 468 -288 q 583 -76 583 -141 q 476 77 583 34 q 355 98 425 98 l 233 96 q 168 137 182 96 q 165 156 165 146 q 224 225 165 205 q 232 228 229 227 q 308 216 267 216 q 480 298 418 216 q 526 448 526 361 q 454 632 525 564 l 589 629 l 589 688 l 366 680 q 309 688 338 688 m 302 -229 q 138 -159 180 -229 q 123 -104 123 -134 q 224 37 125 -24 l 241 37 l 351 39 q 502 -26 464 42 q 514 -77 514 -50 q 403 -216 514 -180 q 302 -229 359 -229 m 160 949 q 244 815 161 852 q 313 800 277 800 q 445 865 400 800 q 472 949 469 902 l 419 952 q 350 863 412 883 q 316 857 332 857 q 227 910 255 857 q 214 955 217 930 l 160 949 z "},"ß":{"ha":738,"x_min":41,"x_max":680,"o":"m 680 187 q 576 370 680 292 q 524 407 559 384 q 426 492 445 460 q 414 538 414 515 q 475 636 414 586 q 555 703 543 690 q 605 829 605 758 q 498 972 605 928 q 378 994 442 994 q 172 892 233 994 q 140 762 140 837 l 140 678 l 41 678 l 41 620 l 140 620 l 140 0 l 210 0 l 210 757 q 321 933 210 902 q 374 940 347 940 q 514 884 471 940 q 534 826 534 859 q 467 701 534 755 q 438 680 457 694 q 358 600 376 633 q 343 536 343 570 q 431 389 343 454 q 479 355 446 377 q 589 260 564 298 q 610 184 610 225 q 543 60 610 95 q 492 47 518 47 q 361 91 435 49 l 334 38 q 491 -11 414 -11 q 639 60 583 -11 q 680 187 680 113 z "},"`":{"ha":465,"x_min":129,"x_max":369,"o":"m 129 918 l 175 977 l 369 829 l 335 781 l 129 918 z "},">":{"ha":582,"x_min":102,"x_max":506,"o":"m 506 345 l 149 693 l 102 642 l 415 343 l 102 31 l 149 -15 l 506 345 z "},"≥":{"ha":604,"x_min":84,"x_max":522,"o":"m 522 438 l 126 718 l 85 663 l 418 438 l 84 203 l 122 155 l 522 438 m 517 34 l 517 96 l 92 96 l 92 34 l 517 34 z "},"«":{"ha":633,"x_min":69,"x_max":538,"o":"m 316 559 l 270 600 l 69 357 l 266 115 l 313 157 l 148 358 l 316 559 m 538 559 l 491 600 l 285 357 l 487 115 l 536 157 l 363 358 l 538 559 z "},"»":{"ha":633,"x_min":69,"x_max":538,"o":"m 292 156 l 338 115 l 538 358 l 342 600 l 294 557 l 460 357 l 292 156 m 69 156 l 117 115 l 323 358 l 121 600 l 72 557 l 244 357 l 69 156 z "},"‹":{"ha":346,"x_min":39,"x_max":292,"o":"m 292 559 l 244 600 l 39 357 l 240 115 l 289 157 l 119 358 l 292 559 z "},"›":{"ha":346,"x_min":54,"x_max":307,"o":"m 54 156 l 102 115 l 307 358 l 106 600 l 57 557 l 227 357 l 54 156 z "},"h":{"ha":680,"x_min":110,"x_max":629,"o":"m 625 46 q 568 79 578 41 q 564 126 564 98 l 564 465 q 449 674 564 628 q 368 689 412 689 q 183 572 245 689 q 179 566 180 568 l 180 983 l 110 983 l 110 0 l 180 0 l 180 392 q 273 606 180 547 q 357 632 312 632 q 486 529 458 632 q 494 460 494 498 l 494 118 q 595 -11 494 -9 q 629 -8 612 -11 l 625 46 z "},"˝":{"ha":629,"x_min":102,"x_max":564,"o":"m 334 932 l 282 986 l 102 823 l 138 781 l 334 932 m 564 932 l 514 986 l 334 823 l 370 781 l 564 932 z "},"-":{"ha":442,"x_min":62,"x_max":380,"o":"m 62 393 l 62 334 l 380 334 l 380 393 l 62 393 z "},"i":{"ha":292,"x_min":92,"x_max":199,"o":"m 179 0 l 179 678 l 110 678 l 110 0 l 179 0 m 199 875 q 160 932 199 921 q 145 933 153 933 q 95 892 104 933 q 92 875 92 883 q 133 817 92 826 q 145 815 140 815 q 197 857 187 815 q 199 875 199 867 z "},"í":{"ha":292,"x_min":68,"x_max":308,"o":"m 179 0 l 179 678 l 110 678 l 110 0 l 179 0 m 308 918 l 262 977 l 68 829 l 102 781 l 308 918 z "},"î":{"ha":292,"x_min":-11,"x_max":308,"o":"m 152 968 l -11 815 l 27 777 l 148 883 l 269 776 l 308 819 l 152 968 m 179 0 l 179 678 l 110 678 l 110 0 l 179 0 z "},"ï":{"ha":292,"x_min":-5,"x_max":296,"o":"m 95 873 q 58 929 95 920 q 46 930 52 930 q -3 891 7 930 q -5 873 -5 882 q 31 818 -5 829 q 46 817 39 817 q 92 854 81 817 q 95 873 95 864 m 296 873 q 259 929 296 918 q 245 930 252 930 q 198 891 208 930 q 195 873 195 882 q 232 818 195 829 q 245 817 239 817 q 293 856 283 817 q 296 873 296 865 m 179 0 l 179 678 l 110 678 l 110 0 l 179 0 z "},"ì":{"ha":292,"x_min":-4,"x_max":236,"o":"m 179 0 l 179 678 l 110 678 l 110 0 l 179 0 m -4 918 l 42 977 l 236 829 l 202 781 l -4 918 z "},"ī":{"ha":292,"x_min":1,"x_max":290,"o":"m 1 903 l 1 845 l 290 845 l 290 903 l 1 903 m 179 0 l 179 678 l 110 678 l 110 0 l 179 0 z "},"∞":{"ha":1142,"x_min":76,"x_max":1066,"o":"m 849 157 q 1035 259 975 157 q 1066 376 1066 313 q 990 541 1066 481 q 864 582 937 582 q 670 496 774 582 q 616 450 651 481 q 575 415 589 426 q 359 571 448 543 q 292 582 324 582 q 107 480 167 582 q 76 363 76 426 q 155 195 76 254 q 285 157 209 157 q 487 251 372 157 q 540 294 505 264 q 570 320 559 312 q 791 165 703 191 q 849 157 821 157 m 852 221 q 669 324 779 221 q 618 372 650 342 q 766 490 724 465 q 860 518 817 518 q 975 441 940 518 q 991 369 991 407 q 929 243 991 283 q 852 221 895 221 m 290 221 q 167 301 203 221 q 152 372 152 335 q 214 496 152 456 q 290 518 248 518 q 475 411 359 518 q 524 365 494 393 q 399 263 418 275 q 290 221 338 221 z "},"∫":{"ha":396,"x_min":15,"x_max":368,"o":"m 237 -53 q 217 658 237 38 q 213 779 214 730 q 305 959 210 958 q 353 949 328 959 l 368 1010 q 300 1021 334 1021 q 157 907 197 1021 q 140 788 140 854 q 161 92 140 696 q 165 -45 164 9 q 75 -227 168 -225 q 27 -217 57 -227 l 15 -278 q 77 -289 46 -289 q 217 -180 175 -289 q 237 -53 237 -125 z "},"į":{"ha":292,"x_min":-3,"x_max":201,"o":"m 184 860 q 163 918 197 901 q 159 920 160 920 q 109 895 125 933 q 106 890 107 892 q 132 830 96 846 q 182 854 165 817 q 184 860 183 857 m 201 -258 l 198 -208 q 153 -213 176 -213 q 66 -160 83 -213 q 62 -136 62 -148 q 160 -9 62 -65 q 179 0 171 -4 l 179 678 l 110 678 l 110 5 q -3 -149 -1 -62 q 81 -259 -3 -233 q 136 -266 107 -266 q 201 -258 171 -266 z "},"j":{"ha":298,"x_min":-95,"x_max":206,"o":"m 186 -91 l 186 678 l 117 678 l 117 -94 q 38 -227 117 -214 q 23 -228 31 -228 q -68 -198 -18 -227 l -95 -252 q 28 -288 -30 -288 q 168 -193 129 -288 q 186 -91 186 -148 m 206 878 q 170 933 206 922 q 153 936 161 936 q 102 895 111 936 q 99 878 99 886 q 136 819 99 830 q 152 817 145 817 q 203 857 193 817 q 206 878 206 868 z "},"k":{"ha":593,"x_min":111,"x_max":586,"o":"m 556 -11 q 586 -8 568 -11 l 582 45 l 568 45 q 534 71 551 45 q 526 84 530 77 l 355 385 l 559 678 l 483 678 l 311 426 l 180 426 l 180 983 l 111 983 l 111 0 l 180 0 l 180 368 l 292 368 l 469 54 q 556 -11 509 -9 z "},"l":{"ha":317,"x_min":110,"x_max":305,"o":"m 227 -9 q 305 7 263 -9 l 288 60 q 239 47 259 47 q 180 129 182 50 l 180 983 l 110 983 l 110 121 q 189 -4 110 19 q 227 -9 206 -9 z "},"ĺ":{"ha":317,"x_min":68,"x_max":308,"o":"m 227 -9 q 305 7 263 -9 l 288 60 q 239 47 259 47 q 180 129 182 50 l 180 983 l 110 983 l 110 121 q 189 -4 110 19 q 227 -9 206 -9 m 308 1173 l 262 1232 l 68 1084 l 102 1036 l 308 1173 z "},"ľ":{"ha":328,"x_min":110,"x_max":369,"o":"m 227 -9 q 305 7 263 -9 l 288 60 q 239 47 259 47 q 180 129 182 50 l 180 983 l 110 983 l 110 121 q 189 -4 110 19 q 227 -9 206 -9 m 368 886 q 328 951 368 939 q 313 954 320 954 q 262 917 275 954 q 258 894 259 905 q 300 838 260 852 q 245 719 293 787 l 271 699 q 363 853 346 766 q 368 886 368 871 z "},"<":{"ha":578,"x_min":72,"x_max":476,"o":"m 72 334 l 429 -15 l 476 37 l 163 335 l 476 647 l 429 693 l 72 334 z "},"≤":{"ha":604,"x_min":81,"x_max":519,"o":"m 514 34 l 514 96 l 90 96 l 90 34 l 514 34 m 81 433 l 479 155 l 518 209 l 184 434 l 519 667 l 481 718 l 81 433 z "},"¬":{"ha":648,"x_min":46,"x_max":589,"o":"m 589 156 l 589 382 l 46 382 l 46 320 l 518 320 l 518 156 l 589 156 z "},"◊":{"ha":692,"x_min":34,"x_max":658,"o":"m 374 -4 l 658 458 l 365 920 l 319 920 l 34 461 l 326 -4 l 374 -4 m 134 435 l 107 463 l 319 803 l 339 842 l 557 486 l 585 454 l 374 111 l 357 73 l 134 435 z "},"ł":{"ha":323,"x_min":28,"x_max":305,"o":"m 227 -9 q 305 7 263 -9 l 288 60 q 239 47 259 47 q 180 129 182 50 l 180 448 l 269 484 l 260 505 l 180 471 l 180 983 l 110 983 l 110 441 l 28 407 l 37 387 l 110 418 l 110 121 q 189 -4 110 19 q 227 -9 206 -9 z "},"m":{"ha":1046,"x_min":110,"x_max":993,"o":"m 928 465 q 818 674 928 627 q 738 689 781 689 q 560 570 620 689 q 548 543 553 556 q 411 684 517 661 q 363 689 388 689 q 187 582 250 689 q 178 564 182 572 l 176 678 l 110 678 l 110 0 l 180 0 l 180 389 q 270 605 180 543 q 354 632 309 632 q 479 534 450 632 q 490 457 490 499 l 490 0 l 559 0 l 559 389 q 647 606 559 544 q 728 632 685 632 q 845 540 815 632 q 857 457 857 503 l 857 118 q 959 -11 857 -9 q 993 -8 975 -11 l 990 46 q 932 79 941 41 q 928 126 928 96 l 928 465 z "},"¯":{"ha":486,"x_min":73,"x_max":412,"o":"m 73 903 l 73 845 l 412 845 l 412 903 l 73 903 z "},"−":{"ha":708,"x_min":94,"x_max":616,"o":"m 94 319 l 616 319 l 616 382 l 94 382 l 94 319 z "},"×":{"ha":606,"x_min":87,"x_max":519,"o":"m 87 524 l 259 351 l 88 180 l 133 137 l 304 308 l 475 136 l 519 182 l 349 353 l 519 524 l 476 567 l 305 396 l 133 568 l 87 524 z "},"n":{"ha":677,"x_min":113,"x_max":631,"o":"m 628 46 q 570 79 579 41 q 566 126 566 96 l 566 465 q 448 675 566 632 q 369 689 412 689 q 179 562 241 688 l 178 678 l 113 678 l 113 0 l 183 0 l 183 388 q 275 606 183 545 q 359 632 315 632 q 487 526 460 632 q 495 456 495 494 l 495 118 q 597 -11 505 -5 q 631 -7 614 -11 l 628 46 z "},"ń":{"ha":677,"x_min":113,"x_max":631,"o":"m 628 46 q 570 79 579 41 q 566 126 566 96 l 566 465 q 448 675 566 632 q 369 689 412 689 q 179 562 241 688 l 178 678 l 113 678 l 113 0 l 183 0 l 183 388 q 275 606 183 545 q 359 632 315 632 q 487 526 460 632 q 495 456 495 494 l 495 118 q 597 -11 505 -5 q 631 -7 614 -11 l 628 46 m 503 918 l 457 977 l 263 829 l 297 781 l 503 918 z "},"ň":{"ha":677,"x_min":113,"x_max":631,"o":"m 628 46 q 570 79 579 41 q 566 126 566 96 l 566 465 q 448 675 566 632 q 369 689 412 689 q 179 562 241 688 l 178 678 l 113 678 l 113 0 l 183 0 l 183 388 q 275 606 183 545 q 359 632 315 632 q 487 526 460 632 q 495 456 495 494 l 495 118 q 597 -11 505 -5 q 631 -7 614 -11 l 628 46 m 340 776 l 515 925 l 481 967 l 343 860 l 203 968 l 168 922 l 340 776 z "},"≠":{"ha":743,"x_min":99,"x_max":644,"o":"m 644 229 l 644 290 l 385 290 l 427 408 l 644 408 l 644 471 l 450 471 l 507 631 l 442 631 l 385 471 l 99 471 l 99 408 l 362 408 l 320 290 l 99 290 l 99 229 l 298 229 l 237 61 l 304 61 l 363 229 l 644 229 z "},"ñ":{"ha":677,"x_min":113,"x_max":631,"o":"m 628 46 q 570 79 579 41 q 566 126 566 96 l 566 465 q 448 675 566 632 q 369 689 412 689 q 179 562 241 688 l 178 678 l 113 678 l 113 0 l 183 0 l 183 388 q 275 606 183 545 q 359 632 315 632 q 487 526 460 632 q 495 456 495 494 l 495 118 q 597 -11 505 -5 q 631 -7 614 -11 l 628 46 m 426 879 q 347 906 401 879 q 274 928 307 926 q 155 871 213 926 l 189 836 q 271 868 228 868 q 351 841 297 868 q 430 819 396 819 q 536 878 487 821 l 502 914 q 426 879 465 879 z "},"#":{"ha":887,"x_min":26,"x_max":861,"o":"m 396 916 l 321 659 l 119 659 l 119 608 l 307 608 l 227 331 l 26 331 l 26 279 l 212 279 l 130 0 l 195 0 l 277 279 l 500 281 l 419 0 l 484 0 l 564 281 l 766 281 l 766 331 l 579 331 l 659 608 l 861 608 l 861 659 l 674 659 l 747 916 l 684 916 l 609 659 l 385 659 l 460 916 l 396 916 m 514 331 l 290 331 l 370 608 l 594 608 l 514 331 z "},"o":{"ha":655,"x_min":53,"x_max":604,"o":"m 327 49 q 149 186 199 49 q 126 338 126 252 q 218 590 126 514 q 331 629 267 629 q 506 491 457 629 q 529 338 529 425 q 431 81 529 153 q 327 49 387 49 m 332 689 q 103 552 179 689 q 53 338 53 463 q 189 23 53 103 q 326 -11 248 -11 q 559 130 484 -11 q 604 338 604 218 q 479 647 604 560 q 332 689 416 689 z "},"ó":{"ha":655,"x_min":53,"x_max":604,"o":"m 327 49 q 149 186 199 49 q 126 338 126 252 q 218 590 126 514 q 331 629 267 629 q 506 491 457 629 q 529 338 529 425 q 431 81 529 153 q 327 49 387 49 m 332 689 q 103 552 179 689 q 53 338 53 463 q 189 23 53 103 q 326 -11 248 -11 q 559 130 484 -11 q 604 338 604 218 q 479 647 604 560 q 332 689 416 689 m 491 918 l 445 977 l 251 829 l 285 781 l 491 918 z "},"ô":{"ha":655,"x_min":53,"x_max":604,"o":"m 327 49 q 149 186 199 49 q 126 338 126 252 q 218 590 126 514 q 331 629 267 629 q 506 491 457 629 q 529 338 529 425 q 431 81 529 153 q 327 49 387 49 m 332 689 q 103 552 179 689 q 53 338 53 463 q 189 23 53 103 q 326 -11 248 -11 q 559 130 484 -11 q 604 338 604 218 q 479 647 604 560 q 332 689 416 689 m 338 968 l 163 819 l 197 777 l 335 884 l 475 776 l 510 822 l 338 968 z "},"ö":{"ha":655,"x_min":53,"x_max":604,"o":"m 327 49 q 149 186 199 49 q 126 338 126 252 q 218 590 126 514 q 331 629 267 629 q 506 491 457 629 q 529 338 529 425 q 431 81 529 153 q 327 49 387 49 m 332 689 q 103 552 179 689 q 53 338 53 463 q 189 23 53 103 q 326 -11 248 -11 q 559 130 484 -11 q 604 338 604 218 q 479 647 604 560 q 332 689 416 689 m 264 873 q 228 929 264 918 q 214 930 221 930 q 167 891 176 930 q 164 873 164 882 q 202 818 164 827 q 214 817 209 817 q 262 856 252 817 q 264 873 264 865 m 498 873 q 461 929 498 918 q 446 930 453 930 q 400 892 411 930 q 397 873 397 883 q 431 819 397 831 q 446 817 439 817 q 495 856 486 817 q 498 873 498 865 z "},"œ":{"ha":1072,"x_min":53,"x_max":1028,"o":"m 1015 42 l 991 94 q 823 50 903 50 q 631 182 685 50 q 604 334 605 245 l 1028 334 l 1028 363 q 810 689 1028 675 q 791 689 800 689 q 582 556 650 689 q 567 519 574 538 q 332 689 503 688 q 103 552 179 689 q 53 338 53 463 q 189 23 53 103 q 326 -11 248 -11 q 556 140 487 -11 q 566 163 562 152 q 764 -7 620 16 q 814 -11 789 -11 q 1015 42 910 -9 m 789 631 q 947 487 914 631 q 956 393 956 444 l 606 392 q 726 618 621 572 q 789 631 755 631 m 126 338 q 218 590 126 514 q 331 629 267 629 q 506 491 457 629 q 529 338 529 425 q 431 81 529 153 q 327 49 387 49 q 149 186 199 49 q 126 338 126 252 z "},"˛":{"ha":378,"x_min":90,"x_max":293,"o":"m 293 -258 l 290 -208 q 245 -213 269 -213 q 159 -160 175 -213 q 155 -136 155 -148 q 252 -9 155 -65 q 271 0 263 -4 l 203 7 q 90 -149 91 -62 q 174 -259 90 -233 q 228 -266 199 -266 q 293 -258 263 -266 z "},"ò":{"ha":655,"x_min":53,"x_max":604,"o":"m 327 49 q 149 186 199 49 q 126 338 126 252 q 218 590 126 514 q 331 629 267 629 q 506 491 457 629 q 529 338 529 425 q 431 81 529 153 q 327 49 387 49 m 332 689 q 103 552 179 689 q 53 338 53 463 q 189 23 53 103 q 326 -11 248 -11 q 559 130 484 -11 q 604 338 604 218 q 479 647 604 560 q 332 689 416 689 m 201 918 l 247 977 l 441 829 l 407 781 l 201 918 z "},"ő":{"ha":655,"x_min":53,"x_max":629,"o":"m 327 49 q 149 186 199 49 q 126 338 126 252 q 218 590 126 514 q 331 629 267 629 q 506 491 457 629 q 529 338 529 425 q 431 81 529 153 q 327 49 387 49 m 332 689 q 103 552 179 689 q 53 338 53 463 q 189 23 53 103 q 326 -11 248 -11 q 559 130 484 -11 q 604 338 604 218 q 479 647 604 560 q 332 689 416 689 m 399 932 l 347 986 l 167 823 l 203 781 l 399 932 m 629 932 l 579 986 l 399 823 l 435 781 l 629 932 z "},"ō":{"ha":655,"x_min":53,"x_max":604,"o":"m 327 49 q 149 186 199 49 q 126 338 126 252 q 218 590 126 514 q 331 629 267 629 q 506 491 457 629 q 529 338 529 425 q 431 81 529 153 q 327 49 387 49 m 332 689 q 103 552 179 689 q 53 338 53 463 q 189 23 53 103 q 326 -11 248 -11 q 559 130 484 -11 q 604 338 604 218 q 479 647 604 560 q 332 689 416 689 m 161 903 l 161 845 l 500 845 l 500 903 l 161 903 z "},"½":{"ha":1078,"x_min":19,"x_max":1027,"o":"m 270 -15 l 833 997 l 766 997 l 201 -14 l 270 -15 m 1027 0 l 1027 58 l 776 58 l 875 171 q 907 206 886 183 q 1009 343 990 296 q 1019 395 1019 370 q 933 538 1019 492 q 842 560 891 560 q 673 471 734 559 l 723 442 q 837 506 766 505 q 940 450 909 506 q 954 395 954 426 q 883 260 954 340 q 834 208 872 248 l 673 33 l 673 0 l 1027 0 m 39 791 l 178 849 l 178 418 l 61 418 l 61 366 l 324 366 l 324 418 l 241 418 l 241 916 l 190 916 l 19 844 l 39 791 z "},"¼":{"ha":1040,"x_min":19,"x_max":1002,"o":"m 936 0 l 936 136 l 1002 136 l 1002 189 l 936 189 l 936 552 l 863 552 l 609 176 l 616 134 l 871 136 l 871 0 l 936 0 m 270 -15 l 833 997 l 766 997 l 201 -14 l 270 -15 m 39 791 l 178 849 l 178 418 l 61 418 l 61 366 l 324 366 l 324 418 l 241 418 l 241 916 l 190 916 l 19 844 l 39 791 m 871 189 l 682 189 l 871 471 l 871 189 z "},"¹":{"ha":423,"x_min":41,"x_max":346,"o":"m 61 791 l 199 849 l 199 418 l 83 418 l 83 366 l 346 366 l 346 418 l 263 418 l 263 916 l 212 916 l 41 844 l 61 791 z "},"ª":{"ha":441,"x_min":33,"x_max":423,"o":"m 392 415 q 423 416 412 415 l 419 467 q 406 465 412 465 q 361 515 365 465 q 361 530 361 524 l 361 780 q 269 917 361 887 q 209 926 241 926 q 50 880 125 925 l 75 834 q 202 873 142 873 q 296 804 281 873 q 298 776 298 791 l 298 707 q 237 709 278 709 q 49 627 95 709 q 33 563 33 597 q 118 425 33 456 q 176 415 145 415 q 305 483 258 415 q 309 488 308 486 q 392 415 326 418 m 187 467 q 100 537 114 467 q 98 564 98 551 q 190 659 98 643 q 236 663 212 663 q 298 661 262 663 l 298 583 q 232 477 298 507 q 187 467 209 467 z "},"º":{"ha":509,"x_min":52,"x_max":456,"o":"m 254 467 q 127 582 157 467 q 118 670 118 623 q 193 856 118 808 q 256 875 220 875 q 380 762 350 875 q 391 670 391 720 q 313 481 391 526 q 254 467 286 467 m 258 926 q 81 812 136 926 q 52 670 52 750 q 167 431 52 483 q 251 415 205 415 q 433 538 382 415 q 456 670 456 597 q 349 906 456 850 q 258 926 308 926 z "},"ø":{"ha":655,"x_min":53,"x_max":604,"o":"m 460 793 l 418 677 q 332 689 380 689 q 103 552 179 689 q 53 338 53 463 q 184 26 54 109 l 146 -80 l 201 -96 l 236 3 q 326 -11 275 -11 q 559 130 484 -11 q 604 338 604 218 q 476 648 604 563 q 468 654 471 651 l 511 777 l 460 793 m 126 338 q 218 590 126 514 q 331 629 267 629 q 396 617 368 629 l 209 92 q 126 338 126 170 m 327 49 q 256 62 286 49 l 444 589 q 529 338 529 513 q 431 81 529 153 q 327 49 387 49 z "},"õ":{"ha":655,"x_min":53,"x_max":604,"o":"m 327 49 q 149 186 199 49 q 126 338 126 252 q 218 590 126 514 q 331 629 267 629 q 506 491 457 629 q 529 338 529 425 q 431 81 529 153 q 327 49 387 49 m 332 689 q 103 552 179 689 q 53 338 53 463 q 189 23 53 103 q 326 -11 248 -11 q 559 130 484 -11 q 604 338 604 218 q 479 647 604 560 q 332 689 416 689 m 414 879 q 335 906 389 879 q 262 928 294 926 q 142 871 201 926 l 176 836 q 259 868 216 868 q 339 841 285 868 q 418 819 384 819 q 524 878 475 821 l 490 914 q 414 879 453 879 z "},"p":{"ha":663,"x_min":110,"x_max":604,"o":"m 317 49 q 180 84 252 49 l 180 397 q 269 602 180 540 q 355 629 309 629 q 491 541 441 629 q 530 370 530 472 q 430 88 530 170 q 317 49 381 49 m 180 -277 l 180 15 q 323 -11 256 -11 q 547 125 468 -11 q 604 370 604 227 q 496 646 604 560 q 368 689 439 689 q 179 568 245 688 l 178 678 l 110 678 l 110 -277 l 180 -277 z "},"¶":{"ha":613,"x_min":33,"x_max":502,"o":"m 350 0 l 350 916 l 258 916 q 60 815 118 916 q 33 712 33 769 q 277 510 33 515 q 279 510 278 510 l 279 0 l 350 0 m 502 0 l 502 916 l 431 916 l 431 0 l 502 0 z "},"(":{"ha":362,"x_min":104,"x_max":342,"o":"m 174 400 q 342 1002 175 726 l 282 1031 q 104 396 104 738 q 281 -235 106 54 l 342 -203 q 174 400 174 75 z "},")":{"ha":361,"x_min":26,"x_max":263,"o":"m 194 412 q 26 -190 193 87 l 85 -218 q 263 416 263 75 q 87 1047 262 758 l 26 1016 q 194 412 194 738 z "},"∂":{"ha":723,"x_min":83,"x_max":647,"o":"m 647 430 q 445 891 647 741 q 332 954 393 928 l 305 895 q 536 665 469 831 q 571 475 571 576 l 571 452 q 389 582 507 570 q 366 583 378 583 q 137 457 217 583 q 83 269 83 373 q 186 38 83 117 q 338 -11 252 -11 q 589 153 505 -11 q 647 430 647 270 m 159 274 q 266 495 159 433 q 365 522 312 522 q 513 444 458 522 q 553 302 553 387 q 449 83 553 149 q 342 52 399 52 q 193 136 243 52 q 159 274 159 193 z "},"%":{"ha":1086,"x_min":39,"x_max":1048,"o":"m 256 519 q 122 621 160 519 q 104 727 104 667 q 210 924 104 892 q 258 930 233 930 q 401 802 374 930 q 408 726 408 766 q 331 541 408 594 q 256 519 297 519 m 259 986 q 69 871 125 986 q 39 726 39 808 q 136 502 39 571 q 255 467 189 467 q 433 568 372 467 q 473 727 473 636 q 354 966 473 910 q 259 986 312 986 m 831 42 q 696 141 735 42 q 678 250 678 189 q 781 448 678 412 q 833 456 806 456 q 975 326 947 456 q 982 248 982 290 q 905 64 982 117 q 831 42 872 42 m 833 509 q 644 393 700 509 q 613 248 613 332 q 712 24 613 92 q 830 -11 764 -11 q 1006 88 944 -11 q 1048 248 1048 156 q 935 486 1048 426 q 833 509 890 509 m 296 -15 l 227 -14 l 792 997 l 859 997 l 296 -15 z "},".":{"ha":256,"x_min":73,"x_max":183,"o":"m 183 53 q 141 111 183 103 q 129 113 134 113 q 75 66 83 113 q 73 53 73 60 q 117 -7 73 0 q 127 -8 123 -8 q 182 38 174 -8 q 183 53 183 46 z "},"·":{"ha":259,"x_min":66,"x_max":193,"o":"m 130 316 q 189 359 176 316 q 193 384 193 370 q 149 449 193 435 q 130 452 138 452 q 72 412 87 452 q 66 384 66 399 q 113 319 66 330 q 130 316 122 316 z "},"‰":{"ha":1596,"x_min":39,"x_max":1565,"o":"m 1348 43 q 1213 142 1252 43 q 1195 251 1195 190 q 1298 449 1195 414 q 1350 457 1322 457 q 1492 327 1463 457 q 1499 250 1499 292 q 1421 65 1499 118 q 1348 43 1389 43 m 1350 509 q 1160 393 1217 509 q 1130 250 1130 334 q 1230 24 1130 91 q 1347 -9 1282 -9 q 1523 90 1461 -9 q 1565 250 1565 157 q 1449 487 1565 430 q 1350 509 1404 509 m 256 519 q 122 621 160 519 q 104 727 104 667 q 210 924 104 892 q 258 930 233 930 q 401 802 374 930 q 408 726 408 766 q 331 541 408 594 q 256 519 297 519 m 259 986 q 69 871 125 986 q 39 726 39 808 q 136 502 39 571 q 255 467 189 467 q 433 568 372 467 q 473 727 473 636 q 354 966 473 910 q 259 986 312 986 m 831 42 q 696 141 735 42 q 678 250 678 189 q 781 448 678 412 q 833 456 806 456 q 975 326 947 456 q 982 248 982 290 q 905 64 982 117 q 831 42 872 42 m 833 509 q 644 393 700 509 q 613 248 613 332 q 712 24 613 92 q 830 -11 764 -11 q 1006 88 944 -11 q 1048 248 1048 156 q 935 486 1048 426 q 833 509 890 509 m 296 -15 l 227 -14 l 792 997 l 859 997 l 296 -15 z "},"π":{"ha":720,"x_min":50,"x_max":703,"o":"m 667 620 l 667 678 l 50 678 l 50 620 l 141 620 l 141 0 l 210 0 l 209 620 l 507 620 l 507 121 q 585 -4 507 20 q 624 -9 604 -9 q 703 7 661 -9 l 685 60 q 636 47 656 47 q 578 129 579 50 l 578 620 l 667 620 z "},"+":{"ha":623,"x_min":39,"x_max":583,"o":"m 583 319 l 583 381 l 347 381 l 347 614 l 277 614 l 277 381 l 39 381 l 39 319 l 277 319 l 277 87 l 347 87 l 347 319 l 583 319 z "},"±":{"ha":658,"x_min":53,"x_max":605,"o":"m 605 34 l 605 96 l 53 96 l 53 34 l 605 34 m 605 393 l 605 456 l 365 456 l 365 667 l 294 667 l 294 456 l 53 456 l 53 393 l 294 393 l 294 182 l 365 182 l 365 393 l 605 393 z "},"∏":{"ha":842,"x_min":142,"x_max":758,"o":"m 632 857 l 604 871 l 604 770 l 537 770 l 534 741 l 557 -237 l 606 -103 l 604 770 l 758 770 l 758 861 l 632 857 m 213 -88 l 277 -88 l 277 770 l 537 770 l 545 861 l 277 859 l 277 871 l 270 857 l 256 857 l 218 859 l 213 871 l 213 859 l 142 861 l 142 770 l 213 770 l 213 -88 z "},"q":{"ha":654,"x_min":52,"x_max":545,"o":"m 52 308 q 159 34 52 118 q 288 -11 216 -11 q 475 109 408 -9 l 475 -305 l 545 -305 l 545 633 q 330 689 449 689 q 110 555 187 689 q 52 308 52 453 m 475 594 l 475 282 q 387 76 475 137 q 300 49 346 49 q 163 138 212 49 q 125 308 125 206 q 227 593 125 513 q 336 629 274 629 q 475 594 408 629 z "},"?":{"ha":587,"x_min":33,"x_max":506,"o":"m 191 202 q 182 266 182 236 q 274 426 182 349 q 332 471 293 441 q 465 591 431 543 q 506 720 506 651 q 401 929 506 856 q 256 974 335 974 q 57 873 134 974 q 33 838 43 856 l 94 810 q 236 907 138 899 q 252 909 244 909 q 395 836 343 909 q 430 719 430 785 q 340 553 430 625 q 282 511 321 538 q 157 401 190 446 q 117 264 117 342 q 127 194 117 235 l 191 202 m 224 53 q 182 111 224 103 q 170 113 175 113 q 115 66 123 113 q 114 53 114 60 q 157 -7 114 0 q 168 -8 164 -8 q 222 38 214 -8 q 224 53 224 46 z "},"¿":{"ha":587,"x_min":81,"x_max":555,"o":"m 396 479 q 406 415 406 445 q 313 255 406 332 q 255 210 294 240 q 122 90 156 138 q 81 -39 81 30 q 186 -248 81 -175 q 331 -293 252 -293 q 530 -193 453 -293 q 555 -157 544 -175 l 494 -129 q 351 -227 449 -218 q 335 -228 343 -228 q 193 -155 244 -228 q 157 -38 157 -104 q 247 127 157 56 q 305 170 266 142 q 430 279 397 235 q 471 416 471 339 q 460 487 471 446 l 396 479 m 363 628 q 406 570 363 578 q 418 568 412 568 q 472 614 464 568 q 473 628 473 621 q 430 688 473 681 q 419 689 423 689 q 365 643 373 689 q 363 628 363 635 z "},"\"":{"ha":384,"x_min":65,"x_max":321,"o":"m 144 986 l 65 986 l 79 719 l 130 719 l 144 986 m 321 986 l 243 986 l 256 719 l 308 719 l 321 986 z "},"„":{"ha":415,"x_min":38,"x_max":346,"o":"m 345 42 q 302 113 345 99 q 285 114 293 114 q 231 76 245 114 q 227 50 227 62 q 271 -9 228 5 q 213 -138 264 -65 l 241 -161 q 316 -62 288 -119 q 345 42 345 -4 m 171 42 q 129 113 171 99 q 111 114 119 114 q 57 76 72 114 q 53 50 53 62 q 98 -9 54 5 q 39 -138 91 -65 l 68 -161 q 121 -97 98 -133 q 158 -24 145 -61 q 171 42 171 12 z "},"“":{"ha":407,"x_min":69,"x_max":370,"o":"m 71 796 q 113 726 71 739 q 130 724 122 724 q 184 762 170 724 q 189 788 189 776 q 144 848 187 833 q 202 977 151 903 l 174 1000 q 75 834 96 926 q 71 796 71 814 m 237 796 q 279 726 237 739 q 297 724 289 724 q 351 762 336 724 q 355 788 355 776 q 311 848 354 833 q 369 977 317 903 l 340 1000 q 241 834 263 926 q 237 796 237 814 z "},"”":{"ha":435,"x_min":65,"x_max":366,"o":"m 365 911 q 323 982 365 968 q 305 983 313 983 q 251 945 266 983 q 247 920 247 932 q 292 860 248 875 q 233 731 285 804 l 262 708 q 361 873 339 781 q 365 911 365 894 m 198 911 q 156 982 198 968 q 138 983 146 983 q 84 945 99 983 q 80 920 80 932 q 125 860 81 875 q 66 731 118 804 l 95 708 q 194 873 172 781 q 198 911 198 894 z "},"‘":{"ha":235,"x_min":69,"x_max":203,"o":"m 71 796 q 113 726 71 739 q 130 724 122 724 q 184 762 170 724 q 189 788 189 776 q 144 848 187 833 q 202 977 151 903 l 174 1000 q 75 834 96 926 q 71 796 71 814 z "},"’":{"ha":245,"x_min":45,"x_max":179,"o":"m 178 911 q 136 982 178 968 q 118 983 127 983 q 64 945 79 983 q 60 920 60 932 q 104 860 61 875 q 46 731 98 804 l 75 708 q 174 873 152 781 q 178 911 178 894 z "},"‚":{"ha":241,"x_min":38,"x_max":172,"o":"m 171 42 q 129 113 171 99 q 111 114 119 114 q 57 76 72 114 q 53 50 53 62 q 98 -9 54 5 q 39 -138 91 -65 l 68 -161 q 121 -97 98 -133 q 158 -24 145 -61 q 171 42 171 12 z "},"'":{"ha":206,"x_min":64,"x_max":142,"o":"m 142 986 l 64 986 l 77 719 l 129 719 l 142 986 z "},"r":{"ha":395,"x_min":110,"x_max":396,"o":"m 180 0 l 180 397 q 255 594 180 532 q 339 625 293 625 q 388 617 362 625 l 396 682 q 350 689 369 689 q 191 587 250 689 q 176 559 183 574 l 175 680 l 110 680 l 110 0 l 180 0 z "},"ŕ":{"ha":395,"x_min":110,"x_max":396,"o":"m 180 0 l 180 397 q 255 594 180 532 q 339 625 293 625 q 388 617 362 625 l 396 682 q 350 689 369 689 q 191 587 250 689 q 176 559 183 574 l 175 680 l 110 680 l 110 0 l 180 0 m 363 918 l 317 977 l 123 829 l 157 781 l 363 918 z "},"√":{"ha":853,"x_min":0,"x_max":853,"o":"m 381 -163 l 666 943 l 853 943 l 853 1002 l 610 1002 l 354 -52 l 149 518 l 0 463 l 19 406 l 104 438 l 323 -163 l 381 -163 z "},"ř":{"ha":425,"x_min":49,"x_max":396,"o":"m 180 0 l 180 397 q 255 594 180 532 q 339 625 293 625 q 388 617 362 625 l 396 682 q 350 689 369 689 q 191 587 250 689 q 176 559 183 574 l 175 680 l 110 680 l 110 0 l 180 0 m 221 776 l 396 925 l 362 967 l 224 860 l 84 968 l 49 922 l 221 776 z "},"®":{"ha":1034,"x_min":60,"x_max":971,"o":"m 412 151 l 412 423 l 503 423 l 521 423 l 640 187 q 705 142 665 144 q 734 145 723 142 l 731 184 l 723 184 q 696 206 707 184 q 694 209 694 208 l 581 433 q 712 585 700 465 q 713 609 713 597 q 502 777 711 776 q 353 774 397 777 l 353 151 l 412 151 m 496 727 q 647 633 632 727 q 650 604 650 620 q 530 476 650 491 q 496 473 514 473 l 412 473 l 412 726 q 454 727 426 726 q 496 727 483 727 m 971 469 q 836 810 971 675 q 518 936 705 936 q 189 800 320 936 q 60 468 60 666 q 198 122 60 256 q 515 -3 328 -3 q 842 133 712 -4 q 971 469 971 269 m 127 469 q 254 779 127 661 q 517 880 362 880 q 799 754 688 882 q 903 468 902 637 q 780 156 903 275 q 518 53 671 53 q 229 182 342 53 q 127 469 127 298 z "},"˚":{"ha":524,"x_min":133,"x_max":392,"o":"m 392 882 q 317 1004 392 972 q 263 1015 292 1015 q 152 955 189 1015 q 133 880 133 922 q 210 757 133 787 q 260 747 235 747 q 372 806 334 747 q 392 882 392 840 m 184 880 q 235 963 184 944 q 260 968 247 968 q 331 922 311 968 q 339 880 339 902 q 285 798 339 814 q 262 793 273 793 q 193 838 213 793 q 184 880 184 859 z "},"s":{"ha":517,"x_min":52,"x_max":458,"o":"m 454 175 q 351 338 454 275 q 283 374 330 351 q 165 453 191 419 q 142 519 142 483 q 214 621 142 594 q 266 631 239 631 q 397 566 351 631 q 404 556 401 560 l 458 586 q 298 688 411 674 q 269 689 283 689 q 110 623 168 689 q 72 519 72 578 q 174 359 72 420 q 243 323 195 346 q 362 243 335 278 q 385 174 385 212 q 313 60 385 92 q 252 47 285 47 q 81 107 165 49 l 52 57 q 251 -11 142 -11 q 416 62 358 -11 q 454 175 454 110 z "},"ś":{"ha":517,"x_min":52,"x_max":458,"o":"m 454 175 q 351 338 454 275 q 283 374 330 351 q 165 453 191 419 q 142 519 142 483 q 214 621 142 594 q 266 631 239 631 q 397 566 351 631 q 404 556 401 560 l 458 586 q 298 688 411 674 q 269 689 283 689 q 110 623 168 689 q 72 519 72 578 q 174 359 72 420 q 243 323 195 346 q 362 243 335 278 q 385 174 385 212 q 313 60 385 92 q 252 47 285 47 q 81 107 165 49 l 52 57 q 251 -11 142 -11 q 416 62 358 -11 q 454 175 454 110 m 406 918 l 359 977 l 165 829 l 199 781 l 406 918 z "},"š":{"ha":543,"x_min":52,"x_max":468,"o":"m 454 175 q 351 338 454 275 q 283 374 330 351 q 165 453 191 419 q 142 519 142 483 q 214 621 142 594 q 266 631 239 631 q 397 566 351 631 q 404 556 401 560 l 458 586 q 298 688 411 674 q 269 689 283 689 q 110 623 168 689 q 72 519 72 578 q 174 359 72 420 q 243 323 195 346 q 362 243 335 278 q 385 174 385 212 q 313 60 385 92 q 252 47 285 47 q 81 107 165 49 l 52 57 q 251 -11 142 -11 q 416 62 358 -11 q 454 175 454 110 m 293 776 l 468 925 l 434 967 l 296 860 l 156 968 l 121 922 l 293 776 z "},"§":{"ha":528,"x_min":64,"x_max":464,"o":"m 133 500 q 168 587 134 552 q 281 491 184 571 q 391 354 374 415 q 395 319 395 336 q 369 233 392 266 q 248 335 345 260 q 140 460 157 406 q 133 500 133 480 m 464 326 q 355 524 464 427 q 297 572 336 540 q 182 686 206 646 q 160 757 160 722 q 233 860 160 834 q 283 868 258 868 q 387 833 343 867 l 426 876 q 285 926 365 926 q 126 859 183 926 q 90 755 90 814 q 134 628 91 686 q 64 495 65 581 q 170 307 64 396 q 228 260 189 290 q 345 151 319 191 q 368 76 368 114 q 294 -39 366 -8 q 236 -50 266 -50 q 111 -15 180 -49 l 87 -72 q 235 -110 163 -110 q 406 -30 350 -110 q 437 79 437 16 q 404 189 435 140 q 464 326 463 240 z "},";":{"ha":290,"x_min":75,"x_max":205,"o":"m 205 43 q 163 111 205 99 q 146 114 153 114 q 92 75 106 114 q 88 50 88 62 q 133 -8 91 4 q 75 -137 125 -66 l 103 -160 q 201 8 182 -85 q 205 43 205 27 m 199 446 q 157 505 199 496 q 145 506 151 506 q 91 460 99 506 q 90 446 90 453 q 133 387 90 393 q 144 385 140 385 q 198 431 190 385 q 199 446 199 439 z "},"අ":{"ha":745,"x_min":43,"x_max":701,"o":"m 557 484 q 502 496 532 484 l 502 557 q 579 712 507 647 q 616 738 600 730 q 612 708 612 723 q 635 605 612 689 q 643 559 643 575 q 557 484 640 486 m 439 -278 l 502 -278 l 502 28 q 675 146 589 60 q 682 153 681 152 l 643 197 q 545 117 581 138 q 502 95 524 104 l 502 442 q 567 430 533 430 q 697 519 677 430 q 701 555 701 537 q 675 665 701 583 q 663 723 663 703 q 685 776 665 760 l 665 815 q 494 705 560 796 q 486 693 490 699 q 358 800 454 784 q 326 803 342 803 q 191 735 237 803 q 164 640 164 694 q 197 534 164 581 q 57 373 92 486 q 43 289 43 331 q 160 57 43 137 q 349 4 240 4 q 438 12 397 4 l 439 -278 m 220 639 q 283 736 220 712 q 326 745 304 745 q 431 675 403 745 q 442 613 442 647 q 435 559 442 591 l 313 559 q 251 552 282 559 q 220 639 220 587 m 349 66 q 144 161 210 66 q 106 289 106 217 q 182 452 106 389 q 313 498 237 498 l 437 498 l 438 76 q 349 66 399 66 z "},"ආ":{"ha":1050,"x_min":43,"x_max":1016,"o":"m 557 477 q 502 490 532 477 l 502 551 q 579 705 507 640 q 616 731 600 723 q 612 701 612 716 q 636 600 612 681 q 644 552 644 568 q 557 477 636 481 m 439 -285 l 502 -285 l 502 22 q 675 140 589 53 q 682 146 681 145 l 643 190 q 545 110 581 132 q 502 88 524 98 l 502 435 q 567 423 536 423 q 697 513 677 423 q 701 548 701 530 q 675 658 701 576 q 663 716 663 696 q 686 769 665 753 l 666 808 q 494 696 559 789 q 487 685 490 690 q 357 793 453 779 q 326 796 340 796 q 191 728 237 796 q 164 633 164 688 q 197 528 164 574 q 57 366 92 479 q 43 282 43 324 q 160 50 43 130 q 349 -3 240 -3 q 438 5 397 -3 l 439 -285 m 221 632 q 285 730 221 705 q 326 738 304 738 q 431 669 403 738 q 442 606 442 640 q 435 552 442 585 l 313 552 q 251 545 283 552 q 221 632 221 583 m 349 60 q 144 156 209 60 q 107 282 107 210 q 183 446 107 385 q 313 491 239 491 l 437 491 l 438 69 q 349 60 399 60 m 736 701 l 770 658 q 827 685 791 684 q 944 510 920 685 q 952 384 952 453 q 859 88 952 127 q 827 83 842 83 q 770 110 792 84 l 736 66 q 829 19 769 19 q 983 157 935 19 q 1016 384 1016 248 q 910 720 1016 640 q 829 749 873 749 q 736 701 768 747 z "},"ඈ":{"ha":1114,"x_min":43,"x_max":1085,"o":"m 557 484 q 502 496 532 484 l 502 557 q 579 712 507 647 q 616 738 600 730 q 612 708 612 723 q 635 605 612 689 q 643 559 643 575 q 557 484 640 486 m 439 -278 l 502 -278 l 502 28 q 675 146 589 60 q 682 153 681 152 l 643 197 q 545 117 581 138 q 502 95 524 104 l 502 442 q 567 430 533 430 q 697 519 677 430 q 701 555 701 537 q 675 665 701 583 q 663 723 663 703 q 685 776 665 760 l 665 815 q 494 705 560 796 q 486 693 490 699 q 358 800 454 784 q 326 803 342 803 q 191 735 237 803 q 164 640 164 694 q 197 534 164 581 q 57 373 92 486 q 43 289 43 331 q 160 57 43 137 q 349 4 240 4 q 438 12 397 4 l 439 -278 m 220 639 q 283 736 220 712 q 326 745 304 745 q 431 675 403 745 q 442 613 442 647 q 435 559 442 591 l 313 559 q 251 552 282 559 q 220 639 220 587 m 349 66 q 144 161 210 66 q 106 289 106 217 q 182 452 106 389 q 313 498 237 498 l 437 498 l 438 76 q 349 66 399 66 m 719 214 q 838 12 719 49 q 901 4 868 4 q 1082 193 1063 4 q 1085 239 1085 216 l 1024 239 q 958 80 1024 119 q 901 65 933 65 q 784 176 799 65 q 781 214 781 195 q 865 381 781 304 q 997 445 933 444 l 1001 445 l 1001 503 l 827 503 l 1001 677 l 1001 736 l 742 736 l 742 675 l 911 675 l 742 503 l 742 445 l 846 445 q 722 254 741 366 q 719 214 719 233 z "},"ඇ":{"ha":1090,"x_min":43,"x_max":1074,"o":"m 557 484 q 502 496 532 484 l 502 557 q 579 712 507 647 q 616 738 600 730 q 612 708 612 723 q 635 605 612 689 q 643 559 643 575 q 557 484 640 486 m 439 -278 l 502 -278 l 502 28 q 675 146 589 60 q 682 153 681 152 l 643 197 q 545 117 581 138 q 502 95 524 104 l 502 442 q 567 430 533 430 q 697 519 677 430 q 701 555 701 537 q 675 665 701 583 q 663 723 663 703 q 685 776 665 760 l 665 815 q 494 705 560 796 q 486 693 490 699 q 358 800 454 784 q 326 803 342 803 q 191 735 237 803 q 164 640 164 694 q 197 534 164 581 q 57 373 92 486 q 43 289 43 331 q 160 57 43 137 q 349 4 240 4 q 438 12 397 4 l 439 -278 m 220 639 q 283 736 220 712 q 326 745 304 745 q 431 675 403 745 q 442 613 442 647 q 435 559 442 591 l 313 559 q 251 552 282 559 q 220 639 220 587 m 349 66 q 144 161 210 66 q 106 289 106 217 q 182 452 106 389 q 313 498 237 498 l 437 498 l 438 76 q 349 66 399 66 m 700 216 q 814 18 700 60 q 891 4 848 4 q 1072 191 1053 4 q 1074 239 1074 214 l 1015 239 q 954 85 1015 127 q 891 66 926 66 q 766 172 785 66 q 762 216 762 194 q 841 422 762 301 q 1010 662 848 433 q 1021 677 1016 670 l 1021 736 l 762 736 l 762 675 l 944 675 q 784 446 791 458 q 700 216 701 315 z "},"ඓ":{"ha":1286,"x_min":39,"x_max":1263,"o":"m 317 363 q 365 442 317 418 q 404 452 384 452 l 406 452 q 480 406 456 452 q 491 363 491 385 q 444 286 491 311 q 404 277 425 277 q 327 324 351 277 q 317 363 317 343 m 259 365 q 323 245 259 289 q 336 237 330 241 q 403 220 365 220 q 513 285 475 221 l 513 281 q 435 100 513 159 q 328 66 391 66 q 132 208 190 66 q 102 380 102 281 q 191 643 102 544 q 353 719 260 718 q 517 631 448 718 l 566 669 q 353 781 480 776 q 114 647 205 781 q 39 380 39 533 q 160 60 39 157 q 328 4 231 4 q 540 133 476 4 q 572 279 572 199 q 480 491 572 438 q 404 511 445 511 q 285 448 328 511 q 259 365 259 408 m 1126 718 q 1006 774 1042 718 q 993 818 993 796 q 1027 925 993 860 q 1043 967 1040 952 q 1164 722 1126 867 q 1126 718 1146 718 m 932 818 q 1006 693 932 741 q 1127 661 1059 661 q 1177 665 1153 661 q 1199 464 1199 564 q 1044 98 1199 180 q 918 68 989 68 q 697 201 746 68 q 682 283 682 241 q 749 449 682 396 q 814 472 780 472 l 986 472 q 990 521 990 518 q 895 694 990 648 q 817 712 859 712 q 684 644 724 712 q 665 568 665 610 q 670 529 665 552 l 602 529 l 602 472 l 694 472 q 620 279 623 407 q 708 71 620 148 q 918 4 787 4 q 1223 217 1143 4 q 1263 464 1263 320 q 1139 930 1263 724 q 997 1096 1077 1032 l 960 1051 q 975 1039 971 1043 q 993 1001 993 1023 q 963 928 993 983 q 932 818 932 867 m 720 567 q 787 652 720 637 q 817 656 802 656 q 922 585 895 656 q 933 528 932 559 l 728 529 q 720 567 720 547 z "},"ඖ":{"ha":1196,"x_min":43,"x_max":1153,"o":"m 43 340 q 151 18 43 69 q 213 4 179 4 q 365 119 330 4 q 372 149 369 134 q 468 15 388 46 q 530 4 498 4 q 707 176 671 4 q 722 397 722 252 q 475 998 722 913 q 357 1017 420 1017 q 151 932 237 1017 q 87 837 107 888 l 146 815 q 267 935 178 897 q 357 954 312 954 q 642 633 589 954 q 658 397 658 532 q 616 118 658 184 q 530 68 585 69 q 404 244 422 68 q 400 309 401 271 l 343 309 q 281 90 339 137 q 214 68 252 68 q 106 304 111 68 q 106 343 106 321 q 170 635 106 574 q 210 652 189 652 q 277 567 274 647 q 274 529 277 552 q 273 503 273 513 q 349 384 273 404 q 384 380 365 380 q 496 545 496 381 q 403 709 496 694 q 384 711 393 711 q 305 669 331 709 q 209 711 269 711 q 54 492 88 711 q 43 340 43 423 m 332 581 q 330 608 332 590 q 384 654 345 652 q 439 545 439 652 q 384 438 438 441 q 330 507 331 439 q 331 551 330 519 q 332 581 332 574 m 770 479 q 878 334 773 335 q 951 392 939 334 q 956 425 954 403 q 982 491 962 479 q 1006 496 993 496 q 1092 301 1092 495 q 979 64 1090 65 q 959 66 968 64 q 941 71 949 68 q 928 78 933 75 q 918 87 922 81 q 910 96 913 94 q 903 104 907 98 l 899 111 l 853 79 q 894 31 879 42 q 982 4 930 4 q 1153 301 1152 7 q 1023 557 1153 544 q 1006 559 1013 559 q 935 533 959 559 q 909 476 911 507 q 901 419 907 445 q 880 393 895 393 q 829 481 829 395 q 890 625 829 602 q 941 633 913 633 l 941 690 q 788 604 821 690 q 770 479 770 556 z "},"බ":{"ha":757,"x_min":43,"x_max":715,"o":"m 43 298 q 213 4 45 5 q 328 75 289 5 q 486 4 378 4 q 712 312 690 4 q 715 397 715 353 q 468 998 715 913 q 350 1017 414 1017 q 142 932 229 1017 q 80 837 99 888 l 140 815 q 258 933 170 895 q 350 954 304 954 q 635 633 582 954 q 651 397 651 532 q 519 71 651 102 q 484 66 502 66 q 366 146 389 66 q 359 193 359 168 q 403 317 359 250 q 453 430 446 384 q 456 463 456 445 q 267 659 453 658 q 57 449 99 659 q 43 298 43 382 m 213 65 q 106 298 106 68 q 237 594 106 564 q 267 597 252 597 q 393 463 392 594 q 351 345 393 410 q 300 225 307 275 q 298 193 298 209 q 302 144 298 165 q 225 66 278 75 q 213 65 218 65 z "},"භ":{"ha":886,"x_min":43,"x_max":844,"o":"m 612 65 q 513 123 547 66 q 532 216 532 165 q 460 353 532 327 q 429 358 445 358 q 454 494 452 406 q 548 718 457 684 q 601 726 571 726 q 766 562 731 726 q 781 396 781 492 q 612 65 780 66 m 321 326 l 346 278 q 377 296 368 289 q 415 308 397 308 q 468 235 463 308 q 469 217 469 225 q 400 88 469 127 q 311 66 362 66 q 142 171 191 66 q 121 281 121 220 q 129 358 121 317 q 260 491 161 490 l 395 492 q 321 326 388 366 m 58 274 q 165 45 58 115 q 311 4 228 4 q 477 68 418 5 q 612 3 525 4 q 844 396 842 5 q 654 784 844 747 q 601 788 628 788 q 431 689 481 787 q 286 800 395 788 q 260 802 274 802 q 125 732 170 802 q 99 639 99 692 q 121 549 99 590 l 43 549 l 43 492 l 125 492 q 68 366 87 457 q 58 274 58 320 m 157 637 q 224 735 157 713 q 262 742 243 742 q 377 673 347 742 q 388 612 388 646 q 387 578 388 601 q 387 549 387 557 l 183 549 q 157 637 157 587 z "},"ච":{"ha":712,"x_min":43,"x_max":670,"o":"m 61 279 q 145 71 61 146 q 342 4 220 4 q 642 251 570 4 q 670 480 669 349 q 339 1017 669 1016 q 146 936 227 1017 q 83 837 106 894 l 142 815 q 263 939 176 905 q 339 954 300 954 q 604 480 602 951 q 435 85 604 157 q 342 68 392 68 q 136 201 182 68 q 122 283 122 240 q 189 449 122 396 q 254 472 220 472 l 426 472 q 430 521 430 495 q 335 694 430 650 q 258 712 300 712 q 125 644 165 712 q 106 568 106 610 q 111 529 106 552 l 43 529 l 43 472 l 136 472 q 61 279 64 407 m 161 567 q 228 652 161 637 q 258 656 243 656 q 362 585 335 656 q 373 528 372 559 l 168 529 q 161 567 161 548 z "},"ඡ":{"ha":810,"x_min":43,"x_max":776,"o":"m 519 548 l 419 548 l 419 612 q 496 738 419 712 q 536 745 515 745 q 646 655 613 745 q 659 574 659 616 q 654 506 659 534 q 519 548 600 548 m 499 320 q 423 378 438 320 q 420 403 420 391 q 467 486 420 464 q 469 487 468 487 l 518 487 q 635 437 591 486 q 525 323 595 340 q 499 320 511 320 m 106 304 q 184 468 106 423 q 264 487 220 487 l 388 487 q 361 401 361 449 q 420 285 361 323 q 498 264 454 264 q 667 372 606 266 q 677 304 677 342 q 560 95 677 163 q 392 54 488 54 q 151 160 227 54 q 106 304 106 221 m 43 304 q 175 49 43 134 q 392 -11 264 -11 q 675 109 581 -11 q 741 304 741 190 q 700 454 739 392 q 715 575 715 513 q 636 770 715 712 q 629 776 632 774 q 770 997 749 905 q 776 1053 776 1025 l 713 1053 q 621 854 713 963 q 570 799 598 829 q 536 802 548 802 q 392 724 438 800 q 247 802 343 800 q 111 734 157 802 q 85 640 85 693 q 134 509 87 564 q 43 304 45 441 m 141 639 q 206 736 141 712 q 248 745 227 745 q 353 674 326 745 q 363 612 363 646 l 363 548 l 263 548 q 183 534 217 548 q 141 639 142 578 z "},"ද":{"ha":571,"x_min":43,"x_max":613,"o":"m 220 639 q 283 736 220 712 q 326 745 304 745 q 431 675 403 745 q 442 613 442 647 q 435 559 442 591 l 313 559 q 251 552 282 559 q 220 639 220 587 m 43 289 q 159 53 43 134 q 252 11 202 23 q 232 -77 232 -28 q 304 -228 232 -172 q 415 -263 353 -263 q 605 -156 534 -263 q 613 -142 609 -148 l 564 -107 q 415 -202 510 -201 q 309 -138 343 -202 q 294 -75 294 -109 q 316 4 296 -27 l 317 4 q 526 102 446 4 q 544 125 536 113 l 494 161 q 319 69 425 73 q 152 148 214 69 q 106 289 106 206 q 182 452 106 389 q 313 498 237 498 l 479 498 q 499 612 499 553 q 404 785 499 739 q 326 803 368 803 q 191 735 237 803 q 164 640 164 694 q 197 534 164 581 q 57 373 92 486 q 43 289 43 331 z "},"ඩ":{"ha":766,"x_min":43,"x_max":723,"o":"m 45 245 q 149 16 45 62 q 216 4 180 4 q 366 119 331 4 q 373 149 370 134 q 514 5 399 15 q 532 4 524 4 q 708 176 673 4 q 723 397 723 252 q 488 994 723 902 q 359 1017 430 1017 q 152 932 239 1017 q 90 837 109 888 l 148 815 q 269 935 179 895 q 359 954 313 954 q 639 658 582 954 q 659 397 659 548 q 617 118 659 184 q 532 68 586 69 q 407 237 426 68 q 403 309 404 266 l 346 309 q 290 96 339 146 q 216 68 260 68 q 109 205 122 68 q 107 245 107 225 q 183 453 107 403 q 248 472 212 472 l 435 472 q 441 521 441 502 q 346 694 441 648 q 267 712 309 712 q 134 644 175 712 q 115 568 115 610 q 121 528 115 553 l 43 528 l 43 472 l 113 472 q 47 296 60 427 q 45 245 45 270 m 171 567 q 237 652 171 637 q 267 656 252 656 q 373 585 346 656 q 382 528 381 559 l 178 528 q 171 567 171 549 z "},"ඪ":{"ha":761,"x_min":38,"x_max":726,"o":"m 585 718 q 465 774 500 718 q 452 818 452 796 q 486 926 452 860 q 502 966 499 952 q 617 720 579 869 q 585 718 595 718 m 392 818 q 468 693 392 739 q 587 661 519 661 q 631 665 609 661 q 662 350 662 525 q 617 110 662 168 q 526 68 583 68 q 401 247 418 68 q 397 309 399 273 l 340 309 q 285 96 334 145 q 212 68 255 68 q 103 209 115 68 q 102 245 102 227 q 178 453 102 403 q 243 472 206 472 l 431 472 q 435 521 435 495 q 340 694 435 648 q 262 712 304 712 q 132 644 171 712 q 111 568 111 610 q 117 528 111 553 l 38 528 l 38 472 l 107 472 q 42 300 57 429 q 39 245 39 273 q 144 16 39 62 q 210 4 175 4 q 366 137 335 4 q 369 149 368 144 q 476 11 387 37 q 526 4 500 4 q 712 165 677 4 q 726 350 726 231 q 568 979 726 753 q 457 1096 518 1050 l 419 1051 q 426 1044 422 1050 q 434 1039 431 1040 q 453 1001 453 1021 q 423 928 453 983 q 392 818 392 868 m 165 567 q 229 652 165 635 q 262 656 245 656 q 368 585 340 656 q 378 528 377 559 l 172 528 q 165 567 165 547 z "},"ධ":{"ha":768,"x_min":42,"x_max":727,"o":"m 42 293 q 79 473 42 393 q 227 608 132 589 q 256 610 241 610 q 338 589 297 609 l 312 533 q 258 548 282 548 q 140 454 186 548 q 134 445 137 449 q 106 293 106 378 q 172 83 106 132 q 220 68 194 68 q 345 247 328 68 q 349 309 347 273 l 406 309 q 461 96 412 145 q 534 68 491 68 q 656 247 637 68 q 662 397 662 304 q 452 940 662 868 q 362 954 410 954 q 194 882 263 954 q 152 815 165 850 l 92 837 q 235 987 129 937 q 362 1017 297 1017 q 703 681 635 1017 q 727 397 727 560 q 684 92 727 176 q 534 4 636 5 q 382 123 415 4 q 377 149 378 137 q 236 5 351 15 q 218 4 227 4 q 53 175 90 4 q 42 293 42 229 z "},"එ":{"ha":727,"x_min":43,"x_max":703,"o":"m 567 718 q 448 774 483 718 q 434 818 434 796 q 468 926 434 860 q 484 966 481 952 q 605 722 568 864 q 567 718 589 718 m 373 818 q 449 693 373 739 q 568 661 500 661 q 618 665 593 661 q 640 464 640 564 q 486 98 640 180 q 359 68 430 68 q 137 199 187 68 q 122 283 122 240 q 189 449 122 396 q 254 472 220 472 l 426 472 q 430 521 430 495 q 335 694 430 650 q 258 712 300 712 q 125 644 165 712 q 106 568 106 610 q 111 529 106 552 l 43 529 l 43 472 l 136 472 q 61 279 64 407 q 149 71 61 148 q 359 4 228 4 q 666 222 586 4 q 703 464 703 324 q 579 932 703 726 q 438 1096 518 1032 l 401 1051 q 418 1038 412 1043 q 434 1001 434 1020 q 404 928 434 983 q 373 818 373 868 m 161 567 q 228 652 161 637 q 258 656 243 656 q 362 585 335 656 q 373 528 372 559 l 168 529 q 161 567 161 548 z "},"ඒ":{"ha":727,"x_min":43,"x_max":838,"o":"m 699 913 q 670 916 685 913 l 670 1118 l 674 1118 q 776 1062 758 1118 q 783 1016 783 1042 q 699 913 777 917 m 618 1171 q 620 943 618 1169 q 624 818 620 914 q 570 940 610 873 q 438 1096 514 1032 l 401 1051 q 418 1038 412 1043 q 434 1001 434 1020 q 404 928 434 983 q 373 818 373 868 q 449 693 373 739 q 568 661 500 661 q 618 665 593 661 q 640 464 640 564 q 486 98 640 180 q 359 68 430 68 q 137 199 187 68 q 122 283 122 240 q 189 449 122 396 q 254 472 220 472 l 426 472 q 430 521 430 495 q 335 694 430 650 q 258 712 300 712 q 125 644 165 712 q 106 568 106 610 q 111 529 106 552 l 43 529 l 43 472 l 136 472 q 61 279 64 407 q 149 71 61 148 q 359 4 228 4 q 666 222 586 4 q 703 464 703 324 q 675 690 703 578 l 675 859 q 700 857 685 857 q 829 949 802 857 q 838 1016 838 979 q 675 1171 831 1169 l 618 1171 m 567 718 q 448 774 483 718 q 434 818 434 796 q 468 926 434 860 q 484 966 481 952 q 605 722 568 864 q 567 718 589 718 m 161 567 q 228 652 161 637 q 258 656 243 656 q 362 585 335 656 q 373 528 372 559 l 168 529 q 161 567 161 548 z "},"ෆ":{"ha":777,"x_min":43,"x_max":736,"o":"m 43 396 q 115 751 43 667 q 231 802 160 802 q 382 686 347 802 q 389 656 387 671 q 530 800 415 791 q 548 802 540 802 q 723 602 689 802 q 736 396 736 522 q 460 4 734 5 l 460 68 q 674 396 673 71 q 548 738 673 736 q 422 562 439 738 q 418 496 419 534 l 361 496 q 300 715 357 667 q 231 738 270 738 q 106 420 110 738 q 106 396 106 408 q 320 68 109 69 l 320 4 q 43 396 45 7 z "},"ග":{"ha":867,"x_min":43,"x_max":825,"o":"m 593 66 q 492 127 525 68 q 514 239 514 179 q 452 388 514 336 q 419 407 435 401 q 438 500 438 446 l 438 541 q 509 705 438 658 q 581 726 541 726 q 746 562 711 726 q 761 396 761 492 q 593 66 760 68 m 308 378 l 331 330 q 384 361 359 340 q 448 281 431 350 q 452 237 452 259 q 382 90 452 134 q 297 66 346 66 q 106 377 107 69 q 275 726 107 724 q 377 661 346 726 q 388 631 385 647 q 376 545 376 591 q 376 530 376 541 q 377 506 377 515 q 308 378 376 411 m 43 377 q 297 4 45 5 q 456 69 400 5 q 593 4 503 5 q 825 396 823 7 q 628 784 825 751 q 581 788 605 788 q 422 705 483 787 q 275 788 376 787 q 43 393 47 788 q 43 377 43 385 z "},"ඝ":{"ha":789,"x_min":43,"x_max":747,"o":"m 567 551 l 430 551 l 430 612 q 507 738 430 712 q 547 745 526 745 q 640 692 612 745 q 652 639 652 667 q 618 543 651 585 q 567 551 593 551 m 119 259 q 195 467 119 416 q 260 486 224 486 l 563 486 q 682 313 666 486 q 685 259 685 288 q 612 73 685 115 q 562 61 589 61 q 506 102 519 61 q 502 125 502 114 q 519 190 502 146 q 529 235 529 213 q 403 330 524 328 q 277 235 285 316 q 293 170 277 214 q 302 125 302 146 q 263 65 302 79 q 243 61 254 61 q 129 171 157 61 q 119 259 119 212 m 57 266 q 152 30 57 91 q 243 4 191 4 q 347 66 315 4 q 361 123 361 94 q 342 201 361 149 q 335 231 335 218 q 403 275 338 275 q 469 231 468 273 q 453 176 469 220 q 444 123 444 149 q 500 20 444 54 q 562 4 529 4 q 730 141 688 4 q 747 266 747 197 q 674 507 747 434 q 665 515 669 513 q 708 640 708 571 q 624 784 708 742 q 547 802 587 802 q 403 724 449 800 q 258 802 354 800 q 122 734 168 802 q 96 640 96 693 q 119 551 96 591 l 43 551 l 43 492 l 125 492 q 60 320 75 449 q 57 266 57 292 m 152 639 q 217 736 152 712 q 259 745 237 745 q 363 674 336 745 q 374 612 374 646 l 374 551 l 180 551 q 152 639 152 589 z "},"හ":{"ha":860,"x_min":43,"x_max":817,"o":"m 585 65 q 486 123 519 66 q 505 216 505 165 q 435 353 505 326 q 400 358 418 358 q 427 494 425 407 q 521 718 430 684 q 574 726 544 726 q 743 541 711 726 q 754 396 754 479 q 585 65 753 66 m 293 326 l 317 278 q 349 296 339 289 q 388 308 369 308 q 441 243 431 308 q 442 217 442 231 q 373 88 442 127 q 283 66 335 66 q 110 222 136 66 q 104 286 104 252 q 179 479 104 439 q 228 491 201 491 l 366 491 q 293 326 359 365 m 43 285 q 170 28 43 92 q 283 4 220 4 q 450 68 391 5 q 585 3 498 4 q 817 396 815 5 q 616 785 817 755 q 574 788 595 788 q 404 692 453 787 q 274 799 370 784 q 243 802 258 802 q 109 735 155 802 q 81 640 81 694 q 125 515 83 570 q 43 285 43 444 m 138 639 q 203 738 138 713 q 244 745 224 745 q 349 674 321 745 q 359 612 359 646 l 359 551 l 222 551 q 172 543 194 551 q 138 639 138 583 z "},"්":{"ha":1,"x_min":-144,"x_max":77,"o":"m -64 913 q -92 916 -77 913 l -92 1118 l -85 1118 q 22 1016 20 1114 q -64 913 12 920 m -144 1171 l -144 623 l -85 623 l -85 859 q -62 857 -76 857 q 66 945 37 857 q 77 1016 77 977 q -85 1171 71 1169 l -144 1171 z "},"ඉ":{"ha":697,"x_min":43,"x_max":655,"o":"m 140 -182 q 309 -273 213 -271 q 465 -189 416 -273 q 490 -91 490 -144 q 419 50 490 12 q 401 57 410 54 q 625 263 564 107 q 655 433 655 340 q 494 766 655 680 q 339 802 425 802 q 90 671 171 802 q 43 505 43 595 q 95 317 45 389 q 224 237 140 245 q 240 236 232 236 q 380 308 330 236 q 411 407 411 353 q 345 543 410 491 q 244 576 301 576 q 107 494 148 576 q 102 483 104 488 q 100 509 100 492 q 183 688 100 620 q 339 739 248 739 q 549 620 483 739 q 591 433 591 544 q 435 140 591 227 q 269 96 358 96 l 270 35 q 302 34 293 35 q 427 -73 419 26 q 427 -91 427 -83 q 365 -198 427 -167 q 307 -210 338 -210 q 187 -145 237 -209 l 140 -182 m 129 406 q 186 503 129 472 q 240 517 212 517 q 336 461 304 517 q 351 406 351 435 q 297 311 351 343 q 240 294 270 294 q 144 350 175 294 q 129 406 129 377 z "},"ඊ":{"ha":675,"x_min":56,"x_max":659,"o":"m 557 997 q 590 951 557 963 q 609 947 600 947 q 655 978 642 947 q 659 997 659 987 q 628 1044 659 1032 q 609 1048 617 1048 q 560 1015 572 1048 q 557 997 557 1005 m 227 997 q 258 951 227 964 q 277 947 267 947 q 326 981 313 947 q 330 1000 330 990 q 296 1046 330 1035 q 279 1048 288 1048 q 229 1015 241 1048 q 227 997 227 1005 m 56 354 q 170 56 56 151 q 339 -1 240 -1 q 576 146 499 -1 q 625 370 625 241 q 586 566 625 483 q 385 712 521 703 q 369 712 376 712 q 274 696 315 712 q 463 924 420 844 q 494 1048 494 986 l 431 1048 q 336 848 431 958 q 233 739 301 807 q 56 354 58 556 m 119 354 q 183 564 119 477 q 362 652 251 651 q 530 534 476 652 q 562 369 562 464 q 471 113 562 197 q 339 62 415 62 q 149 191 205 62 q 119 354 119 262 z "},"ජ":{"ha":810,"x_min":43,"x_max":776,"o":"m 519 548 l 419 548 l 419 612 q 496 738 419 712 q 536 745 515 745 q 629 692 601 745 q 642 639 642 667 q 600 534 640 576 q 519 548 566 548 m 106 304 q 184 468 106 423 q 264 487 220 487 l 518 487 q 663 385 627 487 q 677 304 677 347 q 560 95 677 163 q 392 54 488 54 q 151 160 227 54 q 106 304 106 221 m 43 304 q 175 49 43 134 q 392 -11 264 -11 q 675 109 581 -11 q 741 304 741 190 q 650 509 738 444 q 697 640 697 566 q 628 774 696 731 q 770 1001 750 906 q 776 1053 776 1027 l 713 1053 q 620 854 713 962 q 568 799 598 829 q 536 802 547 802 q 392 724 438 800 q 247 802 343 800 q 111 734 157 802 q 85 640 85 693 q 134 509 87 564 q 43 304 45 441 m 141 639 q 206 736 141 712 q 248 745 227 745 q 353 674 326 745 q 363 612 363 646 l 363 548 l 263 548 q 183 534 217 548 q 141 639 142 578 z "},"ඣ":{"ha":1381,"x_min":43,"x_max":1339,"o":"m 655 293 q 743 33 655 99 q 830 4 781 4 q 982 119 947 4 q 989 149 986 134 q 1085 15 1005 46 q 1147 4 1115 4 q 1324 176 1289 4 q 1339 397 1339 252 q 1092 998 1339 913 q 974 1017 1038 1017 q 766 932 853 1017 q 704 837 723 888 l 764 815 q 882 933 793 895 q 974 954 928 954 q 1259 633 1206 954 q 1275 397 1275 532 q 1233 118 1275 184 q 1147 68 1202 69 q 1021 244 1039 68 q 1017 309 1019 270 l 960 309 q 911 103 954 153 q 831 68 880 68 q 723 212 746 68 q 718 293 718 251 q 747 445 718 381 q 856 547 788 537 q 869 548 863 548 q 925 533 897 547 l 951 589 q 868 610 909 610 q 849 609 856 610 q 614 779 777 768 q 595 779 604 779 q 374 667 480 777 q 258 795 351 769 q 208 802 233 802 q 72 734 118 802 q 46 640 46 693 q 168 460 46 513 q 197 449 183 453 l 43 258 l 73 205 q 84 209 80 209 q 99 172 99 206 q 98 152 99 165 q 98 138 98 142 q 214 4 100 5 q 320 69 293 4 q 327 102 326 87 q 381 19 332 47 q 442 4 408 4 q 601 217 583 4 q 602 269 602 243 q 463 567 602 519 q 403 576 434 576 q 376 574 391 576 q 384 585 384 585 q 595 715 488 713 q 788 593 724 715 q 789 589 789 590 q 692 473 727 552 q 655 293 655 397 m 439 66 q 357 216 357 69 l 357 240 l 298 240 l 298 216 q 214 66 294 68 q 151 152 152 69 q 151 163 151 155 q 152 180 152 174 q 123 262 151 256 q 308 488 132 271 q 396 518 345 518 q 526 395 492 518 q 540 269 540 340 q 439 66 538 69 m 102 639 q 165 736 102 712 q 208 745 186 745 q 312 675 283 745 q 323 612 323 648 l 323 606 l 232 492 q 102 639 103 524 z "},"ඥ":{"ha":1295,"x_min":42,"x_max":1340,"o":"m 959 -77 q 1034 -228 959 -174 q 1143 -263 1082 -263 q 1340 -142 1270 -262 l 1291 -107 q 1143 -202 1237 -201 q 1036 -138 1070 -202 q 1021 -75 1021 -109 q 1043 4 1023 -27 l 1044 4 q 1257 107 1177 4 q 1271 125 1265 117 l 1221 161 q 1046 69 1152 73 q 880 148 943 69 q 834 289 834 208 q 910 453 834 392 q 1040 498 966 498 l 1206 498 q 1226 612 1226 553 q 1131 785 1226 741 q 1054 803 1096 803 q 917 734 963 803 q 914 730 916 731 q 774 788 865 788 q 623 705 678 787 q 476 788 576 787 q 321 716 377 787 q 210 787 288 785 q 64 617 104 787 q 42 385 42 525 q 203 7 43 27 l 203 69 q 121 198 148 77 q 104 385 104 275 q 176 712 104 652 q 210 724 193 724 q 286 652 273 722 q 244 377 244 549 q 498 4 245 5 q 693 129 640 4 q 715 239 715 180 q 654 388 715 336 q 620 407 637 401 q 639 500 639 446 l 639 541 q 707 707 639 661 q 774 726 736 726 q 878 677 845 726 q 891 646 888 662 l 891 640 q 924 534 891 581 q 784 373 819 486 q 770 289 770 331 q 886 53 770 134 q 981 11 929 23 q 959 -77 959 -28 m 948 639 q 1012 736 948 712 q 1054 745 1032 745 q 1157 677 1130 745 q 1169 613 1169 648 q 1162 559 1169 591 l 1040 559 q 978 552 1010 559 q 948 639 948 590 m 510 378 l 532 330 q 585 361 563 342 q 650 275 636 350 q 652 237 652 256 q 583 90 652 134 q 498 66 547 66 q 308 377 309 69 q 476 726 309 724 q 578 663 545 726 q 589 629 586 646 q 578 545 578 587 q 578 506 578 543 q 510 378 576 411 z "},"ක":{"ha":935,"x_min":43,"x_max":892,"o":"m 43 258 l 73 205 q 84 209 80 209 q 99 172 99 206 q 98 152 99 165 q 98 138 98 142 q 214 4 100 5 q 320 68 293 4 q 328 102 327 85 q 378 20 332 49 q 442 4 406 4 q 555 60 513 5 q 682 4 598 4 q 892 369 891 7 q 732 770 892 678 q 610 802 677 802 q 374 669 495 800 q 260 793 353 766 q 208 802 235 802 q 73 735 119 802 q 46 640 46 694 q 168 460 46 513 q 197 449 183 453 l 43 258 m 682 65 q 585 125 606 66 q 604 269 604 186 q 465 566 604 515 q 403 576 435 576 q 376 574 391 576 q 384 585 384 585 q 544 727 477 699 q 608 739 576 739 q 795 593 738 739 q 829 369 829 503 q 718 71 829 110 q 682 65 700 65 m 441 66 q 357 216 359 69 l 357 240 l 298 240 l 298 216 q 216 66 297 68 q 152 152 153 69 l 152 180 q 125 262 151 258 q 307 487 146 288 q 396 518 347 518 q 526 399 491 518 q 541 269 541 343 q 441 66 540 69 m 103 639 q 168 738 103 713 q 208 745 187 745 q 313 674 286 745 q 324 612 324 646 l 324 608 l 232 492 q 103 639 104 524 z "},"ඛ":{"ha":757,"x_min":43,"x_max":715,"o":"m 205 65 q 106 298 106 68 q 237 594 106 564 q 267 597 252 597 q 389 513 372 597 q 393 463 393 491 q 355 340 393 410 q 321 270 331 296 q 294 134 298 205 q 205 65 259 66 m 43 298 q 201 4 45 5 q 296 42 258 5 q 312 -79 301 -27 l 374 -76 q 354 99 354 0 q 358 170 354 140 q 366 146 361 163 q 378 113 374 123 q 480 9 412 27 q 529 4 502 4 q 715 380 711 4 q 715 397 715 389 q 468 998 715 913 q 350 1017 414 1017 q 142 932 229 1017 q 80 837 99 888 l 140 815 q 258 933 170 895 q 350 954 304 954 q 635 633 582 954 q 651 397 651 532 q 583 100 651 183 q 526 69 557 71 q 426 138 458 69 q 422 146 423 142 q 406 187 416 159 q 378 250 389 231 q 385 267 381 258 q 412 319 393 286 q 456 444 452 385 q 456 463 456 453 q 336 652 456 623 q 267 659 305 659 q 57 449 99 659 q 43 298 43 382 z "},"ල":{"ha":774,"x_min":43,"x_max":732,"o":"m 43 282 q 190 -130 43 -7 q 401 -203 277 -203 q 684 -49 598 -203 q 720 46 709 -4 l 659 57 q 536 -107 632 -54 q 401 -140 476 -140 q 151 34 227 -140 q 107 282 107 137 q 212 647 107 522 q 407 738 290 736 q 613 632 538 738 q 669 450 669 553 q 545 202 669 235 q 502 197 525 197 q 406 252 439 197 q 389 312 389 281 q 453 423 389 385 q 511 445 479 439 l 511 506 l 288 506 l 288 448 l 407 448 q 327 309 334 397 q 396 164 327 214 q 502 133 441 133 q 707 285 650 133 q 732 450 732 358 q 643 700 732 598 q 407 802 553 802 q 88 564 175 802 q 43 282 43 444 z "},"ළ":{"ha":736,"x_min":43,"x_max":694,"o":"m 43 180 q 151 -118 43 -9 q 374 -205 237 -205 q 663 -42 578 -205 q 694 45 684 -1 l 632 54 q 510 -109 605 -56 q 374 -141 449 -141 q 146 1 217 -141 q 107 180 107 80 q 201 422 107 346 q 225 439 213 433 q 214 384 214 416 q 307 233 214 278 q 419 212 354 212 q 598 296 551 212 q 617 365 617 328 l 556 365 q 476 278 556 297 q 418 271 450 271 q 278 351 302 271 q 273 387 273 368 q 304 461 275 446 l 639 461 q 658 608 658 541 q 575 793 658 758 q 532 802 555 802 q 425 718 448 800 q 309 802 397 800 q 183 697 210 802 q 176 636 176 669 q 220 505 178 551 q 71 336 118 458 q 43 180 43 266 m 290 522 q 241 590 258 522 q 236 633 236 613 q 283 735 236 713 q 309 741 296 741 q 388 663 372 741 q 393 631 392 648 q 396 586 396 601 l 396 522 l 300 522 l 290 522 m 593 522 l 452 522 l 452 586 q 453 631 452 614 q 530 741 464 739 q 602 617 601 738 q 593 522 602 574 z "},"ම":{"ha":730,"x_min":43,"x_max":688,"o":"m 362 366 q 296 444 301 366 q 294 468 294 454 q 300 528 294 486 q 307 597 307 575 q 304 628 307 610 q 355 651 321 651 q 419 589 400 651 q 429 522 429 559 q 362 366 423 373 m 43 397 q 142 91 43 198 q 359 4 224 4 q 659 248 589 4 q 688 480 688 347 q 357 1017 686 1016 q 168 939 247 1017 q 102 837 125 895 l 160 815 q 283 940 195 907 q 357 954 320 954 q 623 480 621 951 q 450 84 623 153 q 359 68 408 68 q 123 252 180 68 q 103 397 103 320 q 199 647 104 646 q 251 587 250 644 q 244 526 251 568 q 239 467 239 484 q 362 311 241 312 q 484 522 484 312 q 400 699 484 665 q 357 707 378 707 q 279 678 311 705 q 199 704 252 704 q 52 515 80 704 q 43 397 43 463 z "},"ා":{"ha":323,"x_min":1,"x_max":281,"o":"m 1 703 q 94 750 35 749 q 248 612 199 750 q 281 385 281 521 q 174 46 281 125 q 94 20 137 20 q 1 66 34 22 l 35 111 q 92 83 57 84 q 209 254 183 83 q 217 385 217 312 q 123 681 217 642 q 92 686 107 686 q 35 658 57 685 l 1 703 z "},"ෑ":{"ha":406,"x_min":0,"x_max":365,"o":"m 0 214 q 119 12 0 49 q 182 4 149 4 q 362 191 343 4 q 365 239 365 214 l 305 239 q 239 80 305 119 q 180 65 213 65 q 65 167 84 65 q 61 214 61 190 q 145 381 61 304 q 278 445 214 444 l 282 445 l 282 503 l 109 503 l 282 677 l 282 736 l 23 736 l 23 675 l 193 675 l 23 503 l 23 445 l 127 445 q 3 254 22 366 q 0 214 0 233 z "},"ැ":{"ha":380,"x_min":0,"x_max":374,"o":"m 0 216 q 114 18 0 60 q 191 4 148 4 q 372 191 353 4 q 374 239 374 214 l 313 239 q 251 83 313 123 q 191 66 225 66 q 66 172 85 66 q 62 216 62 194 q 141 422 62 301 q 311 662 148 433 q 321 677 316 670 l 321 736 l 62 736 l 62 675 l 244 675 q 84 446 91 458 q 0 216 1 315 z "},"ෛ":{"ha":1158,"x_min":33,"x_max":1152,"o":"m 311 363 q 358 442 311 418 q 397 452 377 452 l 399 452 q 473 406 449 452 q 484 363 484 385 q 437 286 484 311 q 397 277 418 277 q 320 324 345 277 q 311 363 311 343 m 251 365 q 313 247 251 292 q 330 237 323 241 q 396 220 358 220 q 502 279 465 220 q 506 286 505 283 l 506 281 q 429 100 506 159 q 321 66 384 66 q 125 208 183 66 q 95 380 95 281 q 184 643 95 544 q 346 719 252 718 q 510 631 438 718 l 557 669 q 346 781 477 780 q 107 647 198 781 q 33 380 33 533 q 153 60 33 157 q 321 4 224 4 q 532 132 467 4 q 566 279 566 199 q 473 491 566 438 q 397 511 438 511 q 277 448 321 511 q 251 365 251 410 m 897 363 q 944 442 897 418 q 983 452 963 452 l 985 452 q 1059 406 1035 452 q 1070 363 1070 385 q 1023 286 1070 311 q 983 277 1004 277 q 906 324 930 277 q 897 363 897 343 m 837 365 q 899 247 837 292 q 916 237 909 241 q 982 220 944 220 q 1088 279 1051 220 q 1092 286 1090 283 l 1092 281 q 1015 100 1092 159 q 907 66 970 66 q 711 208 769 66 q 681 380 681 281 q 770 643 681 544 q 932 719 838 718 q 1096 631 1024 718 l 1143 669 q 932 781 1063 780 q 693 647 784 781 q 618 380 618 533 q 739 60 618 157 q 907 4 810 4 q 1118 132 1053 4 q 1152 279 1152 199 q 1059 491 1152 438 q 983 511 1024 511 q 863 448 907 511 q 837 365 837 410 z "},"ෞ":{"ha":1195,"x_min":33,"x_max":1114,"o":"m 311 363 q 358 442 311 418 q 397 452 377 452 l 399 452 q 473 406 449 452 q 484 363 484 385 q 437 286 484 311 q 397 277 418 277 q 320 324 345 277 q 311 363 311 343 m 251 365 q 313 247 251 292 q 330 237 323 241 q 396 220 358 220 q 502 279 465 220 q 506 286 505 283 l 506 281 q 429 100 506 159 q 321 66 384 66 q 125 208 183 66 q 95 380 95 281 q 184 643 95 544 q 346 719 252 718 q 510 631 438 718 l 557 669 q 346 781 477 780 q 107 647 198 781 q 33 380 33 533 q 153 60 33 157 q 321 4 224 4 q 532 132 467 4 q 566 279 566 199 q 473 491 566 438 q 397 511 438 511 q 277 448 321 511 q 251 365 251 410 m 731 479 q 838 334 734 335 q 911 392 899 334 q 917 425 914 403 q 943 491 922 479 q 967 496 954 496 q 1051 301 1051 495 q 940 64 1050 65 q 863 107 890 64 q 860 111 861 110 l 814 79 q 854 31 840 42 q 943 4 891 4 q 1114 301 1112 7 q 983 557 1114 544 q 967 559 974 559 q 895 533 920 559 q 869 476 871 507 q 861 419 867 445 q 841 393 856 393 q 789 481 789 395 q 850 625 789 602 q 902 633 873 633 l 902 690 q 749 604 781 690 q 731 479 731 556 z "},"ෙ":{"ha":595,"x_min":33,"x_max":566,"o":"m 311 363 q 358 442 311 418 q 397 452 377 452 l 399 452 q 473 406 449 452 q 484 363 484 385 q 437 286 484 311 q 397 277 418 277 q 320 324 345 277 q 311 363 311 343 m 251 365 q 313 247 251 292 q 330 237 323 241 q 396 220 358 220 q 502 279 465 220 q 506 286 505 283 l 506 281 q 429 100 506 159 q 321 66 384 66 q 125 208 183 66 q 95 380 95 281 q 184 643 95 544 q 346 719 252 718 q 510 631 438 718 l 557 669 q 346 781 477 780 q 107 647 198 781 q 33 380 33 533 q 153 60 33 157 q 321 4 224 4 q 532 132 467 4 q 566 279 566 199 q 473 491 566 438 q 397 511 438 511 q 277 448 321 511 q 251 365 251 410 z "},"ේ":{"ha":848,"x_min":33,"x_max":746,"o":"m 311 363 q 358 442 311 418 q 397 452 377 452 l 399 452 q 473 406 449 452 q 484 363 484 385 q 437 286 484 311 q 397 277 418 277 q 320 324 345 277 q 311 363 311 343 m 251 365 q 313 247 251 292 q 330 237 323 241 q 396 220 358 220 q 502 279 465 220 q 506 286 505 283 l 506 281 q 429 100 506 159 q 321 66 384 66 q 125 208 183 66 q 95 380 95 281 q 184 643 95 544 q 346 719 252 718 q 510 631 438 718 l 525 643 l 525 623 l 583 623 l 583 859 q 606 857 593 857 q 735 945 705 857 q 746 1016 746 978 q 583 1171 739 1169 l 525 1171 l 525 708 q 346 781 450 781 q 107 647 198 781 q 33 380 33 533 q 153 60 33 157 q 321 4 224 4 q 532 132 467 4 q 566 279 566 199 q 473 491 566 438 q 397 511 438 511 q 277 448 321 511 q 251 365 251 410 m 605 913 q 576 916 591 913 l 576 1118 l 583 1118 q 690 1016 689 1114 q 605 913 681 920 z "},"ි":{"ha":0,"x_min":-705,"x_max":-60,"o":"m -705 926 q -576 1128 -705 1062 q -382 1171 -494 1171 q -118 1076 -208 1171 q -60 926 -60 1012 q -121 780 -60 841 q -171 745 -144 757 l -213 750 l -213 781 q -129 886 -149 811 q -123 926 -123 907 q -227 1076 -123 1025 q -382 1108 -293 1108 q -609 1021 -541 1108 q -642 926 -642 979 q -585 802 -642 849 q -552 781 -568 789 l -552 750 l -594 745 q -694 863 -666 776 q -705 926 -705 895 z "},"ී":{"ha":0,"x_min":-705,"x_max":-60,"o":"m -282 883 q -239 952 -282 932 q -206 960 -222 960 q -137 916 -157 960 q -129 883 -129 899 q -172 814 -129 834 q -206 806 -189 806 q -275 850 -254 806 q -282 883 -282 867 m -345 883 q -281 768 -345 808 q -206 746 -245 746 q -156 755 -182 746 q -60 926 -64 798 q -190 1128 -60 1062 q -382 1171 -273 1171 q -650 1074 -560 1171 q -705 926 -705 1012 q -644 780 -705 841 q -594 745 -621 757 l -552 750 l -552 781 q -637 890 -618 811 q -642 926 -642 909 q -537 1077 -642 1027 q -382 1108 -471 1108 q -142 1012 -206 1108 q -125 974 -132 993 q -210 1017 -157 1016 q -323 958 -282 1017 q -345 883 -345 924 z "},"ෳ":{"ha":396,"x_min":3,"x_max":385,"o":"m 3 479 q 75 670 3 629 q 174 690 113 690 l 174 633 q 68 556 87 633 q 60 481 60 525 q 111 393 62 395 q 136 437 129 393 q 164 530 145 507 q 239 559 190 559 q 385 326 377 559 q 385 301 385 313 q 214 4 384 5 q 91 71 134 4 q 85 79 87 77 l 132 111 q 164 75 152 83 q 212 64 184 64 q 323 301 323 66 q 237 496 321 495 q 191 449 199 496 q 189 425 190 442 q 157 346 182 363 q 110 334 138 334 q 3 479 4 336 z "},"ෟ":{"ha":396,"x_min":3,"x_max":385,"o":"m 3 479 q 75 670 3 629 q 174 690 113 690 l 174 633 q 68 556 87 633 q 60 481 60 525 q 111 393 62 395 q 136 437 129 393 q 164 530 145 507 q 239 559 190 559 q 385 326 377 559 q 385 301 385 313 q 214 4 384 5 q 91 71 134 4 q 85 79 87 77 l 132 111 q 164 75 152 83 q 212 64 184 64 q 323 301 323 66 q 237 496 321 495 q 191 449 199 496 q 189 425 190 442 q 157 346 182 363 q 110 334 138 334 q 3 479 4 336 z "},"ො":{"ha":1298,"x_min":33,"x_max":1227,"o":"m 311 363 q 358 442 311 418 q 397 452 377 452 l 399 452 q 473 406 449 452 q 484 363 484 385 q 437 286 484 311 q 397 277 418 277 q 320 324 345 277 q 311 363 311 343 m 251 365 q 313 247 251 292 q 330 237 323 241 q 396 220 358 220 q 502 279 465 220 q 506 286 505 283 l 506 281 q 429 100 506 159 q 321 66 384 66 q 125 208 183 66 q 95 380 95 281 q 184 643 95 544 q 346 719 252 718 q 510 631 438 718 l 557 669 q 346 781 477 780 q 107 647 198 781 q 33 380 33 533 q 153 60 33 157 q 321 4 224 4 q 532 132 467 4 q 566 279 566 199 q 473 491 566 438 q 397 511 438 511 q 277 448 321 511 q 251 365 251 410 m 947 707 l 982 663 q 1039 690 1002 689 q 1156 515 1131 690 q 1164 389 1164 458 q 1070 94 1164 133 q 1039 88 1054 88 q 982 115 1004 90 l 947 72 q 1040 24 981 24 q 1195 163 1146 24 q 1227 389 1227 254 q 1122 726 1227 646 q 1040 754 1085 754 q 947 707 981 753 z "},"ෝ":{"ha":1213,"x_min":33,"x_max":1147,"o":"m 311 363 q 358 442 311 418 q 397 452 377 452 l 399 452 q 473 406 449 452 q 484 363 484 385 q 437 286 484 311 q 397 277 418 277 q 320 324 345 277 q 311 363 311 343 m 251 365 q 313 247 251 292 q 330 237 323 241 q 396 220 358 220 q 502 279 465 220 q 506 286 505 283 l 506 281 q 429 100 506 159 q 321 66 384 66 q 125 208 183 66 q 95 380 95 281 q 184 643 95 544 q 346 719 252 718 q 510 631 438 718 l 557 669 q 346 781 477 780 q 107 647 198 781 q 33 380 33 533 q 153 60 33 157 q 321 4 224 4 q 532 132 467 4 q 566 279 566 199 q 473 491 566 438 q 397 511 438 511 q 277 448 321 511 q 251 365 251 410 m 1001 913 q 972 916 987 913 l 972 1118 l 979 1118 q 1086 1016 1085 1114 q 1001 913 1077 920 m 921 1171 l 921 746 q 865 705 887 734 l 901 662 q 955 689 922 688 q 1069 545 1039 689 q 1084 387 1084 477 q 993 94 1084 141 q 955 84 974 84 q 901 111 921 85 l 865 66 q 956 22 899 22 q 1114 159 1063 22 q 1147 387 1147 251 q 1043 722 1147 637 q 979 750 1013 745 l 979 859 q 1002 857 989 857 q 1131 945 1101 857 q 1142 1016 1142 978 q 979 1171 1135 1169 l 921 1171 z "},"ෘ":{"ha":378,"x_min":0,"x_max":339,"o":"m 0 195 q 54 37 0 87 q 127 8 85 8 q 214 28 152 8 q 245 34 235 34 q 290 7 271 33 l 339 39 q 294 203 294 104 q 308 399 294 220 q 315 544 315 477 q 163 746 313 745 q 8 552 9 743 q 11 502 8 537 l 71 502 q 69 552 69 519 q 163 685 72 684 q 254 545 252 682 q 241 353 254 454 q 144 387 205 387 q 20 300 60 387 q 0 195 0 254 m 141 69 q 61 197 62 72 q 115 317 61 286 q 155 328 133 328 q 235 290 201 327 q 229 199 229 225 q 247 85 229 133 q 235 87 241 87 q 164 72 228 87 q 141 69 149 69 z "},"ෲ":{"ha":795,"x_min":0,"x_max":709,"o":"m 370 195 q 425 37 370 87 q 498 8 456 8 q 586 28 524 8 q 616 34 605 34 q 661 7 642 33 l 709 39 q 665 203 665 107 q 678 399 665 220 q 685 544 685 477 q 533 746 684 745 q 378 552 380 743 q 381 502 378 537 l 441 502 q 439 552 439 519 q 533 685 442 684 q 625 545 624 682 q 613 353 625 479 q 514 387 576 387 q 393 304 433 387 q 370 195 370 255 m 513 69 q 431 197 433 72 q 486 317 431 286 q 525 328 503 328 q 605 290 571 327 q 600 199 600 225 q 617 85 600 133 q 605 87 612 87 q 536 72 597 87 q 513 69 521 69 m 0 195 q 54 37 0 87 q 127 8 85 8 q 214 28 152 8 q 245 34 235 34 q 290 7 271 33 l 339 39 q 294 203 294 104 q 308 399 294 220 q 315 544 315 477 q 163 746 313 745 q 8 552 9 743 q 11 502 8 537 l 71 502 q 69 552 69 519 q 163 685 72 684 q 254 545 252 682 q 241 353 254 454 q 144 387 205 387 q 20 300 60 387 q 0 195 0 254 m 141 69 q 61 197 62 72 q 115 317 61 286 q 155 328 133 328 q 235 290 201 327 q 229 199 229 225 q 247 85 229 133 q 235 87 241 87 q 164 72 228 87 q 141 69 149 69 z "},"ු":{"ha":0,"x_min":-644,"x_max":-61,"o":"m -644 -164 q -541 -274 -642 -273 l -61 -274 l -61 305 l -113 269 l -123 201 l -123 -212 l -534 -212 q -582 -152 -581 -209 q -574 -91 -582 -130 l -635 -84 q -644 -164 -644 -132 z "},"ූ":{"ha":0,"x_min":-646,"x_max":-62,"o":"m -646 -164 q -583 -263 -646 -236 q -529 -274 -559 -274 q -391 -227 -484 -274 q -262 -182 -304 -182 q -125 -274 -184 -184 l -62 -274 l -62 305 l -109 269 l -125 201 l -125 -183 q -259 -121 -186 -121 q -399 -168 -307 -121 q -525 -212 -483 -212 q -582 -164 -574 -212 q -583 -151 -583 -157 q -576 -91 -583 -123 l -637 -84 q -646 -164 -646 -125 z "},"ඹ":{"ha":764,"x_min":43,"x_max":722,"o":"m 43 340 q 132 28 43 91 q 214 4 167 4 q 319 66 286 4 q 332 123 332 94 q 313 201 332 149 q 307 231 307 218 q 373 275 309 275 q 441 231 439 273 q 425 176 441 220 q 415 123 415 149 q 473 19 415 52 q 533 4 500 4 q 708 187 674 4 q 722 397 722 262 q 475 998 722 913 q 357 1017 420 1017 q 151 932 237 1017 q 87 837 107 888 l 146 815 q 267 935 178 897 q 357 954 312 954 q 642 633 589 954 q 658 397 658 532 q 616 115 658 182 q 533 68 585 69 q 476 109 490 68 q 473 130 473 119 q 491 198 473 152 q 499 241 499 221 q 392 335 499 328 q 373 335 382 335 q 247 241 255 321 q 264 178 247 221 q 274 130 274 152 q 236 72 274 85 q 214 68 225 68 q 106 292 113 68 q 106 343 106 313 q 170 635 106 574 q 210 652 189 652 q 277 567 274 647 q 274 529 277 552 q 273 503 273 513 q 349 384 273 404 q 384 380 365 380 q 496 545 496 381 q 403 709 496 694 q 384 711 393 711 q 305 669 331 709 q 209 711 269 711 q 54 492 88 711 q 43 340 43 423 m 332 581 q 330 608 332 590 q 384 654 345 652 q 439 545 439 652 q 384 438 438 441 q 330 507 331 439 q 331 551 330 519 q 332 581 332 574 z "},"න":{"ha":909,"x_min":43,"x_max":878,"o":"m 636 65 q 529 119 560 65 q 525 126 526 123 q 555 271 555 187 q 425 526 555 509 q 412 528 418 528 q 378 526 400 529 q 404 585 395 567 q 503 713 456 684 q 597 739 544 739 q 783 590 728 739 q 815 369 815 500 q 669 68 815 96 q 636 65 652 65 m 43 297 q 144 54 43 133 q 297 4 206 4 q 487 73 419 5 q 636 4 538 5 q 878 369 876 7 q 708 776 878 692 q 597 802 658 802 q 388 681 467 800 q 267 798 359 776 q 225 802 247 802 q 90 734 136 802 q 64 640 64 693 q 179 463 64 517 q 237 442 206 449 q 282 435 254 438 q 189 324 241 338 q 165 321 176 321 q 106 345 115 323 q 110 370 107 355 l 49 372 q 43 297 43 338 m 297 66 q 125 187 172 66 q 106 277 110 228 q 170 263 132 263 q 320 374 264 263 q 358 469 335 407 q 382 473 370 473 q 483 368 458 473 q 492 271 492 326 q 368 76 492 114 q 297 66 335 66 m 251 492 q 119 639 121 526 q 182 736 119 709 q 225 745 203 745 q 330 675 301 745 q 340 612 340 647 l 340 591 q 301 486 327 560 q 251 492 279 486 z "},"ඳ":{"ha":808,"x_min":43,"x_max":780,"o":"m 399 -77 q 471 -228 399 -172 q 582 -263 519 -263 q 772 -156 701 -263 q 780 -142 776 -148 l 731 -107 q 582 -202 677 -201 q 476 -138 510 -202 q 461 -75 461 -109 q 483 4 463 -27 l 484 4 q 693 102 613 4 q 711 125 703 113 l 661 161 q 484 69 591 73 q 319 148 381 69 q 273 289 273 208 q 349 452 273 389 q 480 498 404 498 l 646 498 q 666 612 666 553 q 571 785 666 739 q 492 803 534 803 q 357 734 403 803 q 355 731 355 732 q 240 787 316 785 q 69 617 117 787 q 43 385 43 524 q 203 7 45 27 l 203 69 q 121 203 146 77 q 106 385 106 279 q 191 707 106 642 q 240 724 214 724 q 327 666 308 724 q 331 647 330 656 l 331 640 q 363 534 331 581 q 224 373 259 486 q 210 289 210 331 q 326 53 210 134 q 419 11 369 23 q 399 -77 399 -28 m 387 639 q 450 736 387 712 q 492 745 471 745 q 598 675 570 745 q 609 613 609 647 q 602 559 609 591 l 480 559 q 418 552 449 559 q 387 639 387 587 z "},"ඦ":{"ha":1008,"x_min":43,"x_max":974,"o":"m 718 548 l 617 548 l 617 612 q 694 738 617 712 q 734 745 713 745 q 827 692 799 745 q 840 639 840 667 q 798 534 838 576 q 718 548 764 548 m 302 304 q 381 468 302 423 q 461 487 416 487 l 715 487 q 863 384 826 487 q 875 304 875 346 q 757 95 875 163 q 589 54 686 54 q 347 160 423 54 q 302 304 302 221 m 241 304 q 373 49 241 134 q 590 -11 463 -11 q 873 109 779 -11 q 939 304 939 190 q 848 509 936 444 q 895 640 895 566 q 826 774 894 731 q 968 1001 948 906 q 974 1053 974 1027 l 911 1053 q 818 854 911 962 q 766 799 796 829 q 734 802 745 802 q 590 724 636 800 q 445 802 541 800 q 311 735 358 800 q 210 787 275 785 q 61 600 99 787 q 43 385 43 510 q 203 7 45 27 l 203 69 q 121 203 146 77 q 106 385 106 279 q 178 712 106 652 q 212 724 194 724 q 285 661 270 722 q 283 640 283 654 q 332 509 285 564 q 241 304 243 441 m 339 639 q 404 736 339 712 q 446 745 425 745 q 551 674 524 745 q 562 612 562 646 l 562 548 l 461 548 q 381 534 415 548 q 339 639 340 578 z "},"ඞ":{"ha":819,"x_min":43,"x_max":723,"o":"m 362 473 q 298 480 355 473 q 290 481 293 481 q 308 547 308 513 q 270 642 307 606 l 282 642 q 429 559 420 642 q 430 545 430 552 q 382 476 430 490 q 362 473 372 473 m 43 245 q 145 19 43 68 q 216 4 176 4 q 366 119 331 4 q 373 149 370 134 q 514 5 399 15 q 532 4 524 4 q 708 176 673 4 q 723 397 723 252 q 488 994 723 902 q 359 1017 430 1017 q 152 932 239 1017 q 90 837 109 888 l 148 815 q 269 935 179 895 q 359 954 313 954 q 639 658 582 954 q 659 397 659 548 q 617 118 659 184 q 532 68 586 69 q 407 237 426 68 q 403 309 404 266 l 346 309 q 290 96 339 146 q 216 68 260 68 q 109 208 122 68 q 107 247 107 227 q 205 418 107 387 q 251 425 228 425 q 307 420 277 425 q 366 416 339 416 q 476 479 445 416 q 490 545 490 509 q 351 688 490 661 q 275 694 317 694 q 85 643 137 694 q 81 637 83 639 q 49 547 49 602 q 111 437 49 475 q 117 434 114 435 q 43 245 43 369 m 106 547 q 148 614 106 594 q 179 621 164 621 q 245 578 225 621 q 252 547 252 563 q 210 480 252 500 q 179 473 195 473 q 113 515 133 473 q 106 547 106 530 z "},"ණ":{"ha":1160,"x_min":46,"x_max":1118,"o":"m 886 72 q 750 142 793 72 q 732 175 743 153 q 678 243 704 231 q 644 252 662 251 q 658 384 658 319 l 658 401 l 658 412 q 656 452 658 425 q 655 496 655 483 q 711 637 655 623 q 731 640 720 640 q 810 454 810 635 l 810 355 l 871 355 l 871 454 q 932 636 871 613 q 958 640 945 640 q 1054 378 1054 639 q 1016 142 1054 208 q 886 72 974 73 m 73 22 l 134 9 q 198 38 159 38 q 292 23 210 38 q 362 15 331 15 q 614 168 538 15 q 627 195 621 182 q 674 153 654 195 q 720 72 705 90 q 887 9 776 9 q 1104 189 1065 9 q 1118 378 1118 254 q 960 704 1116 703 q 853 643 886 704 q 841 604 842 624 q 781 690 833 663 q 730 704 757 704 q 613 612 639 703 q 499 739 575 694 q 652 974 629 875 q 659 1031 659 1002 l 597 1031 q 500 829 597 940 q 442 765 476 800 q 342 780 391 780 q 92 650 174 780 q 46 483 46 574 q 106 282 47 358 q 161 235 130 252 q 91 115 113 197 q 73 22 81 77 m 359 77 q 254 92 346 77 q 201 98 222 98 q 145 88 170 98 q 213 206 163 172 q 228 216 221 212 q 243 214 233 214 q 382 286 332 214 q 414 385 414 331 q 347 521 412 469 q 247 556 302 556 q 109 476 152 556 q 104 467 106 471 l 104 491 q 190 669 106 602 q 342 716 254 716 q 551 591 484 716 q 594 384 594 509 q 463 99 594 164 q 359 77 416 77 m 130 385 q 187 481 130 450 q 243 496 213 496 q 339 441 308 496 q 354 385 354 414 q 300 289 354 321 q 243 273 273 273 q 146 328 179 273 q 130 385 130 355 z "},"ඬ":{"ha":941,"x_min":42,"x_max":899,"o":"m 220 245 q 324 16 220 62 q 391 4 355 4 q 543 119 507 4 q 549 149 547 134 q 646 15 566 46 q 708 4 675 4 q 884 176 849 4 q 899 397 899 252 q 652 998 899 913 q 534 1017 598 1017 q 328 932 415 1017 q 264 837 285 888 l 324 815 q 445 935 355 897 q 534 954 490 954 q 812 670 754 954 q 836 397 836 556 q 793 118 836 184 q 708 68 762 69 q 582 244 600 68 q 578 309 579 271 l 521 309 q 458 90 517 137 q 392 68 430 68 q 283 209 296 68 q 282 245 282 227 q 358 453 282 403 q 425 472 388 472 l 612 472 q 616 521 616 495 q 521 694 616 650 q 444 712 486 712 q 321 659 365 711 q 214 718 286 716 q 61 566 102 718 q 42 385 42 491 q 203 7 43 24 l 203 69 q 121 198 148 77 q 104 385 104 275 q 176 644 104 591 q 214 656 195 656 q 289 591 274 656 q 292 567 292 579 q 297 528 292 553 l 218 528 l 218 472 l 288 472 q 222 300 237 429 q 220 245 220 273 m 347 567 q 414 652 347 637 q 444 656 429 656 q 548 585 521 656 q 559 528 557 559 l 354 528 q 347 567 347 549 z "},"ඟ":{"ha":1074,"x_min":42,"x_max":1032,"o":"m 800 66 q 700 127 732 68 q 722 239 722 179 q 659 389 722 338 q 628 407 643 401 q 647 500 647 446 q 646 525 647 510 q 646 541 646 537 q 722 708 647 663 q 789 726 751 726 q 954 562 918 726 q 968 396 968 492 q 800 66 967 68 m 517 378 l 538 330 q 591 361 570 342 q 656 278 642 350 q 661 237 661 258 q 593 91 661 136 q 506 66 556 66 q 315 377 316 69 q 483 726 316 724 q 585 661 553 726 q 595 628 593 644 q 585 545 585 589 q 585 530 585 541 q 586 506 586 515 q 517 378 585 411 m 251 377 q 506 4 252 5 q 665 69 606 5 q 800 4 712 5 q 1032 396 1031 7 q 831 785 1032 755 q 789 788 811 788 q 631 704 689 787 q 483 788 585 787 q 334 722 388 787 q 228 783 298 781 q 66 610 110 783 q 42 381 42 518 q 203 4 43 22 l 203 65 q 104 381 104 83 q 206 718 104 684 q 228 720 217 720 q 297 663 282 718 q 251 377 251 562 z "},"ඤ":{"ha":1402,"x_min":43,"x_max":1447,"o":"m 1066 -77 q 1138 -228 1066 -172 q 1249 -263 1187 -263 q 1439 -156 1369 -263 q 1447 -142 1443 -149 l 1398 -107 q 1249 -202 1344 -201 q 1143 -138 1177 -202 q 1128 -75 1128 -109 q 1150 4 1130 -27 l 1152 4 q 1364 107 1284 4 q 1378 125 1373 117 l 1328 161 q 1153 69 1259 73 q 986 148 1048 69 q 940 289 940 206 q 1016 452 940 389 q 1147 498 1072 498 l 1313 498 q 1333 612 1333 553 q 1237 787 1333 742 q 1160 803 1200 803 q 1025 736 1072 803 q 1008 700 1015 719 q 834 779 939 777 q 610 667 716 777 q 494 795 587 769 q 444 802 469 802 q 311 738 358 800 q 210 787 275 785 q 61 600 99 787 q 43 385 43 510 q 203 7 45 27 l 203 69 q 121 203 146 77 q 106 385 106 279 q 178 712 106 652 q 212 724 194 724 q 283 665 269 722 q 282 640 282 655 q 393 464 282 519 q 433 449 412 456 l 279 258 l 309 205 q 320 209 316 209 q 335 172 335 206 q 334 152 335 165 q 334 138 334 142 q 450 4 336 5 q 556 69 529 4 q 563 102 562 87 q 617 19 568 47 q 678 4 644 4 q 837 217 819 4 q 838 269 838 243 q 699 567 838 519 q 639 576 670 576 q 612 574 627 576 q 620 585 620 585 q 834 715 724 713 q 979 644 929 715 q 1004 594 996 621 q 1031 534 1015 557 q 891 373 926 486 q 878 289 878 331 q 993 53 878 134 q 1086 11 1036 23 q 1066 -77 1066 -28 m 1054 639 q 1118 736 1054 712 q 1160 745 1138 745 q 1265 675 1237 745 q 1276 613 1276 647 q 1270 559 1276 591 l 1147 559 q 1085 552 1116 559 q 1054 639 1054 587 m 675 66 q 593 216 593 69 l 593 240 l 534 240 l 534 216 q 450 66 530 68 q 387 152 388 69 q 387 163 387 155 q 388 180 388 174 q 359 262 387 256 q 544 488 368 271 q 632 518 581 518 q 762 395 728 518 q 776 269 776 340 q 675 66 774 69 m 338 639 q 401 736 338 712 q 444 745 422 745 q 548 675 519 745 q 559 612 559 648 l 559 606 l 468 492 q 338 639 339 524 z "},"ඕ":{"ha":764,"x_min":42,"x_max":722,"o":"m 332 933 q 214 913 274 933 q 153 1008 155 954 q 237 1095 153 1067 q 369 1112 292 1112 q 583 1043 513 1112 q 618 964 618 1006 q 553 868 617 898 q 332 933 464 933 m 91 1012 q 159 887 92 944 q 92 841 119 865 l 132 792 q 330 871 233 868 q 647 555 595 871 q 658 397 658 483 q 616 118 658 184 q 530 68 585 69 q 404 244 422 68 q 400 309 401 271 l 343 309 q 294 103 336 153 q 214 68 263 68 q 106 292 113 68 q 106 343 106 313 q 170 635 106 574 q 210 652 189 652 q 277 567 274 647 q 274 529 277 552 q 273 503 273 513 q 349 384 273 404 q 384 380 365 380 q 495 545 495 381 q 384 711 492 709 q 305 669 331 709 q 209 711 269 711 q 54 502 91 711 q 42 340 42 429 q 171 9 42 47 q 213 4 191 4 q 365 119 330 4 q 372 149 369 134 q 468 15 388 46 q 530 4 498 4 q 707 176 671 4 q 722 397 722 252 q 600 827 720 694 q 682 964 681 876 q 571 1127 682 1066 q 369 1173 486 1173 q 104 1067 157 1173 q 91 1012 91 1040 m 332 581 q 330 608 332 590 q 384 654 345 652 q 439 545 439 652 q 384 438 438 441 q 330 507 331 439 q 331 551 330 519 q 332 581 332 574 z "},"ඔ":{"ha":764,"x_min":43,"x_max":722,"o":"m 43 340 q 151 18 43 69 q 213 4 179 4 q 365 119 330 4 q 372 149 369 134 q 468 15 388 46 q 530 4 498 4 q 707 176 671 4 q 722 397 722 252 q 475 998 722 913 q 357 1017 420 1017 q 151 932 237 1017 q 87 837 107 888 l 146 815 q 267 935 178 897 q 357 954 312 954 q 642 633 589 954 q 658 397 658 532 q 616 118 658 184 q 530 68 585 69 q 404 244 422 68 q 400 309 401 271 l 343 309 q 281 90 339 137 q 214 68 252 68 q 106 304 111 68 q 106 343 106 321 q 170 635 106 574 q 210 652 189 652 q 277 567 274 647 q 274 529 277 552 q 273 503 273 513 q 349 384 273 404 q 384 380 365 380 q 496 545 496 381 q 403 709 496 694 q 384 711 393 711 q 305 669 331 709 q 209 711 269 711 q 54 492 88 711 q 43 340 43 423 m 332 581 q 330 608 332 590 q 384 654 345 652 q 439 545 439 652 q 384 438 438 441 q 330 507 331 439 q 331 551 330 519 q 332 581 332 574 z "},"ප":{"ha":781,"x_min":43,"x_max":739,"o":"m 519 548 l 419 548 l 419 612 q 498 739 419 715 q 536 745 515 745 q 629 692 601 745 q 642 639 642 667 q 600 534 640 576 q 519 548 566 548 m 106 304 q 184 468 106 423 q 264 487 220 487 l 518 487 q 663 385 627 487 q 677 304 677 347 q 559 95 677 163 q 391 54 488 54 q 151 159 227 54 q 106 304 106 221 m 43 304 q 175 49 43 134 q 392 -11 264 -11 q 675 109 581 -11 q 739 304 739 190 q 654 506 739 441 q 650 509 651 507 q 697 640 697 566 q 613 784 697 742 q 536 802 576 802 q 392 724 438 800 q 247 802 343 800 q 111 734 157 802 q 85 640 85 693 q 133 509 87 564 q 43 304 46 438 m 141 639 q 205 736 141 712 q 247 745 225 745 q 354 673 327 745 q 363 612 363 644 l 363 548 l 263 548 q 183 534 216 548 q 141 639 141 579 z "},"ඵ":{"ha":727,"x_min":43,"x_max":693,"o":"m 556 718 q 437 774 472 718 q 423 818 423 796 q 457 925 423 860 q 473 967 471 952 q 595 722 556 868 q 556 718 576 718 m 363 818 q 439 693 363 739 q 559 661 491 661 q 609 665 583 661 q 629 464 629 570 q 472 95 629 176 q 350 68 418 68 q 118 213 167 68 q 104 298 104 255 q 180 461 104 425 q 233 472 205 472 l 416 472 q 420 521 420 495 q 324 696 420 651 q 247 712 288 712 q 117 644 156 712 q 96 568 96 610 q 118 491 96 529 q 43 297 43 431 q 129 80 43 161 q 350 4 210 4 q 654 216 572 4 q 693 464 693 320 q 570 932 693 726 q 429 1096 509 1032 l 391 1051 q 404 1040 401 1043 q 425 1001 425 1023 q 395 928 425 983 q 363 818 363 868 m 151 567 q 214 652 151 635 q 247 656 231 656 q 353 586 326 656 q 363 526 362 559 l 227 526 q 163 515 194 526 q 151 567 151 543 z "},"ර":{"ha":655,"x_min":43,"x_max":613,"o":"m 43 359 q 161 57 43 151 q 326 4 229 4 q 562 149 484 4 q 613 374 613 244 q 574 570 613 483 q 384 715 513 700 q 357 716 370 716 q 260 700 301 716 q 452 935 411 849 q 480 1053 480 993 l 418 1053 q 323 852 418 962 q 220 745 286 811 q 43 359 45 566 m 106 359 l 106 363 l 106 368 q 180 582 109 499 q 350 656 245 656 q 518 538 464 656 q 549 374 549 468 q 458 117 549 201 q 327 66 403 66 q 134 198 191 66 q 106 359 106 267 z "},"ස":{"ha":789,"x_min":43,"x_max":747,"o":"m 567 551 l 430 551 l 430 612 q 507 738 430 712 q 547 745 526 745 q 640 692 612 745 q 652 639 652 667 q 618 543 651 585 q 567 551 593 551 m 119 266 q 195 472 119 422 q 260 491 222 491 l 563 491 q 682 321 665 491 q 685 266 685 294 q 612 81 685 123 q 560 68 587 68 q 434 244 452 68 q 430 309 431 271 l 374 309 q 319 96 368 146 q 244 68 289 68 q 129 178 157 68 q 119 266 119 218 m 57 266 q 151 31 57 94 q 244 4 191 4 q 399 130 365 4 q 403 149 401 140 q 499 15 419 46 q 560 4 526 4 q 730 138 685 4 q 747 266 747 195 q 674 507 747 434 q 665 515 669 513 q 708 640 708 571 q 624 784 708 742 q 547 802 587 802 q 403 724 449 800 q 258 802 354 800 q 122 734 168 802 q 96 640 96 693 q 119 551 96 591 l 43 551 l 43 492 l 125 492 q 60 320 75 449 q 57 266 57 292 m 152 639 q 217 736 152 712 q 259 745 237 745 q 363 674 336 745 q 374 612 374 646 l 374 551 l 180 551 q 152 639 152 589 z "},"ශ":{"ha":914,"x_min":43,"x_max":875,"o":"m 572 198 q 632 34 572 81 q 701 9 662 9 q 774 23 724 9 q 789 26 784 26 q 829 3 806 24 l 875 37 q 834 148 834 91 q 840 221 834 168 q 849 399 849 321 q 646 785 849 755 q 604 788 625 788 q 429 703 498 788 q 426 699 427 700 q 275 788 380 787 q 43 393 47 788 q 43 377 43 385 q 297 4 45 5 q 492 129 439 4 q 514 239 514 180 q 452 388 514 336 q 419 407 435 401 q 438 500 438 446 l 438 541 q 506 693 438 639 q 604 726 549 726 q 780 511 753 726 q 787 399 787 460 l 787 373 q 716 389 755 389 q 594 302 633 389 q 572 198 572 255 m 712 69 q 631 198 632 72 q 684 323 631 290 q 726 334 704 334 q 784 315 757 332 q 777 255 783 293 q 770 161 770 189 q 783 81 770 114 q 747 75 770 81 q 712 69 723 69 m 308 378 l 331 330 q 384 361 359 340 q 448 281 431 350 q 452 237 452 259 q 382 90 452 134 q 297 66 346 66 q 106 377 107 69 q 275 726 107 724 q 377 662 345 726 q 388 627 385 644 q 376 545 376 590 q 376 530 376 541 q 377 506 377 515 q 308 378 376 411 z "},"ෂ":{"ha":781,"x_min":43,"x_max":741,"o":"m 519 548 l 419 548 l 419 612 q 496 738 419 712 q 536 745 515 745 q 629 692 601 745 q 642 639 642 667 q 600 534 640 576 q 519 548 566 548 m 106 304 q 184 468 106 423 q 264 487 220 487 l 518 487 q 545 486 537 487 q 369 334 416 389 q 286 134 286 236 q 294 66 286 94 q 121 214 163 100 q 106 304 106 256 m 392 54 q 358 56 369 54 q 347 129 347 95 q 495 380 347 255 q 602 464 506 389 q 677 304 675 416 q 560 95 677 163 q 392 54 488 54 m 43 304 q 175 49 43 134 q 392 -11 264 -11 q 675 109 581 -11 q 741 304 741 190 q 650 509 738 444 q 697 640 697 566 q 613 784 697 742 q 536 802 576 802 q 392 724 438 800 q 247 802 343 800 q 111 734 157 802 q 85 640 85 693 q 134 509 87 564 q 43 304 45 441 m 141 639 q 206 736 141 712 q 248 745 227 745 q 353 674 326 745 q 363 612 363 646 l 363 548 l 263 548 q 183 534 217 548 q 141 639 142 578 z "},"ත":{"ha":907,"x_min":45,"x_max":878,"o":"m 45 260 l 75 209 q 85 210 80 210 q 111 170 110 208 q 203 27 111 71 q 323 4 255 4 q 492 65 431 5 q 636 3 544 4 q 876 308 856 3 q 878 369 878 338 q 718 770 878 678 q 595 802 662 802 q 380 675 492 802 q 372 666 376 670 q 260 793 351 766 q 208 802 235 802 q 73 735 119 802 q 46 640 46 694 q 157 467 46 519 q 198 450 178 457 l 45 260 m 635 65 q 528 115 562 66 q 559 269 559 176 q 449 537 559 480 q 384 553 418 553 q 357 551 374 553 l 384 585 q 513 713 465 685 q 595 739 553 739 q 779 598 722 739 q 815 369 815 507 q 692 76 815 126 q 635 65 665 65 m 323 66 q 175 144 202 66 q 170 180 170 161 q 126 264 168 250 q 297 476 194 345 q 372 495 330 495 q 484 384 454 495 q 496 269 496 334 q 370 72 496 103 q 323 66 347 66 m 102 639 q 164 738 102 712 q 208 746 186 746 q 312 678 283 746 q 324 612 324 648 l 324 608 l 232 492 q 102 639 103 526 z "},"ථ":{"ha":716,"x_min":43,"x_max":692,"o":"m 555 718 q 435 774 471 718 q 422 818 422 796 q 457 928 422 861 q 473 966 471 952 q 594 722 557 864 q 555 718 576 718 m 362 818 q 438 693 362 739 q 557 661 490 661 q 608 665 582 661 q 628 464 628 570 q 467 92 628 170 q 350 68 414 68 q 136 194 198 68 q 106 321 106 254 q 180 525 106 468 q 245 548 210 548 q 301 533 273 547 l 327 589 q 244 610 285 610 q 88 513 146 610 q 43 321 43 434 q 132 88 43 179 q 350 4 216 4 q 656 227 579 4 q 692 464 692 327 q 568 932 692 726 q 427 1096 507 1032 l 391 1051 q 396 1047 393 1050 q 403 1042 401 1043 q 423 1001 423 1023 q 393 928 423 983 q 362 818 362 868 z "},"ට":{"ha":701,"x_min":43,"x_max":658,"o":"m 43 321 q 138 571 43 494 q 244 610 186 610 q 327 589 286 609 l 301 533 q 245 548 271 548 q 132 460 171 548 q 106 321 106 400 q 182 123 106 197 q 330 68 241 68 q 572 290 518 68 q 593 480 593 373 q 327 954 591 952 q 157 865 221 954 q 130 815 141 842 l 71 837 q 250 1005 121 966 q 327 1017 289 1017 q 658 480 656 1015 q 460 30 658 118 q 330 4 401 4 q 81 153 156 4 q 43 321 43 231 z "},"ඨ":{"ha":769,"x_min":43,"x_max":735,"o":"m 594 718 q 475 774 510 718 q 461 818 461 796 q 495 926 461 860 q 510 964 507 951 q 625 720 586 872 q 594 718 604 718 m 400 818 q 476 693 400 739 q 595 661 528 661 q 639 665 617 661 q 670 350 670 525 q 625 109 670 167 q 536 68 591 68 q 410 244 427 68 q 406 309 407 271 l 349 309 q 300 103 342 153 q 220 68 269 68 q 111 212 134 68 q 106 293 106 251 q 136 445 106 381 q 244 547 176 537 q 258 548 251 548 q 313 533 285 547 l 339 589 q 256 610 297 610 q 100 513 163 610 q 80 473 90 494 q 43 293 43 397 q 132 33 43 99 q 218 4 170 4 q 370 119 335 4 q 377 149 374 134 q 473 15 393 46 q 536 4 503 4 q 722 168 686 4 q 735 350 735 233 q 581 975 735 747 q 465 1096 529 1048 l 429 1051 q 445 1038 439 1043 q 461 1001 461 1020 q 431 928 461 983 q 400 818 400 868 z "},"උ":{"ha":735,"x_min":45,"x_max":696,"o":"m 45 180 q 152 -118 45 -9 q 377 -205 240 -205 q 663 -43 578 -205 q 696 45 685 -1 l 632 54 q 510 -107 605 -56 q 377 -140 450 -140 q 148 8 216 -140 q 113 180 113 85 q 244 460 113 380 q 387 498 308 498 l 552 498 q 572 612 572 556 q 476 787 572 742 q 399 803 439 803 q 264 735 311 803 q 237 640 237 694 q 266 541 237 582 q 66 330 117 488 q 45 180 45 260 m 294 640 q 357 738 294 711 q 399 746 377 746 q 503 678 475 746 q 515 613 515 650 q 515 606 515 609 q 515 599 515 602 q 513 591 514 595 q 513 585 513 587 q 512 577 513 582 q 511 571 511 572 q 510 564 510 570 l 509 559 q 449 559 494 559 q 387 560 403 560 q 323 555 350 560 q 294 640 294 594 z "},"ඌ":{"ha":1074,"x_min":45,"x_max":1001,"o":"m 45 180 q 152 -118 45 -9 q 376 -205 239 -205 q 663 -43 578 -205 q 696 45 685 -1 l 632 54 q 509 -109 605 -56 q 376 -140 449 -140 q 148 7 216 -140 q 113 180 113 84 q 244 460 113 380 q 387 498 308 498 l 552 498 q 572 612 572 556 q 476 787 572 742 q 399 803 439 803 q 264 735 311 803 q 237 640 237 694 q 266 541 237 582 q 66 330 117 488 q 45 180 45 260 m 294 640 q 357 738 294 711 q 399 746 377 746 q 503 678 475 746 q 515 613 515 650 q 515 606 515 609 q 515 599 515 602 q 513 591 514 595 q 513 585 513 587 q 512 577 513 582 q 511 571 511 572 q 510 564 510 570 l 509 559 q 449 559 494 559 q 387 560 403 560 q 323 555 350 560 q 294 640 294 594 m 618 479 q 727 334 621 335 q 800 392 788 334 q 806 425 803 403 q 831 491 811 480 q 854 496 842 496 q 940 301 940 495 q 829 64 939 65 q 808 65 818 64 q 790 71 798 66 q 777 78 783 75 q 766 87 770 81 q 758 96 761 94 q 751 104 755 98 l 747 111 l 701 79 q 743 30 728 42 q 831 4 780 4 q 1001 301 1000 7 q 856 559 1000 557 q 784 533 808 559 q 758 476 760 507 q 749 419 755 445 q 728 393 743 393 q 677 481 677 395 q 738 625 677 601 q 791 633 760 633 l 791 690 q 636 602 669 690 q 618 479 618 555 z "},"ව":{"ha":712,"x_min":43,"x_max":669,"o":"m 43 297 q 126 80 43 161 q 340 4 205 4 q 640 248 570 4 q 669 480 669 347 q 338 1017 667 1016 q 146 937 227 1017 q 81 837 104 895 l 141 815 q 264 940 176 907 q 338 954 301 954 q 604 480 602 951 q 431 84 604 153 q 340 68 389 68 q 118 213 165 68 q 104 298 104 255 q 180 461 104 425 q 233 472 205 472 l 416 472 q 420 521 420 495 q 324 696 420 651 q 247 712 288 712 q 117 644 156 712 q 96 568 96 610 q 118 491 96 529 q 43 297 43 431 m 151 567 q 214 652 151 635 q 247 656 231 656 q 353 586 326 656 q 363 526 362 559 l 227 526 q 163 515 194 526 q 151 567 151 543 z "},"ය":{"ha":776,"x_min":43,"x_max":735,"o":"m 555 551 l 427 551 q 418 612 418 582 q 494 738 418 712 q 533 745 513 745 q 628 692 600 745 q 640 639 640 669 q 605 543 639 585 q 555 551 582 551 m 43 327 q 171 14 43 56 q 231 4 198 4 q 382 119 347 4 q 389 149 387 134 q 530 5 415 15 q 548 4 540 4 q 718 138 673 4 q 735 266 735 195 q 662 507 735 434 q 652 515 656 513 q 696 640 696 571 q 612 784 696 742 q 534 802 575 802 q 389 723 435 802 q 366 661 373 694 q 362 640 363 652 q 273 659 319 659 q 91 548 153 659 q 43 327 43 463 m 548 68 q 422 244 439 68 q 418 309 419 271 l 361 309 q 300 91 357 138 q 231 68 270 68 q 106 327 107 75 q 210 582 106 528 q 274 597 241 597 q 363 571 324 597 q 384 491 369 536 l 549 491 q 669 327 650 491 q 673 266 673 297 q 600 81 673 123 q 548 68 575 68 z "},"෴":{"ha":2741,"x_min":43,"x_max":2696,"o":"m 2110 144 q 2182 28 2110 56 q 2231 20 2205 20 l 2592 20 q 2696 130 2695 23 q 2687 210 2696 164 l 2626 203 q 2633 145 2633 171 q 2585 81 2630 83 l 2242 81 q 2176 153 2177 84 q 2181 193 2176 174 l 2226 412 l 2162 412 l 2162 410 l 2161 411 q 2045 324 2150 363 q 1931 278 1945 286 q 1915 267 1922 273 l 1992 621 l 1929 621 l 1926 609 q 1801 528 1908 566 q 1682 477 1702 492 q 1678 473 1679 475 l 1758 837 l 1694 837 l 1685 796 q 1572 716 1674 751 q 1459 673 1476 682 q 1449 665 1453 669 l 1508 933 l 1444 933 l 1373 606 q 1294 665 1364 621 q 1221 732 1221 709 l 1221 742 l 1229 776 l 1164 776 l 1080 397 q 996 456 1072 412 q 921 522 922 499 q 922 533 921 529 l 928 560 l 864 560 l 789 221 q 707 279 783 236 q 629 347 631 323 l 629 355 l 637 396 l 574 396 l 545 248 q 465 88 522 125 q 376 65 429 65 l 155 65 q 107 127 109 68 q 114 187 107 156 l 53 194 q 43 114 43 146 q 148 4 46 5 l 382 4 q 570 113 518 4 q 609 245 593 160 l 614 271 q 696 218 625 260 q 768 140 766 175 q 764 110 768 123 l 765 111 l 758 83 l 822 83 l 903 449 q 985 395 914 435 q 1059 315 1058 350 q 1058 300 1059 304 l 1050 262 l 1114 262 l 1202 658 q 1280 604 1213 646 q 1352 524 1351 559 l 1352 511 l 1322 378 l 1386 378 l 1427 566 q 1545 646 1442 609 q 1657 690 1640 678 q 1663 696 1660 694 l 1571 281 l 1634 281 l 1656 378 q 1784 463 1675 423 q 1900 511 1881 498 q 1906 517 1903 515 l 1827 155 l 1891 155 l 1895 172 q 2020 256 1912 216 q 2135 307 2116 292 q 2140 312 2138 311 l 2115 190 q 2110 144 2110 165 z "},"ඏ":{"ha":1180,"x_min":42,"x_max":1137,"o":"m 901 136 q 943 202 901 182 q 974 209 958 209 q 1040 167 1020 209 q 1047 136 1047 151 q 1005 68 1047 88 q 974 61 989 61 q 907 104 928 61 q 901 136 901 119 m 1074 385 q 1066 224 1074 289 q 972 264 1029 263 q 936 259 952 264 q 939 304 939 289 q 853 503 939 437 q 846 509 849 506 q 895 640 895 564 q 894 659 895 654 q 968 724 910 723 q 1063 555 1038 724 q 1074 385 1074 481 m 718 548 l 617 548 l 617 612 q 694 738 617 712 q 734 745 713 745 q 827 692 799 745 q 840 639 840 667 q 798 534 838 576 q 718 548 762 548 m 304 304 q 382 468 304 423 q 463 487 418 487 l 716 487 q 863 384 826 487 q 875 304 875 347 q 757 95 875 163 q 589 54 686 54 q 349 159 425 54 q 304 304 304 221 m 241 304 q 244 259 241 285 q 206 264 227 264 q 113 222 148 263 q 104 385 104 290 q 178 712 104 656 q 210 724 194 724 q 285 659 270 722 q 283 640 283 652 q 332 509 285 564 q 241 304 243 441 m 339 639 q 403 736 339 712 q 445 745 423 745 q 552 673 525 745 q 562 612 562 644 l 562 548 l 461 548 q 381 534 415 548 q 339 639 340 578 m 42 385 q 117 35 42 103 q 203 4 151 4 q 315 64 277 4 q 326 85 321 75 q 590 -11 425 -11 q 853 85 757 -9 q 945 8 878 23 q 975 4 960 4 q 1111 122 1076 4 q 1137 385 1137 210 q 1004 781 1137 736 q 968 787 986 787 q 867 736 902 785 q 734 802 821 800 q 590 724 636 800 q 445 802 541 800 q 312 736 357 800 q 210 787 275 785 q 64 617 104 787 q 42 385 42 525 m 132 136 q 174 202 132 182 q 205 209 189 209 q 271 167 251 209 q 278 136 278 151 q 236 68 278 88 q 205 61 220 61 q 138 104 159 61 q 132 136 132 119 z "},"ඐ":{"ha":1598,"x_min":42,"x_max":1563,"o":"m 901 148 q 943 216 901 195 q 974 222 959 222 q 1040 179 1020 222 q 1047 148 1047 164 q 1005 81 1047 102 q 974 75 990 75 q 907 117 928 75 q 901 148 901 132 m 1074 399 q 1066 236 1074 302 q 972 278 1029 277 q 935 273 951 278 q 937 317 937 300 q 846 522 936 456 q 895 652 895 576 q 894 673 895 666 q 967 738 910 736 q 1063 566 1039 738 q 1074 399 1074 492 m 718 560 l 617 560 l 617 625 q 693 751 617 726 q 732 758 712 758 q 826 707 798 758 q 840 652 840 682 q 798 548 838 590 q 718 560 760 560 m 304 317 q 382 480 304 434 q 463 499 418 499 l 716 499 q 861 397 826 499 q 875 317 875 361 q 760 109 875 176 q 589 66 686 66 q 350 171 427 66 q 304 317 304 233 m 240 317 q 243 273 240 298 q 205 278 225 278 q 111 236 149 277 q 104 399 104 312 q 176 726 104 666 q 210 738 193 738 q 283 677 267 738 q 285 673 285 674 q 283 652 283 665 q 332 522 285 575 q 240 317 244 449 m 339 652 q 401 750 339 723 q 445 758 423 758 q 549 690 522 758 q 562 625 562 661 l 562 560 l 461 560 q 381 547 414 560 q 339 652 339 591 m 42 399 q 114 49 42 119 q 203 16 149 16 q 315 77 277 16 q 326 99 321 88 q 589 3 423 3 q 853 99 754 4 q 940 20 878 38 q 974 16 956 16 q 1109 133 1074 16 q 1135 399 1135 221 q 1000 796 1135 755 q 968 800 985 800 q 867 749 902 799 q 734 815 822 814 q 589 738 636 814 q 445 815 543 814 q 312 749 358 814 q 210 800 275 799 q 64 631 104 800 q 42 399 42 538 m 132 148 q 174 216 132 195 q 205 222 190 222 q 271 179 251 222 q 278 148 278 164 q 236 81 278 102 q 205 75 221 75 q 138 117 159 75 q 132 148 132 132 m 1180 479 q 1289 334 1183 335 q 1362 392 1350 334 q 1367 425 1364 403 q 1393 491 1373 480 q 1416 496 1404 496 q 1501 301 1501 495 q 1390 64 1500 65 q 1369 65 1379 64 q 1352 71 1359 66 q 1338 78 1344 75 q 1327 87 1332 81 q 1320 96 1322 94 q 1313 104 1317 98 l 1309 111 l 1263 79 q 1305 30 1290 42 q 1393 4 1341 4 q 1563 301 1561 7 q 1417 559 1561 557 q 1345 533 1370 559 q 1319 476 1321 507 q 1311 419 1317 445 q 1290 393 1305 393 q 1238 481 1238 395 q 1299 625 1238 601 q 1352 633 1321 633 l 1352 690 q 1198 602 1230 690 q 1180 479 1180 555 z "},"ඍ":{"ha":1166,"x_min":45,"x_max":1124,"o":"m 785 195 q 840 37 785 87 q 914 8 872 8 q 1000 27 939 8 q 1032 34 1020 34 q 1076 7 1058 33 l 1124 39 q 1080 203 1080 107 q 1095 396 1080 221 q 1101 544 1101 477 q 949 746 1100 745 q 793 552 795 743 q 796 502 793 537 l 857 502 q 854 552 854 534 q 949 685 857 684 q 1040 545 1039 682 q 1028 353 1040 479 q 930 387 991 387 q 807 301 848 387 q 785 195 785 254 m 928 69 q 846 197 848 72 q 901 317 846 286 q 940 328 918 328 q 1020 290 986 327 q 1015 199 1015 225 q 1034 85 1015 136 q 1021 87 1028 87 q 951 72 1013 87 q 928 69 936 69 m 555 551 l 418 551 l 418 612 q 494 738 418 712 q 533 745 513 745 q 628 692 600 745 q 640 639 640 669 q 605 543 639 585 q 555 551 582 551 m 107 266 q 180 477 107 433 q 229 491 202 491 l 549 491 q 670 320 652 491 q 673 266 673 293 q 600 81 673 123 q 548 68 575 68 q 422 244 439 68 q 418 309 419 271 l 362 309 q 307 96 355 146 q 232 68 277 68 q 117 178 145 68 q 107 266 107 218 m 45 266 q 138 31 45 94 q 232 4 179 4 q 382 119 347 4 q 389 149 387 134 q 514 7 412 26 q 548 4 530 4 q 718 138 673 4 q 735 266 735 195 q 662 507 735 434 q 652 515 656 513 q 696 640 696 571 q 612 784 696 742 q 534 802 575 802 q 389 724 437 800 q 245 802 343 800 q 110 734 156 802 q 84 640 84 693 q 127 515 85 570 q 45 266 49 435 m 140 639 q 203 736 140 712 q 245 745 224 745 q 350 677 323 745 q 362 612 362 647 l 362 551 l 225 551 q 174 543 198 551 q 140 639 140 586 z "},"ඎ":{"ha":1537,"x_min":45,"x_max":1495,"o":"m 1157 195 q 1211 37 1157 87 q 1284 8 1242 8 q 1370 27 1309 8 q 1402 34 1390 34 q 1446 7 1428 33 l 1495 39 q 1451 203 1451 104 q 1465 399 1451 220 q 1472 544 1472 477 q 1320 746 1470 745 q 1165 552 1166 743 q 1168 502 1165 519 l 1227 502 q 1225 552 1225 534 q 1320 685 1227 684 q 1411 545 1409 682 q 1398 353 1411 454 q 1301 387 1362 387 q 1177 300 1217 387 q 1157 195 1157 254 m 1298 69 q 1217 197 1218 72 q 1271 317 1217 286 q 1310 328 1289 328 q 1392 290 1356 327 q 1386 199 1386 225 q 1404 85 1386 133 q 1392 87 1398 87 q 1321 72 1383 87 q 1298 69 1306 69 m 785 195 q 840 37 785 87 q 914 8 872 8 q 1000 27 939 8 q 1032 34 1020 34 q 1076 7 1058 33 l 1124 39 q 1080 203 1080 107 q 1095 396 1080 221 q 1101 544 1101 477 q 949 746 1100 745 q 793 552 795 743 q 796 502 793 537 l 857 502 q 854 552 854 534 q 949 685 857 684 q 1040 545 1039 682 q 1028 353 1040 479 q 930 387 991 387 q 807 301 848 387 q 785 195 785 254 m 928 69 q 846 197 848 72 q 901 317 846 286 q 940 328 918 328 q 1020 290 986 327 q 1015 199 1015 225 q 1034 85 1015 136 q 1021 87 1028 87 q 951 72 1013 87 q 928 69 936 69 m 555 551 l 418 551 l 418 612 q 494 738 418 712 q 533 745 513 745 q 628 692 600 745 q 640 639 640 669 q 605 543 639 585 q 555 551 582 551 m 107 266 q 180 477 107 433 q 229 491 202 491 l 549 491 q 670 320 652 491 q 673 266 673 293 q 600 81 673 123 q 548 68 575 68 q 422 244 439 68 q 418 309 419 271 l 362 309 q 307 96 355 146 q 232 68 277 68 q 117 178 145 68 q 107 266 107 218 m 45 266 q 138 31 45 94 q 232 4 179 4 q 382 119 347 4 q 389 149 387 134 q 514 7 412 26 q 548 4 530 4 q 718 138 673 4 q 735 266 735 195 q 662 507 735 434 q 652 515 656 513 q 696 640 696 571 q 612 784 696 742 q 534 802 575 802 q 389 724 437 800 q 245 802 343 800 q 110 734 156 802 q 84 640 84 693 q 127 515 85 570 q 45 266 49 435 m 140 639 q 203 736 140 712 q 245 745 224 745 q 350 677 323 745 q 362 612 362 647 l 362 551 l 225 551 q 174 543 198 551 q 140 639 140 586 z "},"/":{"ha":517,"x_min":38,"x_max":492,"o":"m 429 983 l 38 -94 l 104 -95 l 492 983 l 429 983 z "}," ":{"ha":404,"x_min":0,"x_max":0,"o":""},"£":{"ha":620,"x_min":28,"x_max":564,"o":"m 555 0 l 555 62 l 195 62 l 195 437 l 458 437 l 458 498 l 195 498 l 195 617 q 315 853 195 815 q 366 861 339 861 q 532 804 448 860 l 564 860 q 363 926 468 926 q 164 815 228 926 q 122 635 122 742 l 122 498 l 28 498 l 28 437 l 122 437 l 122 62 l 30 62 l 30 0 l 555 0 z "},"∑":{"ha":655,"x_min":35,"x_max":605,"o":"m 35 -237 l 605 -237 l 605 -175 l 125 -175 l 488 351 l 160 856 l 605 856 l 605 920 l 65 920 l 65 871 l 408 349 l 35 -191 l 35 -237 z "},"t":{"ha":416,"x_min":28,"x_max":399,"o":"m 399 24 l 378 71 q 304 49 336 49 q 212 157 221 49 q 210 183 210 171 l 210 620 l 378 620 l 378 678 l 210 678 l 210 861 l 141 861 l 141 678 l 28 678 l 28 620 l 141 620 l 141 167 q 232 -1 141 34 q 286 -11 258 -11 q 399 24 340 -9 z "},"ť":{"ha":416,"x_min":28,"x_max":423,"o":"m 399 24 l 378 71 q 304 49 336 49 q 212 157 221 49 q 210 183 210 171 l 210 620 l 378 620 l 378 678 l 210 678 l 210 861 l 141 861 l 141 678 l 28 678 l 28 620 l 141 620 l 141 167 q 232 -1 141 34 q 286 -11 258 -11 q 399 24 340 -9 m 422 895 q 381 959 422 948 q 368 962 374 960 q 319 926 331 962 q 315 902 315 914 q 354 849 316 863 q 302 731 349 798 l 328 711 q 419 864 400 779 q 422 895 422 882 z "},"þ":{"ha":654,"x_min":110,"x_max":605,"o":"m 319 49 q 180 84 252 49 l 180 397 q 269 602 180 540 q 355 629 309 629 q 491 541 441 629 q 530 370 530 472 q 431 88 530 170 q 319 49 382 49 m 180 -277 l 180 15 q 323 -11 256 -11 q 547 123 468 -11 q 605 370 605 225 q 496 646 605 560 q 368 689 439 689 q 180 571 247 688 l 180 983 l 110 983 l 110 -277 l 180 -277 z "},"¾":{"ha":1085,"x_min":14,"x_max":1047,"o":"m 981 0 l 981 136 l 1047 136 l 1047 189 l 981 189 l 981 552 l 907 552 l 654 176 l 661 134 l 916 136 l 916 0 l 981 0 m 197 353 q 361 426 308 353 q 391 522 391 468 q 308 647 391 608 q 259 663 285 658 q 361 757 342 685 q 365 788 365 773 q 279 910 365 873 q 194 926 240 926 q 35 852 91 926 q 27 840 31 845 l 75 811 q 193 873 115 872 q 289 823 263 873 q 298 783 298 804 q 237 699 298 726 q 161 684 203 684 l 125 684 l 125 633 l 183 633 q 319 560 293 633 q 326 525 326 543 q 250 418 326 445 q 193 408 222 408 q 46 464 114 410 l 14 419 q 197 353 96 353 m 317 -15 l 880 997 l 814 997 l 248 -14 l 317 -15 m 916 189 l 727 189 l 916 471 l 916 189 z "},"³":{"ha":438,"x_min":14,"x_max":391,"o":"m 197 353 q 361 426 308 353 q 391 522 391 468 q 308 647 391 608 q 259 663 285 658 q 361 757 342 685 q 365 788 365 773 q 279 910 365 873 q 194 926 240 926 q 35 852 91 926 q 27 840 31 845 l 75 811 q 193 873 115 872 q 289 823 263 873 q 298 783 298 804 q 237 699 298 726 q 161 684 203 684 l 125 684 l 125 633 l 183 633 q 319 560 293 633 q 326 525 326 543 q 250 418 326 445 q 193 408 222 408 q 46 464 114 410 l 14 419 q 197 353 96 353 z "},"˜":{"ha":492,"x_min":56,"x_max":437,"o":"m 327 879 q 248 906 302 879 q 175 928 208 926 q 56 871 114 926 l 90 836 q 172 868 129 868 q 252 841 198 868 q 331 819 297 819 q 437 878 388 821 l 403 914 q 327 879 366 879 z "},"™":{"ha":1010,"x_min":28,"x_max":928,"o":"m 28 917 l 28 871 l 168 871 l 168 335 l 227 335 l 227 871 l 366 871 l 366 917 l 28 917 m 420 335 l 468 694 q 476 754 471 713 q 483 808 480 791 q 495 762 487 793 q 515 694 509 716 l 620 355 l 670 357 l 783 694 q 818 808 793 724 l 830 694 l 872 335 l 928 335 l 857 916 l 803 916 l 674 524 q 650 435 671 514 q 639 476 646 449 q 627 522 631 507 l 506 916 l 449 916 l 368 335 l 420 335 z "},"²":{"ha":468,"x_min":39,"x_max":393,"o":"m 393 366 l 393 425 l 142 425 l 241 537 q 274 572 252 549 q 376 709 357 662 q 385 761 385 736 q 300 905 385 859 q 209 926 258 926 q 39 837 100 925 l 90 808 q 203 872 133 871 q 307 817 275 872 q 320 761 320 792 q 250 627 320 707 q 201 574 239 614 l 39 399 l 39 366 l 393 366 z "},"u":{"ha":684,"x_min":107,"x_max":659,"o":"m 618 -11 q 659 -7 637 -11 l 656 46 q 635 45 647 45 q 572 98 582 45 q 568 145 568 118 l 568 678 l 498 678 l 498 286 q 408 73 498 137 q 319 45 368 45 q 187 144 218 45 q 178 218 178 178 l 178 678 l 107 678 l 107 213 q 232 1 107 43 q 311 -11 269 -11 q 495 102 431 -11 q 503 118 499 110 q 575 -5 507 12 q 618 -11 594 -11 z "},"ú":{"ha":684,"x_min":107,"x_max":659,"o":"m 618 -11 q 659 -7 637 -11 l 656 46 q 635 45 647 45 q 572 98 582 45 q 568 145 568 118 l 568 678 l 498 678 l 498 286 q 408 73 498 137 q 319 45 368 45 q 187 144 218 45 q 178 218 178 178 l 178 678 l 107 678 l 107 213 q 232 1 107 43 q 311 -11 269 -11 q 495 102 431 -11 q 503 118 499 110 q 575 -5 507 12 q 618 -11 594 -11 m 503 918 l 457 977 l 263 829 l 297 781 l 503 918 z "},"û":{"ha":684,"x_min":107,"x_max":659,"o":"m 618 -11 q 659 -7 637 -11 l 656 46 q 635 45 647 45 q 572 98 582 45 q 568 145 568 118 l 568 678 l 498 678 l 498 286 q 408 73 498 137 q 319 45 368 45 q 187 144 218 45 q 178 218 178 178 l 178 678 l 107 678 l 107 213 q 232 1 107 43 q 311 -11 269 -11 q 495 102 431 -11 q 503 118 499 110 q 575 -5 507 12 q 618 -11 594 -11 m 350 968 l 175 819 l 209 777 l 347 884 l 487 776 l 522 822 l 350 968 z "},"ü":{"ha":684,"x_min":107,"x_max":659,"o":"m 618 -11 q 659 -7 637 -11 l 656 46 q 635 45 647 45 q 572 98 582 45 q 568 145 568 118 l 568 678 l 498 678 l 498 286 q 408 73 498 137 q 319 45 368 45 q 187 144 218 45 q 178 218 178 178 l 178 678 l 107 678 l 107 213 q 232 1 107 43 q 311 -11 269 -11 q 495 102 431 -11 q 503 118 499 110 q 575 -5 507 12 q 618 -11 594 -11 m 278 873 q 241 929 278 918 q 228 930 235 930 q 180 891 190 930 q 178 873 178 882 q 216 818 178 827 q 228 817 222 817 q 275 856 266 817 q 278 873 278 865 m 511 873 q 475 929 511 918 q 460 930 467 930 q 414 892 425 930 q 411 873 411 883 q 445 819 411 831 q 460 817 453 817 q 509 856 499 817 q 511 873 511 865 z "},"ù":{"ha":684,"x_min":107,"x_max":659,"o":"m 618 -11 q 659 -7 637 -11 l 656 46 q 635 45 647 45 q 572 98 582 45 q 568 145 568 118 l 568 678 l 498 678 l 498 286 q 408 73 498 137 q 319 45 368 45 q 187 144 218 45 q 178 218 178 178 l 178 678 l 107 678 l 107 213 q 232 1 107 43 q 311 -11 269 -11 q 495 102 431 -11 q 503 118 499 110 q 575 -5 507 12 q 618 -11 594 -11 m 213 918 l 259 977 l 453 829 l 419 781 l 213 918 z "},"ű":{"ha":681,"x_min":107,"x_max":659,"o":"m 618 -11 q 659 -7 637 -11 l 656 46 q 635 45 647 45 q 572 98 582 45 q 568 145 568 118 l 568 678 l 498 678 l 498 286 q 408 73 498 137 q 319 45 368 45 q 187 144 218 45 q 178 218 178 178 l 178 678 l 107 678 l 107 213 q 232 1 107 43 q 311 -11 269 -11 q 495 102 431 -11 q 503 118 499 110 q 575 -5 507 12 q 618 -11 594 -11 m 400 932 l 349 986 l 168 823 l 205 781 l 400 932 m 631 932 l 581 986 l 400 823 l 437 781 l 631 932 z "},"ū":{"ha":684,"x_min":107,"x_max":659,"o":"m 618 -11 q 659 -7 637 -11 l 656 46 q 635 45 647 45 q 572 98 582 45 q 568 145 568 118 l 568 678 l 498 678 l 498 286 q 408 73 498 137 q 319 45 368 45 q 187 144 218 45 q 178 218 178 178 l 178 678 l 107 678 l 107 213 q 232 1 107 43 q 311 -11 269 -11 q 495 102 431 -11 q 503 118 499 110 q 575 -5 507 12 q 618 -11 594 -11 m 175 903 l 175 845 l 514 845 l 514 903 l 175 903 z "},"_":{"ha":678,"x_min":-1,"x_max":680,"o":"m -1 -221 l -1 -277 l 680 -277 l 680 -221 l -1 -221 z "}," ":{"ha":258,"x_min":0,"x_max":0,"o":""},"­":{"ha":814,"x_min":62,"x_max":380,"o":"m 62 393 l 62 334 l 380 334 l 380 393 l 62 393 z "},"µ":{"ha":699,"x_min":110,"x_max":662,"o":"m 180 -277 l 178 50 q 316 -11 229 -11 q 502 109 437 -11 q 506 118 505 114 q 578 -5 510 12 q 621 -11 597 -11 q 662 -7 639 -11 l 658 46 q 637 45 648 45 q 575 98 585 45 q 571 145 571 118 l 571 678 l 500 678 l 500 286 q 411 73 500 137 q 321 45 370 45 q 190 144 221 45 q 180 218 180 178 l 180 678 l 110 678 l 110 -277 l 180 -277 z "},"Ģ":{"ha":764,"x_min":53,"x_max":692,"o":"m 692 66 l 692 433 l 401 433 l 401 370 l 618 370 l 618 106 q 422 54 509 54 q 179 210 255 54 q 132 456 132 309 q 248 798 132 690 q 410 860 317 860 q 623 704 553 857 l 692 728 q 457 924 620 901 q 412 926 434 926 q 136 777 235 926 q 53 456 53 651 q 205 57 53 178 q 415 -12 292 -12 q 692 66 543 -11 m 445 -136 q 406 -71 445 -83 q 391 -68 397 -68 q 339 -104 353 -68 q 335 -127 336 -117 q 377 -183 338 -170 q 323 -302 370 -235 l 349 -323 q 441 -168 423 -255 q 445 -136 445 -151 z "},"ģ":{"ha":617,"x_min":56,"x_max":589,"o":"m 309 273 q 184 342 229 273 q 157 448 157 388 q 240 613 157 567 q 308 631 273 631 q 431 559 388 631 q 458 448 458 511 q 377 289 458 334 q 309 273 345 273 m 309 688 q 136 602 199 688 q 90 448 90 538 q 180 254 91 317 q 103 144 110 210 q 160 54 103 84 q 165 52 164 53 q 56 -111 57 -22 q 163 -262 56 -216 q 300 -288 222 -288 q 544 -193 468 -288 q 583 -76 583 -141 q 476 77 583 34 q 355 98 425 98 l 233 96 q 168 137 182 96 q 165 156 165 146 q 224 225 165 205 q 232 228 229 227 q 308 216 267 216 q 480 298 418 216 q 526 448 526 361 q 454 632 525 564 l 589 629 l 589 688 l 366 680 q 309 688 338 688 m 302 -229 q 138 -159 180 -229 q 123 -104 123 -134 q 224 37 125 -24 l 241 37 l 351 39 q 502 -26 464 42 q 514 -77 514 -50 q 403 -216 514 -180 q 302 -229 359 -229 m 241 853 q 281 788 241 800 q 296 785 289 785 q 346 819 332 785 q 351 845 351 833 q 309 901 349 886 q 363 1020 316 949 l 338 1040 q 245 886 263 972 q 241 853 241 868 z "},"Ķ":{"ha":705,"x_min":111,"x_max":699,"o":"m 694 46 q 637 87 661 45 l 401 487 l 671 916 l 594 916 l 342 513 l 183 513 l 183 916 l 111 916 l 111 0 l 183 0 l 183 453 l 340 453 l 578 54 q 667 -11 616 -9 q 699 -7 685 -11 l 694 46 m 418 -136 q 378 -71 418 -83 q 363 -68 370 -68 q 312 -104 326 -68 q 308 -127 309 -117 q 350 -183 311 -170 q 296 -302 343 -235 l 321 -323 q 414 -168 396 -255 q 418 -136 418 -151 z "},"ķ":{"ha":593,"x_min":111,"x_max":586,"o":"m 556 -11 q 586 -8 568 -11 l 582 45 l 568 45 q 534 71 551 45 q 526 84 530 77 l 355 385 l 559 678 l 483 678 l 311 426 l 180 426 l 180 983 l 111 983 l 111 0 l 180 0 l 180 368 l 292 368 l 469 54 q 556 -11 509 -9 m 385 -136 q 346 -71 385 -83 q 331 -68 338 -68 q 279 -104 293 -68 q 275 -127 277 -117 q 317 -183 278 -170 q 263 -302 311 -235 l 289 -323 q 381 -168 363 -255 q 385 -136 385 -151 z "},"Ļ":{"ha":543,"x_min":110,"x_max":529,"o":"m 529 0 l 529 62 l 183 62 l 183 916 l 110 916 l 110 0 l 529 0 m 384 -136 q 345 -71 384 -83 q 330 -68 336 -68 q 278 -104 292 -68 q 274 -127 275 -117 q 316 -183 277 -170 q 262 -302 309 -235 l 288 -323 q 380 -168 362 -255 q 384 -136 384 -151 z "},"ļ":{"ha":317,"x_min":110,"x_max":305,"o":"m 227 -9 q 305 7 263 -9 l 288 60 q 239 47 259 47 q 180 129 182 50 l 180 983 l 110 983 l 110 121 q 189 -4 110 19 q 227 -9 206 -9 m 250 -136 q 210 -71 250 -83 q 195 -68 202 -68 q 144 -104 157 -68 q 140 -127 141 -117 q 182 -183 142 -170 q 127 -302 175 -235 l 153 -323 q 245 -168 228 -255 q 250 -136 250 -151 z "},"Ņ":{"ha":829,"x_min":111,"x_max":718,"o":"m 718 0 l 718 916 l 647 916 l 647 146 l 179 925 l 111 916 l 111 0 l 182 0 l 182 783 l 652 -9 l 718 0 m 469 -136 q 430 -71 469 -83 q 415 -68 422 -68 q 363 -104 377 -68 q 359 -127 361 -117 q 401 -183 362 -170 q 347 -302 395 -235 l 373 -323 q 465 -168 448 -255 q 469 -136 469 -151 z "},"ņ":{"ha":677,"x_min":113,"x_max":631,"o":"m 628 46 q 570 79 579 41 q 566 126 566 96 l 566 465 q 448 675 566 632 q 369 689 412 689 q 179 562 241 688 l 178 678 l 113 678 l 113 0 l 183 0 l 183 388 q 275 606 183 545 q 359 632 315 632 q 487 526 460 632 q 495 456 495 494 l 495 118 q 597 -11 505 -5 q 631 -7 614 -11 l 628 46 m 401 -136 q 362 -71 401 -83 q 347 -68 354 -68 q 296 -104 309 -68 q 292 -127 293 -117 q 334 -183 294 -170 q 279 -302 327 -235 l 305 -323 q 397 -168 380 -255 q 401 -136 401 -151 z "},"Ŗ":{"ha":684,"x_min":111,"x_max":658,"o":"m 184 0 l 184 404 l 316 404 q 357 406 345 404 l 533 54 q 623 -11 567 -9 q 658 -7 644 -11 l 654 46 l 646 46 q 594 85 612 49 l 427 418 q 614 591 576 456 q 625 673 625 629 q 387 914 625 890 q 316 918 354 918 q 111 916 178 918 l 111 0 l 184 0 m 308 856 q 532 760 490 856 q 548 663 548 720 q 326 468 548 476 q 307 468 315 468 l 184 468 l 184 852 q 308 856 244 856 m 406 -136 q 366 -71 406 -83 q 351 -68 358 -68 q 300 -104 313 -68 q 296 -127 297 -117 q 338 -183 298 -170 q 283 -302 331 -235 l 309 -323 q 401 -168 384 -255 q 406 -136 406 -151 z "},"ŗ":{"ha":395,"x_min":106,"x_max":396,"o":"m 180 0 l 180 397 q 255 594 180 532 q 339 625 293 625 q 388 617 362 625 l 396 682 q 350 689 369 689 q 191 587 250 689 q 176 559 183 574 l 175 680 l 110 680 l 110 0 l 180 0 m 228 -136 q 189 -71 228 -83 q 174 -68 180 -68 q 122 -104 136 -68 q 118 -127 119 -117 q 160 -183 121 -170 q 106 -302 153 -235 l 132 -323 q 224 -168 206 -255 q 228 -136 228 -151 z "},"Ş":{"ha":647,"x_min":60,"x_max":556,"o":"m 279 -260 q 420 -187 382 -260 q 434 -133 434 -161 q 354 -11 434 -53 q 346 -7 349 -8 q 529 117 476 12 q 555 235 555 170 q 434 448 555 370 q 300 518 415 460 q 170 624 197 568 q 155 693 155 655 q 243 841 155 795 q 332 863 285 863 q 487 781 434 863 q 496 764 492 772 l 556 795 q 393 921 513 898 q 338 926 366 926 q 142 849 218 926 q 80 692 80 784 q 197 488 80 563 q 327 420 216 476 q 461 311 431 369 q 479 232 479 275 q 387 71 479 115 q 300 53 347 53 q 94 123 199 54 l 60 68 q 289 -11 167 -8 q 378 -122 373 -58 q 316 -197 378 -179 q 270 -203 294 -203 q 228 -199 250 -203 l 225 -255 q 279 -260 251 -260 z "},"ş":{"ha":517,"x_min":52,"x_max":458,"o":"m 210 -260 q 351 -187 313 -260 q 365 -133 365 -161 q 292 -15 365 -57 q 281 -9 286 -12 q 433 85 387 4 q 454 175 454 126 q 351 338 454 275 q 283 374 330 351 q 165 453 191 419 q 142 519 142 483 q 214 621 142 594 q 266 631 239 631 q 397 566 351 631 q 404 556 401 560 l 458 586 q 298 688 411 674 q 269 689 283 689 q 110 623 168 689 q 72 519 72 578 q 174 359 72 420 q 243 323 195 346 q 362 243 335 278 q 385 174 385 212 q 313 60 385 92 q 252 47 285 47 q 81 107 165 49 l 52 57 q 216 -8 127 0 q 309 -122 305 -57 q 247 -197 309 -179 q 201 -203 225 -203 q 159 -199 180 -203 l 156 -255 q 210 -260 182 -260 z "},"Ţ":{"ha":556,"x_min":11,"x_max":543,"o":"m 239 -260 q 380 -186 343 -260 q 393 -132 393 -160 q 313 0 392 -54 l 313 853 l 543 853 l 543 917 l 11 917 l 11 853 l 240 853 l 240 0 q 338 -122 336 -56 q 281 -195 338 -174 q 228 -203 256 -203 q 187 -199 209 -203 l 184 -255 q 239 -260 210 -260 z "},"ţ":{"ha":426,"x_min":28,"x_max":399,"o":"m 212 -260 q 354 -191 316 -260 q 369 -136 369 -164 q 294 -11 368 -60 q 399 24 345 -8 l 378 71 q 304 49 336 49 q 212 157 221 49 q 210 183 210 171 l 210 620 l 378 620 l 378 678 l 210 678 l 210 861 l 141 861 l 141 678 l 28 678 l 28 620 l 141 620 l 141 167 q 222 3 142 43 q 309 -106 297 -39 q 311 -122 311 -114 q 239 -199 311 -186 q 202 -203 221 -203 q 160 -199 182 -203 l 157 -255 q 212 -260 184 -260 z "},"Ș":{"ha":618,"x_min":60,"x_max":556,"o":"m 555 235 q 434 448 555 370 q 300 518 415 460 q 170 624 197 568 q 155 693 155 655 q 243 841 155 795 q 332 863 285 863 q 487 781 434 863 q 496 764 492 772 l 556 795 q 393 921 513 898 q 338 926 366 926 q 142 849 218 926 q 80 692 80 784 q 197 488 80 563 q 327 420 216 476 q 461 311 431 369 q 479 232 479 275 q 387 71 479 115 q 300 53 347 53 q 94 123 199 54 l 60 68 q 296 -11 171 -11 q 507 83 435 -11 q 555 235 555 145 m 385 -136 q 346 -71 385 -83 q 331 -68 338 -68 q 279 -104 293 -68 q 275 -127 277 -117 q 317 -183 278 -170 q 263 -302 311 -235 l 289 -323 q 381 -168 363 -255 q 385 -136 385 -151 z "},"ș":{"ha":517,"x_min":52,"x_max":458,"o":"m 454 175 q 351 338 454 275 q 283 374 330 351 q 165 453 191 419 q 142 519 142 483 q 214 621 142 594 q 266 631 239 631 q 397 566 351 631 q 404 556 401 560 l 458 586 q 298 688 411 674 q 269 689 283 689 q 110 623 168 689 q 72 519 72 578 q 174 359 72 420 q 243 323 195 346 q 362 243 335 278 q 385 174 385 212 q 313 60 385 92 q 252 47 285 47 q 81 107 165 49 l 52 57 q 251 -11 142 -11 q 416 62 358 -11 q 454 175 454 110 m 349 -136 q 309 -71 349 -83 q 294 -68 301 -68 q 243 -104 256 -68 q 239 -127 240 -117 q 281 -183 241 -170 q 227 -302 274 -235 l 252 -323 q 345 -168 327 -255 q 349 -136 349 -151 z "},"Ț":{"ha":556,"x_min":11,"x_max":543,"o":"m 11 917 l 11 853 l 240 853 l 240 0 l 313 0 l 313 853 l 543 853 l 543 917 l 11 917 m 334 -136 q 294 -71 334 -83 q 279 -68 286 -68 q 228 -104 241 -68 q 224 -127 225 -117 q 266 -183 227 -170 q 212 -302 259 -235 l 237 -323 q 330 -168 312 -255 q 334 -136 334 -151 z "},"ț":{"ha":416,"x_min":28,"x_max":399,"o":"m 399 24 l 378 71 q 304 49 336 49 q 212 157 221 49 q 210 183 210 171 l 210 620 l 378 620 l 378 678 l 210 678 l 210 861 l 141 861 l 141 678 l 28 678 l 28 620 l 141 620 l 141 167 q 232 -1 141 34 q 286 -11 258 -11 q 399 24 340 -9 m 308 -136 q 269 -71 308 -83 q 254 -68 260 -68 q 202 -104 216 -68 q 198 -127 199 -117 q 240 -183 201 -170 q 186 -302 233 -235 l 212 -323 q 304 -168 286 -255 q 308 -136 308 -151 z "},"ˉ":{"ha":486,"x_min":73,"x_max":412,"o":"m 73 903 l 73 845 l 412 845 l 412 903 l 73 903 z "},"₺":{"ha":773,"x_min":33,"x_max":713,"o":"m 713 434 l 636 434 q 441 72 625 123 q 354 61 401 61 q 229 62 278 61 l 229 336 l 464 423 l 464 483 l 229 396 l 229 503 l 464 589 l 464 648 l 229 563 l 229 916 l 156 916 l 156 536 l 33 491 l 33 433 l 156 477 l 156 369 l 33 324 l 33 264 l 156 309 l 156 0 q 354 -4 281 -4 q 703 323 650 -5 q 713 434 711 376 z "},"₽":{"ha":690,"x_min":28,"x_max":632,"o":"m 319 856 q 547 727 514 856 q 555 656 555 694 q 395 461 555 496 q 307 453 354 453 l 195 453 l 195 852 q 319 856 255 856 m 460 240 l 460 297 l 195 297 l 195 395 l 339 395 q 590 515 513 395 q 632 670 632 582 q 327 918 629 917 q 122 916 189 918 l 122 453 l 28 453 l 28 395 l 122 395 l 122 297 l 28 297 l 28 240 l 122 240 l 122 0 l 195 0 l 195 240 l 460 240 z "},"ℓ":{"ha":435,"x_min":15,"x_max":431,"o":"m 399 838 q 305 1020 399 987 q 259 1027 283 1027 q 118 796 119 1024 l 119 334 q 15 229 72 275 l 52 182 q 121 245 98 222 l 121 168 q 205 5 121 49 q 273 -11 236 -11 q 431 66 362 -9 l 395 109 q 282 50 338 50 q 194 134 210 50 q 191 175 191 153 l 191 327 q 387 726 342 519 q 399 838 399 785 m 189 799 q 260 966 190 964 q 335 833 335 963 q 220 476 335 671 q 190 427 205 450 l 189 799 z "},"Ω":{"ha":859,"x_min":71,"x_max":787,"o":"m 343 0 l 343 66 q 171 321 212 137 q 156 461 156 388 q 264 792 156 685 q 433 860 334 860 q 667 684 600 860 q 703 461 703 589 q 589 126 703 250 q 511 65 553 88 l 515 0 l 787 0 l 787 62 l 598 62 q 760 311 712 148 q 781 467 781 388 q 646 852 781 731 q 434 926 560 926 q 151 762 250 926 q 77 465 77 640 q 187 127 77 263 q 254 62 218 90 l 71 62 l 71 0 l 343 0 z "},"∆":{"ha":789,"x_min":14,"x_max":776,"o":"m 776 0 l 444 920 l 349 920 l 14 0 l 776 0 m 674 60 l 111 60 l 393 857 l 674 60 z "},"∕":{"ha":726,"x_min":38,"x_max":670,"o":"m 107 -15 l 38 -14 l 604 997 l 670 997 l 107 -15 z "},"∙":{"ha":463,"x_min":114,"x_max":349,"o":"m 349 399 q 290 505 349 471 q 231 519 262 519 q 129 458 161 519 q 114 399 114 431 q 174 294 114 327 q 231 279 201 279 q 335 340 302 279 q 349 399 349 368 z "},"ų":{"ha":689,"x_min":110,"x_max":669,"o":"m 669 -252 l 666 -201 q 621 -208 642 -208 q 530 -155 548 -208 q 526 -130 526 -142 q 643 -14 526 -56 q 662 -7 652 -9 l 658 46 q 637 45 648 45 q 575 98 585 45 q 571 145 571 118 l 571 678 l 500 678 l 500 286 q 411 73 500 137 q 321 45 370 45 q 190 144 221 45 q 180 218 180 178 l 180 678 l 110 678 l 110 213 q 235 1 110 43 q 313 -11 271 -11 q 488 88 426 -11 q 505 117 498 102 q 571 -3 510 18 q 579 -5 575 -4 q 464 -123 483 -50 q 461 -148 461 -137 q 530 -247 461 -217 q 605 -260 564 -260 q 669 -252 629 -260 z "},"ů":{"ha":684,"x_min":107,"x_max":659,"o":"m 618 -11 q 659 -7 637 -11 l 656 46 q 635 45 647 45 q 572 98 582 45 q 568 145 568 118 l 568 678 l 498 678 l 498 286 q 408 73 498 137 q 319 45 368 45 q 187 144 218 45 q 178 218 178 178 l 178 678 l 107 678 l 107 213 q 232 1 107 43 q 311 -11 269 -11 q 495 102 431 -11 q 503 118 499 110 q 575 -5 507 12 q 618 -11 594 -11 m 479 882 q 404 1004 479 972 q 350 1015 378 1015 q 239 955 275 1015 q 220 880 220 922 q 297 757 220 787 q 347 747 321 747 q 458 806 420 747 q 479 882 479 840 m 271 880 q 321 963 271 944 q 347 968 334 968 q 418 922 397 968 q 426 880 426 902 q 372 798 426 814 q 349 793 359 793 q 279 838 300 793 q 271 880 271 859 z "},"v":{"ha":564,"x_min":5,"x_max":559,"o":"m 308 0 l 559 678 l 488 678 l 282 109 l 79 678 l 5 678 l 250 0 l 308 0 z "},"ඃ":{"ha":313,"x_min":43,"x_max":271,"o":"m 98 205 q 133 151 98 168 q 157 145 145 145 q 210 180 194 145 q 216 205 216 193 q 180 258 216 243 q 157 263 168 263 q 103 229 121 263 q 98 205 98 217 m 43 205 q 99 302 43 270 q 157 319 127 319 q 255 264 221 319 q 271 205 271 236 q 214 106 271 140 q 157 91 187 91 q 58 146 91 91 q 43 205 43 174 m 98 552 q 133 498 98 515 q 157 492 145 492 q 210 528 194 492 q 216 552 216 540 q 180 605 216 590 q 157 610 170 610 q 103 576 121 610 q 98 552 98 564 m 43 552 q 99 650 43 617 q 157 666 127 666 q 255 612 221 666 q 271 552 271 583 q 214 453 271 487 q 157 438 187 438 q 58 494 91 438 q 43 552 43 521 z "},"w":{"ha":925,"x_min":5,"x_max":918,"o":"m 271 0 l 461 574 l 644 0 l 693 0 l 918 678 l 852 678 l 674 113 l 498 675 l 430 671 l 252 113 l 77 678 l 5 678 l 222 0 l 271 0 z "},"x":{"ha":563,"x_min":9,"x_max":552,"o":"m 547 46 q 541 45 544 45 q 494 80 518 47 l 319 342 l 544 678 l 471 678 l 283 395 l 100 678 l 16 678 l 241 342 l 9 0 l 84 0 l 278 286 l 430 53 q 519 -11 475 -9 q 552 -8 529 -11 l 547 46 z "},"y":{"ha":541,"x_min":-79,"x_max":547,"o":"m 476 678 l 274 104 l 71 678 l -4 678 l 239 11 q 127 -197 176 -153 q 49 -228 92 -228 q -54 -201 3 -227 l -79 -255 q 50 -288 -11 -288 q 241 -133 165 -288 q 277 -49 259 -96 l 547 678 l 476 678 z "},"ý":{"ha":541,"x_min":-79,"x_max":547,"o":"m 476 678 l 274 104 l 71 678 l -4 678 l 239 11 q 127 -197 176 -153 q 49 -228 92 -228 q -54 -201 3 -227 l -79 -255 q 50 -288 -11 -288 q 241 -133 165 -288 q 277 -49 259 -96 l 547 678 l 476 678 m 435 918 l 389 977 l 195 829 l 229 781 l 435 918 z "},"ÿ":{"ha":541,"x_min":-79,"x_max":547,"o":"m 476 678 l 274 104 l 71 678 l -4 678 l 239 11 q 127 -197 176 -153 q 49 -228 92 -228 q -54 -201 3 -227 l -79 -255 q 50 -288 -11 -288 q 241 -133 165 -288 q 277 -49 259 -96 l 547 678 l 476 678 m 209 873 q 172 929 209 918 q 159 930 165 930 q 111 891 121 930 q 109 873 109 882 q 146 818 109 827 q 159 817 153 817 q 206 856 197 817 q 209 873 209 865 m 442 873 q 406 929 442 918 q 391 930 397 930 q 345 892 355 930 q 342 873 342 883 q 376 819 342 831 q 391 817 384 817 q 439 856 430 817 q 442 873 442 865 z "},"¥":{"ha":708,"x_min":31,"x_max":652,"o":"m 583 191 l 583 248 l 374 248 l 374 346 l 583 346 l 583 403 l 403 403 l 652 916 l 576 916 l 422 590 q 342 408 377 498 q 262 593 297 518 l 111 916 l 31 916 l 275 403 l 92 403 l 92 346 l 301 346 l 301 248 l 92 248 l 92 191 l 301 191 l 301 0 l 374 0 l 374 191 l 583 191 z "},"z":{"ha":544,"x_min":45,"x_max":498,"o":"m 136 58 l 496 636 l 496 678 l 57 678 l 57 621 l 410 621 l 45 41 l 45 0 l 498 0 l 498 58 l 136 58 z "},"ź":{"ha":544,"x_min":45,"x_max":498,"o":"m 136 58 l 496 636 l 496 678 l 57 678 l 57 621 l 410 621 l 45 41 l 45 0 l 498 0 l 498 58 l 136 58 m 452 918 l 406 977 l 212 829 l 245 781 l 452 918 z "},"ž":{"ha":544,"x_min":45,"x_max":498,"o":"m 136 58 l 496 636 l 496 678 l 57 678 l 57 621 l 410 621 l 45 41 l 45 0 l 498 0 l 498 58 l 136 58 m 290 776 l 465 925 l 431 967 l 293 860 l 153 968 l 118 922 l 290 776 z "},"ż":{"ha":544,"x_min":45,"x_max":498,"o":"m 136 58 l 496 636 l 496 678 l 57 678 l 57 621 l 410 621 l 45 41 l 45 0 l 498 0 l 498 58 l 136 58 m 331 860 q 309 918 343 901 q 305 920 307 920 q 255 895 271 933 q 252 890 254 892 q 278 830 243 846 q 328 854 312 817 q 331 860 330 857 z "},"‍":{"ha":0,"x_min":-243,"x_max":243,"o":"m -31 11 l 28 11 l 28 777 l 194 663 l 231 715 l 56 836 l 243 966 l 206 1017 l 0 875 l -205 1017 l -243 966 l -56 836 l -231 715 l -193 663 l -31 776 l -31 11 z "},"‌":{"ha":0,"x_min":-31,"x_max":28,"o":"m -31 3 l -31 998 l 28 998 l 28 3 l -31 3 z "}}}
